<mxfile host="65bd71144e">
    <diagram id="Z9WHHm6GwrlMFi-61mC9" name="第 1 页">
        <mxGraphModel dx="1920" dy="1736" grid="1" gridSize="10" guides="1" tooltips="1" connect="1" arrows="1" fold="1" page="1" pageScale="1" pageWidth="827" pageHeight="1169" math="0" shadow="0">
            <root>
                <mxCell id="0"/>
                <mxCell id="1" parent="0"/>
                <mxCell id="DFymFndXBQcYxfHrS0Dq-1" value="FLatentResponse" style="swimlane;fontStyle=1;align=center;verticalAlign=top;childLayout=stackLayout;horizontal=1;startSize=26;horizontalStack=0;resizeParent=1;resizeParentMax=0;resizeLast=0;collapsible=1;marginBottom=0;" vertex="1" parent="1">
                    <mxGeometry x="-270" y="110" width="390" height="86" as="geometry"/>
                </mxCell>
                <mxCell id="DFymFndXBQcYxfHrS0Dq-2" value="TArray&lt; FExecutionInfo, TInlineAllocator&lt;4&gt; &gt; LinksToExecute;" style="text;strokeColor=none;fillColor=none;align=left;verticalAlign=top;spacingLeft=4;spacingRight=4;overflow=hidden;rotatable=0;points=[[0,0.5],[1,0.5]];portConstraint=eastwest;" vertex="1" parent="DFymFndXBQcYxfHrS0Dq-1">
                    <mxGeometry y="26" width="390" height="26" as="geometry"/>
                </mxCell>
                <mxCell id="DFymFndXBQcYxfHrS0Dq-3" value="" style="line;strokeWidth=1;fillColor=none;align=left;verticalAlign=middle;spacingTop=-1;spacingLeft=3;spacingRight=3;rotatable=0;labelPosition=right;points=[];portConstraint=eastwest;strokeColor=inherit;" vertex="1" parent="DFymFndXBQcYxfHrS0Dq-1">
                    <mxGeometry y="52" width="390" height="8" as="geometry"/>
                </mxCell>
                <mxCell id="DFymFndXBQcYxfHrS0Dq-4" value="+ method(type): type" style="text;strokeColor=none;fillColor=none;align=left;verticalAlign=top;spacingLeft=4;spacingRight=4;overflow=hidden;rotatable=0;points=[[0,0.5],[1,0.5]];portConstraint=eastwest;" vertex="1" parent="DFymFndXBQcYxfHrS0Dq-1">
                    <mxGeometry y="60" width="390" height="26" as="geometry"/>
                </mxCell>
                <mxCell id="DFymFndXBQcYxfHrS0Dq-5" value="FLatentActionManager" style="swimlane;fontStyle=1;align=center;verticalAlign=top;childLayout=stackLayout;horizontal=1;startSize=26;horizontalStack=0;resizeParent=1;resizeParentMax=0;resizeLast=0;collapsible=1;marginBottom=0;" vertex="1" parent="1">
                    <mxGeometry x="520" y="130" width="630" height="112" as="geometry"/>
                </mxCell>
                <mxCell id="DFymFndXBQcYxfHrS0Dq-6" value="FObjectToActionListMap ObjectToActionListMap;" style="text;strokeColor=none;fillColor=none;align=left;verticalAlign=top;spacingLeft=4;spacingRight=4;overflow=hidden;rotatable=0;points=[[0,0.5],[1,0.5]];portConstraint=eastwest;" vertex="1" parent="DFymFndXBQcYxfHrS0Dq-5">
                    <mxGeometry y="26" width="630" height="26" as="geometry"/>
                </mxCell>
                <mxCell id="DFymFndXBQcYxfHrS0Dq-7" value="" style="line;strokeWidth=1;fillColor=none;align=left;verticalAlign=middle;spacingTop=-1;spacingLeft=3;spacingRight=3;rotatable=0;labelPosition=right;points=[];portConstraint=eastwest;strokeColor=inherit;" vertex="1" parent="DFymFndXBQcYxfHrS0Dq-5">
                    <mxGeometry y="52" width="630" height="8" as="geometry"/>
                </mxCell>
                <mxCell id="DFymFndXBQcYxfHrS0Dq-8" value="void AddNewAction(UObject* InActionObject, int32 UUID, FPendingLatentAction* NewAction);" style="text;strokeColor=none;fillColor=none;align=left;verticalAlign=top;spacingLeft=4;spacingRight=4;overflow=hidden;rotatable=0;points=[[0,0.5],[1,0.5]];portConstraint=eastwest;" vertex="1" parent="DFymFndXBQcYxfHrS0Dq-5">
                    <mxGeometry y="60" width="630" height="26" as="geometry"/>
                </mxCell>
                <mxCell id="DFymFndXBQcYxfHrS0Dq-25" value="void FLatentActionManager::TickLatentActionForObject(float DeltaTime, FActionList&amp; ObjectActionList, UObject* InObject)" style="text;strokeColor=none;fillColor=none;align=left;verticalAlign=top;spacingLeft=4;spacingRight=4;overflow=hidden;rotatable=0;points=[[0,0.5],[1,0.5]];portConstraint=eastwest;" vertex="1" parent="DFymFndXBQcYxfHrS0Dq-5">
                    <mxGeometry y="86" width="630" height="26" as="geometry"/>
                </mxCell>
                <mxCell id="DFymFndXBQcYxfHrS0Dq-9" value="FPendingLatentAction" style="swimlane;fontStyle=1;align=center;verticalAlign=top;childLayout=stackLayout;horizontal=1;startSize=26;horizontalStack=0;resizeParent=1;resizeParentMax=0;resizeLast=0;collapsible=1;marginBottom=0;" vertex="1" parent="1">
                    <mxGeometry x="20" y="320" width="270" height="86" as="geometry"/>
                </mxCell>
                <mxCell id="DFymFndXBQcYxfHrS0Dq-10" value="+ field: type" style="text;strokeColor=none;fillColor=none;align=left;verticalAlign=top;spacingLeft=4;spacingRight=4;overflow=hidden;rotatable=0;points=[[0,0.5],[1,0.5]];portConstraint=eastwest;" vertex="1" parent="DFymFndXBQcYxfHrS0Dq-9">
                    <mxGeometry y="26" width="270" height="26" as="geometry"/>
                </mxCell>
                <mxCell id="DFymFndXBQcYxfHrS0Dq-11" value="" style="line;strokeWidth=1;fillColor=none;align=left;verticalAlign=middle;spacingTop=-1;spacingLeft=3;spacingRight=3;rotatable=0;labelPosition=right;points=[];portConstraint=eastwest;strokeColor=inherit;" vertex="1" parent="DFymFndXBQcYxfHrS0Dq-9">
                    <mxGeometry y="52" width="270" height="8" as="geometry"/>
                </mxCell>
                <mxCell id="DFymFndXBQcYxfHrS0Dq-12" value="virtual void UpdateOperation(FLatentResponse&amp; Response)" style="text;strokeColor=none;fillColor=none;align=left;verticalAlign=top;spacingLeft=4;spacingRight=4;overflow=hidden;rotatable=0;points=[[0,0.5],[1,0.5]];portConstraint=eastwest;" vertex="1" parent="DFymFndXBQcYxfHrS0Dq-9">
                    <mxGeometry y="60" width="270" height="26" as="geometry"/>
                </mxCell>
                <mxCell id="DFymFndXBQcYxfHrS0Dq-13" value="FLatentActionInfo" style="swimlane;fontStyle=1;align=center;verticalAlign=top;childLayout=stackLayout;horizontal=1;startSize=26;horizontalStack=0;resizeParent=1;resizeParentMax=0;resizeLast=0;collapsible=1;marginBottom=0;" vertex="1" parent="1">
                    <mxGeometry x="550" y="366" width="160" height="86" as="geometry"/>
                </mxCell>
                <mxCell id="DFymFndXBQcYxfHrS0Dq-14" value="+ field: type" style="text;strokeColor=none;fillColor=none;align=left;verticalAlign=top;spacingLeft=4;spacingRight=4;overflow=hidden;rotatable=0;points=[[0,0.5],[1,0.5]];portConstraint=eastwest;" vertex="1" parent="DFymFndXBQcYxfHrS0Dq-13">
                    <mxGeometry y="26" width="160" height="26" as="geometry"/>
                </mxCell>
                <mxCell id="DFymFndXBQcYxfHrS0Dq-15" value="" style="line;strokeWidth=1;fillColor=none;align=left;verticalAlign=middle;spacingTop=-1;spacingLeft=3;spacingRight=3;rotatable=0;labelPosition=right;points=[];portConstraint=eastwest;strokeColor=inherit;" vertex="1" parent="DFymFndXBQcYxfHrS0Dq-13">
                    <mxGeometry y="52" width="160" height="8" as="geometry"/>
                </mxCell>
                <mxCell id="DFymFndXBQcYxfHrS0Dq-16" value="+ method(type): type" style="text;strokeColor=none;fillColor=none;align=left;verticalAlign=top;spacingLeft=4;spacingRight=4;overflow=hidden;rotatable=0;points=[[0,0.5],[1,0.5]];portConstraint=eastwest;" vertex="1" parent="DFymFndXBQcYxfHrS0Dq-13">
                    <mxGeometry y="60" width="160" height="26" as="geometry"/>
                </mxCell>
                <mxCell id="DFymFndXBQcYxfHrS0Dq-19" value="" style="shape=image;verticalLabelPosition=bottom;labelBackgroundColor=default;verticalAlign=top;aspect=fixed;imageAspect=0;image=data:image/png,iVBORw0KGgoAAAANSUhEUgAABAsAAAE7CAYAAAC7eAi9AAAgAElEQVR4nOzdeXhU5fn/8Xf2TPaNkBBIQhLWgKIIirgUUbHWitq6tLZaW6ui1qVFStVa7WLR+q2VKlprtdaqtdq6VP2JG60LIIiCEJCdBMi+b5PJTCa/P86ZZGYy2ZeZwOd1XVxtzjxzzjNnUsp9n+e+n6DMzMx2RERERERERERMwf6egIiIiIiIiIgEFiULRERERERERMSDkgUiIiIiIiIi4kHJAhERERERERHxoGSBiIiIiIiIiHhQskBEREREREREPChZICIiIiIiIiIelCwQEREREREREQ9KFoiIiIiIiIiIByULRERERERERMSDkgUiIiIiIiIi4kHJAhERERERERHxoGSBiIiIiIiIiHhQskBEREREREREPChZICIiIiIiIiIelCwQEREREREREQ9KFoiIiIiIiIiIByULRGSYWMhcNpXJC8IGdZaYi/M49mLLEM1JRERERET6ItTfE+gqmITv5DFtmp2iv+zn8D7fr08KLWHjXxt6PpUlhom3TiB4zQ72rhuu+R4Zws7N4oTTYt2OtFH+qu7bqJSawOQl40m2OKhavZdda+x+mISFzGW5ZFjq2FMwmOtbSJoYSVRSLseyly0vWodshv2dR+ayLCI39ud+mveAcrbeX07jsM5PRERERGRoBV6ywBJFYmY4jt0lHomCsHMzmRJazrbXWgEn1mo7EEr6jZOI2uQe1IaSfv0Egt/az+ESoK2FljIgIYlpt0ZS9otiqvs5JVcg7SwrZduDlTSZx0Nmp3PMxclEtjV1k9gYHYzPF03D2j1se61lkOeJ8pFk8E4AhZJ+41Syx1Sz0/v7sMQw8dZsUq2ue22OHe/7mo4vC82kkXmNGeFeI5w0rN03qM/Vbx3BOtj3HWLr47XYBnXCMMZck0teehN7Hj1IRfkQzXMYxVycQUZSC4efHOx8rRTdvxPrNbnkzc4gc8seinYN1Sx7E8aYazKw/PeAeU0HLYftxvd7VSw1T/Xy2SbHkpjkoGp1jRIFIiIiIjLqBFyyIGxBMmnRTRR94L5qIJjopEhiZ+RxYm4ZByqAMAsTb88gLc5JQ1EkYAaDlkgiE6JJu2Y6iRtLaAKC89I57gwjqK/PAQYY1AenxJKQU0nTPmNOsdNiiRzEZw0MoaTkxIKtmuKRDKj7zEHJw9soAR+JBB+8EjdGQiePebN9JCaGSUR+LHHUcXh7BBkTY4lLrR3ZAL+8ll331I7gBb1MTiV3diTNm/YOUWBvp+KVUhKXjCfjglSqR+wpfSiWhBgyvj+DxE2HqAGYkMqx308lihZaEoBuv9cwxnwliajqavb6ZWWHiIiIiMjgBFiywAhcnZWl1HoE9E5q/76LdeZT5pwZABlYvixk3b1epQjWRvbfu439CUlMW55BGsAZkZS/uo3PB7SkPpjopAiclXXUhceSOCOSw/tazBUQIVTtbyA5cxS3frBEEhkHztrWQT79Dkxtm0r4Ajjm4mRyv9dAdW+lKz5ELJjAzNOgsE9P9cOImxQNJaXUHITU6dEk5odRUX60BIxmkGytY8//hrBkoLyWwg9iiVuUxLgFNSNUWmGl6P5tFJkrRTIswFmhVK3eyZberp8aTWJ6KM3bG7SqQERERERGpYBKFoTMHkPa+DYqX+3mqbE/tVkp2RzM1CkxRNNCy/RY4qwV7Ps0jOhMr/UF5hPwtLjOQ94lDJiJj8ywUrY95SRz+TgSzFc6l9YPkI/rD/qco1jb9gZq65NJmxhLEg39Xl1gK2ig/rTx5P04msTeegCkRpOYDvUfNNFQAPWnxRM3KZqINb5LEWIuzmPmbLffn+rO+vaIBROYuSiezvaA8eT9OJ68jp9bOPyk27L8ya6n3t283tu1rXVdyhxiLs5j5nQbex6txPK9XDKSus7Tw+RExuWE0rypspfEillakdP5V1BvJRvG99Dz/QwUMaenkMwQJ0xEREREREZQACULzGX9tjoKu6wA6KxHd5aVsW9bPGOsVTRNyWLeCq+a9I5A2UnDxsOU5iXg+LyFlMUzmHfe4HoLONY2UD8/noScapqmRdO29xDNJEJIJJFjMcobLDFMvGkMrf/YxjqPpfBpzLiVLsvng8emcczyNspf3ca6da6xWcz53sCCe1cfhVC3VReuc554q5mw8JFMIC6NY1akdfzYNbkxillbaKkH0iOwDKQMpbyWXfc0GcHtoikcm9J9o72I/FjiLA7KD9uhvImaEgfJCeGEgVdwaza/S2rh8JPbOgL6iAUTyLvYQsGLVmxrDvLpmoP0uWfBrnK2LDdeNBIB3X0gt+aDv99jns84lvfjCCzeCQaLkaRo3rSXdfdbO3oyTL2mtUtwH5ERQRgtlG/pKUh2v37n54m5OJusBU3dJ2Nc9zN9pEo7XN8RNG86xOGJKbCpnsRFU5i3qKdEjNGU0V5SSf0o6C8hIiIiIuJL4KyfT0ggfUYoDZuqfTz5ddJU3ULD2j188mCVEZzYrey/90sOHGrHWuFWa29toaW2iaLHt7PtTSPocO4p4fMVxdQ6bFj7nSgIxpJgNs2rrae2xELicfEkZrRRs81Hjb+1kf33eSYk2jaVsX9bK8EJ4UR0eYPnrgOusaETY0nqMrY3oaTOSya8rJTtbomGtk0lbPuggeCxY0ibR0epxrrl21h3zwFK643kwBfLzWPLt/HJkZIoAMCJtba1M6kzIHYqHv+SrZtaiJqdy7xlqcR0GWOUIIRV11O9y3hP/e4m7ElxJE32HBmxIIXUJAdVqws9Ak7bmoMUDHPHf+PaLRx+3j3xYKXor4eoskaS+pWELr+nzZvcEiRm0B6WHktcque4sJQIwqw2rD21TEiNINIC9pIGj2C68cUDvZQX2LHWOMASgSWhh2FDxoG1tpHDT25jy4tmSuRgOVt+f4iqmu4/o+v+lv83sFc/iIiIiIj0JECSBcEknJdCQpvVdwAO2N8scutoH4wlKQyj+Z13530HJavcgnVXgFhbzY5BN7hzULmvidg5GaS2Nnj1VeiDUPPJtjtbHTUe83fSVG3zPbY3CXEkjHfStLexS6BvX9tALUFYxoz+loz+1PjiHtY9WU5zUiozfzGBMe7BsqtOfX9nnbqtoIF6aySJx1rcBrqSCtUUj3jzO++EhhtXEsBcCdGphZoeVwp0ntuS2IfFSuU2WqwQljOemdd0TUz0xF5pw04okRlhvQ8eNDsVjx9wS+aY1y2vZdd93a3wsDB2Trzv+ysiIiIiMooERhlCN9sl+mY0O9zYl/NaG9l/747Bz8+NfW0DtadFE2IG5CE+xnRsqej9Qls/AkP30oa+viU3gkig+6u4kiyBuOvBcDJXh7Q1GdtomscSv5vH1HyvrRat1ey8p49JJUs8406vpMJ84m6UIHgtwTcD4+SJscRgNZMIoVgS/PU/vT5c2xKBJRUah20Jvdt2iDnjOX6FsS/m0GwzOVysFN3/Ze/DtF2iiIiIiBwhAiJZELYgmbS4NsrXBGADPtduAcU242l9bTU7lneGkm17bbR0PLFvIezcLE44LRbHl4Ws6ygFMHsuTOvLBY3dF2hrcQts+8aYSzcJjNwIInFirfZjV/5+lIE4a2xDVwZhfoee13dS88wu+rtBRkfTwS4N/swn9oSS8f0ZZHR5ZxxJk8tp9PvTZgfWWgf4XMZvJhKsNqwDShSYZQLpfRtb8fiXVACdzQ7Hc/yycN+NE01hKRGE4aDlcCDuLuHaCaKJ4oJAnJ+IiIiISN8FQLLA3C6xrJTSAW1tGEhcgX4TxR8MNPFhPAV3Vlb3v8zB1kpLfTCpucaODZ6NFMOJbLNS3k2Zx1BwlrXSQnRH4sTt6sZn6tie0ewh4KvhYEQ4kXFOrNuGLtgyklFOGtb66ofR57N0dO9v3rSXT737CrhKEDb5aH5o7lKQeKyFol1WwEr1/hYyZvsjgWAG9Dk+rm32EhjMdn/2Sht2S3+3i7RT8fheuCaXvPSeVjWYZQ7Wph56InR+TyO+UqFju8TedoIQEREREQl8fu9ZYGyX6LvOftQKsZA4w1WEEEr6jdOZNiO8x7cYgkn4Tg7Z49uoXD+ABoPWRg5tbiB4bBrTvxfbOZ3Z6cw4LRbH7soB7wTRF22bKig9FEzsielkdPRb8PWZnNS+XkltSDTjF6cQ7RpqiWHi9eNIsNVS/NpQJDWCSfjOZHOlx0G3nhf9ZSFz2RTycqBq9U6fOyG4dkGwVjq6vn1XAzXVEDUxtqMpYuP/KqmyRpLxLc++BxELJpB/scXrBGajREs84073fq3/fF/bQub3xpNMHcWD2O7PdtjoKWBJ6SEPOTmVY70bRJqBtnfTQwY4BvDZgHE4xZyeQrKlr/0dREREREQCm59XFri2S6ylcEiCQ3/p7AVQ+/d9HLhxKtkn5zHvZAAnDWv38Om+sZww30duJiKJKSvc9j2wVbNz+cAbMdrfLGRDmbFV4rwVrqPG1ox7h33lhoOSh7dj/U4e066ZQabrsK/PVFvNjntamXhrtseWjZ7lG2AkW6aSPd7tkNs2j44vvbaYDIkm0/3abU0UPb5rUEmSiAUppHpt8+fJLEGwNlHjc/m5j5UE7tsx/ngGeeZI42l412DTtuYgW4GZi3KZ17Elouf2fcZ2iZ6dMjpKIqx1ndsultey6x6buVVivMe1P7t/kE/id9VQvC+JvOkpjEnt5n7tKufLjROYuWKGRyNFnys23LgSMvW7m7qfo2t7xZxekgpDztwucd8hyvxeaiIiIiIiMnhBmZmZ7X67ekIS05anEbJ23yCe+o5WZhA8ppqdg96lQSSAmGUX+CrJGKjUBCYvGU+y1btXRGAwellEUO6WvBERERERGc38WIbQ+3aJIjIK7aqheJ+DqNlZTF4wFFschjHmgjSSLS0cfiXwEgXaLlFEREREjkR+LEMwtkAc9T0NRcSLnYrHC7EsyyVjURaZhwf3tD3m4iyzX0RhgD61t1J0/zaK/D0NEREREZEh5PcGhyJyJLJSdP9eDpc4IGEwqwuMXgDNmwrZtUbbEYqIiIiIjBT/9iwQERERERERkYCjlQUiIiIiIiIi4kHJAhERERERERHxoGSBiIiIiIiIiHhQskBEREREREREPChZICIiIiIiIiIelCwQEREREREREQ9KFoiIiIiIiIiIByULRERERERERMRDqL8nMKrF3cK0W84heudTfPrCC0Nyrni3Q46hOO8IO3l5Bc8vsHYeaEjg19+M489DcfL8Jjb+vopUwvhsZToXvjEUJ/Wv0IUNbFpWQ0J7BGvvHcu3PvD3jEar+Yy/4U7GJwd1HLFufZAvXl5Nux9ndVSblc/vl+Tg/OQjlj5Z4/ViMktWnMzcRKjy+bocufz/3S+6ZSWnNz3DL/68EfuIX32UmNXM2l9XkhEWRsFf0jj3n0G9v8cv2lj1RAlfm+CkaWsaZy8N55C/pyQicgQJgGRBHAnffIKpU5oo+vtVFBf6ez5+YCYKYsveZ+uf7qdpgKfpEqj70PRZOtN/FsLPfl/KdfkO8+ewrucYYJC/dsUYslYAtPHk04dZGN3TaKcxj7wIXr0jmZu29vNivs41DJ9pVAlt4b9vlJO9O5XsGyN9jwm288/nSjgx0fNwzbpxzLq7618J4ddVs/vCxs4DAZnY+JhDj3zV+Edizh3MvPzUI2DZVGdQ1UVzCa/c/ymvlvQ0rp71K//HnwqGfaKjx/hs7rxtJuMObuHXDxRRPGQnNr8D5x4evH0HXwzZefuox8SMt2i+8dNTOC8n3Ov3aOAmLJ7Dz85N5NBrH3HvG82DO9kwyb/iHs5tuI/fvWzMr66yADv5XHHPt4l4/W7+vHF40wY33FfMslkOH690E4x3BOsMURBsBtWJsfzxungeqBjUyYbNglsreeIcOzv9mKAwvqtw3r4xhR/u9ssUREQCRgAkCyRsTj7x2Cj/dOCJAnAP1KEzWPcVIDs7/lv0JCs/JMx8vY2rp/WcbPCrgmjmLOox+wCMrs/keC+WY9+LHdmLOsO45LJMj0NGQqCYzXd7JgzCr6tm9wVBPLsok9uhI9Fw8u1lPE+gJQyOTNbdfQxsq9wDVTMgvOnrTArIJ/dVPLr8Pzzq72kcjcaPYdq4dnZvPEjKnFTyj4/i1REN8P3z3Y9PSmTiSQ+wavI7vGkDOINbVp7L5FAoHB8Gw5wsAKAxvs+B+oIFzYy1xbN+TxMnTbRy2ZjwkQ3wN0dx8nmZvY/zuxCuv3q8vychInLEGv0P30a9OKIT46GtmpbKkbpmO5OSHTTtiaE8tolzv2Yezm9hZqKFfUWjMYcUoJ9p8qXcuXIVd1yS6p/r91Hr47F8UgMJk1u42P34Y0lknZNoJAoAnGF8+8+J1AbZmHdJix9mKn3TxL/u+5QNNZA8M5fF6f6ejwSKCbPHMM5ZTcGmWqpbIhg/LYVx/p7UCFj9h5u4/vpHWB+1kHMnh5J11rmkbn2Km6+/nvte9kyWLLplJat+eiFRfportHFxfgu2/Rb+VRiOI6aZMxaooEpEREae36LCkGNWMPOCWXQulI4j88q36Mxj2yh/YzH7NkHYwj8ze346DZ/cQ8HqjR7n6fJa3C1Mu+VMgj+5h12Oa5g9f0KX83mIXEz2kiWkdTzcdfi8jjHFrn0FjHd4SyftB0+RneE2JhD7D9RH8++CFr57ih3eCOPkrzcTXZDAzXW1PH9C5zBjGb/Dq0/AwEsIcr5dy+tX1tO5RsDB4geaWNzxs2dPgi7jbdHdX7OPnwlw64HQybuEgXQbbz1cRuaudM7b2uQ2j2AOvpHOKStDuv+gp13P/102A0v9Np5/s9zjpa5L+2N51j0odx93gZ21947l0GVFXJLre/zvVrm9BjCpnMLVbqevSuK2b8fwYvezNVSH9jrG8b8wapbR5X8Hwynma8+QP3sMHYtS6zay/eGfU982wBOapQrRbqtcu+tx0PdrB1rfhBbKa1ohJ5q0JMBtqfnsqxdw45yYzgNV3svnzZUJ8UU8uMrK+bfNJNf8y7rblQ7mUnjvaogq9x/MMoDcjr/4bez2uXTdWNY/s3ILv343lqVu5/Vd595DyUaXz9ZXbsv1XbyW7Xe5j+Rx65/yuh0PriX7aVh6HRPFlpWfUnme2xx6Kz858RSeOrHzx67fVTRzpybB4R1s/LyK0LNbyc1IZU56kc9ShB7n2uW7hEnnL+Sp8zt/9viu+vzdm7r8PnUd37f71H+rd+zja4vP4oFVk3ln6X28PNKVFbNszEoL4cDbYfxzVxS3LKwke66d8f/0XYrQpcShOIULr4riM1zL+pvd/rFXx4/+XsePOn6O8lxuf0E9O5bUuiVKonpcjt/l2j5WT9xwXzHL8qL543UWTv1TKbNc/2fuNs/+a+XVf7udCyh9bzwn3t/NM7DePleX1x2c/XARnZWx3ZSL5HyDn920kAnVH3HfL5/jaKykFZEjm9+SBW1fLGfzF9CXngX2jQXUzZ9AbPYCotnotlQ/neTsCWDbRolHcB9K7Im/YrZtG7t++UOqXdf42quAW8LAvVfAg0YJgJHE+BUnJHgG90ZSIpXyN85hvdf7PRbGu5IP4dvY9culVHeMu4q512ZR8Kf7aXLNZ3qc2xu9kiVtJSPQwyGYFz6N4rsXWfkhwcyb5mDnP8NgJhBuZ+ZMYFB9BHzb91wC059LoK8Jh67jezp7Hz9TfhMb72nj8UWZHSUaRlKkhO2/9UoYANHHl7AmP5pXl2Zy01Zz7NdK+AjfCYPTrv8/LpthgcP/5e7f/JNyr9dbH0si67EkwAz0c3r4SEE2Tr6jiPbdqWQtiuwoBfj2c2F8biYAbrs+k9ugbz0LfPj2PVWcmBDB2lW9vyf0dHuXgHD4uALwOkpePJ/CHa3G4ZP+wDHnL2LrQALxnDuYeV4khfee0xHwGwmBWzkGPIL7lMtfJy+3sQ/XvpK8O75FSuNGtv+mM5GQcvmzZE5b0/lev3MFwC2sX/kfs5+BEXTe+mB01wArOY9bf25j92vvcdUbzWYAdyw//n6DR8BuBM1Ot3PSEex5OHSAX998AOisc++JZdKx/GZSfcd5jffM4fYyt6DRFYQ27eHBa42kgCvIpa8lHD7v01ymbPuQq+7zvM4Fy04A8z5temINVz3ReQ9761lg3Kcwdr/2njl/4/u44O7TSevSXyKOk246A+vuLdxxbRHF5jUu+NE09t++gy/cl/P3tWfB+DFMGxdO85YGimliw5fVLPSRTOr8PWl3m6txnd9cnsnGB4oo9vFd9tizoB/fvft9+rF5vtlXL+DG8xfywFjvz9jbfTIsumUliyeHQuE7vLlrAfmFb2NbcBUPrbqKwneWeq4uWP0Hblq9iFtWLuasB+4l5alfDHtPA3cLFjQzNiyMgs+DYHcEm0uD+Vqyg1S8kwWugDmKt28c1xH4Lri1kpXLIjnl/mDWPJhC7oPQ554Fr8Qx7RXj3yZGIqC7WZrXbo/nj99xnc849qO/25ninWCIMZIUpe+NJ+v+4I6eDH9/YKD9GMJZfJH5LyYz0O+OK2FS+d54prmSCbOaWbusmeN/aCYrunzuvvUsOOmsE5kQDqTlMT8LCpUtEJEjzOgoQ6h/kpLt9QSnTCM+y+143KUkZjho2PyCEZS7s21j131msE49ta8/S2lDBEl5l7reTMLZJxNv28Yet6aCbV/cy4Ht9YRmzyGp4zq3kDd/Ao6dz3VdmeAlbP55pEWVUPSPpZ1zqv8Dez4+6Db/empfuoT1vzyH9b+8hC+31xvJgafPMY+dw/rfDGOiIN3BOPNh2L41FoqCmjj32hZmRkfz5mjdYaC/n6kgmjlevRzWrkjivVIIT3Fwqvd4r9UMxlgnaTNbvcZO5tI7V3LZDAuH/3s31/tIFAxEu3vw7wzjld3hBCU1cdFpAz/n71YVUbja+PPbua3sfalvPQh++40aEoB9m/uejBiwky5mXHIQNf+72jPgXn/LwJ/Y7/sNW1d6rgxofOMxDle1Y4nP7VxBwHwiE0Kgbjc1u3q5ds54LMFgLfqIBrfzVj57uR8TBZGkJoZDVTnrOgL4bObntLP7tY1ugWkVj/5jHzVRSeQf773w2utp7uZSdtdAcl4ax7iGzMrn8jkxVH3yxTA0U/Rs0nhwUwXFXkvnJ8wew7hIG7s/LuwIDA++uo+tNWBJiiZlQNdt4l/3rfEMfA8d4On3S7FGmcF1f43P5qszY6j6ZKPbeZv417M72dsSxyTvjqN4rwyoYsOeRkhOZV7+AK6P617Vs/sTI9g27qePa8/KZn5OuNdcgc0F3DGkjSF98HmfYNMTG3h9X6vPspq+3KdD1TXsf2cp19/3srkDwvv84aZHWF9RQ/UhX4mA1ebrcRx31UPc+8M5hPkYNfSMEoTQ4ige3Q0QwosFkTjGNbNkkufIBbfWMyM6jIK/JHsEtWseTOGU7p6wDxHj2lG8vdw98RDO4l+mcNjezPxrW/HuJODx5H+zkQSJnmjlsjHDOlWmp7USShRfvOx2TzZHcfIPB7qqodP6LXtpBCjdw8dKFIjIEWh0JAuop2HXPlpCxpA4dY55zAz22yqo+bJryYDjwEbPBELLBlrqITghy1gJELmAhAlxXcdRT1NNHURMImG2cSQkO40IbFTv6a2MwFjp4KzcQZ3X/2k4K6q85h8gSsL4X2E7x19URfRuy5GxU8AgP1NYop2pXsfsZVG86LHyIYjdVaGeYydfyp0rb+H0cc1se34Zv/nnUKQJDMMRmN92fSZZi4w/ufcnknxxEQeea/ToWeDt278q5ZJco6zh0SeGfEpdpOTmEVy3kZKPGnsfPBTi04npWCjyMS21bRA/h+k3/oq4HipO2HcIqxMsM2/lmAsXMZQ9vC2TjuU3f/o6T7n9WbU0s5c682i+8dMTmJtYz/pnO5+uzj4hlcTmago+83r6W9nku37d11gvE7KiiKQzAB1S7omOgBFBcnb/q9m9A/UOhxqosnolYACwcWhH5RAG5kYJgsX9nh6qYEdxa5drG78nJXz4/0a+MWa398lcCdE1WdO3+1Twt1907IQAEJ+STxgF/O0Xd/SwaqCAv/3iRh5ZX0HccVfx0GD7GMTU8aO/dyZpC1cXUfivOpa6B8uzbMxKc1K6I7IjkF2zJooyezPHXOh0G+hKKsRz54jvGuCd0HDjSgIkO/Ds1OMVrI+g7aXhOGjm7Icr+fOk3sf3y/o/sez667leJQgicoQaNZ3s2r54iNI5T5E961KSVm+k2hXs7/lXv57AByekEgE0hU/EEguhU67ipLuu8jHS1vmeMclEAvW9nTxyLpFxEBx7BjPvOsPHAEcA7ulsLtvPt7Lzo5F5bjL8+vaZut1qsqEfl3IrbTjtzLmMGzX/i/LkeC+WOZPs7L6wmiVXx/Cij0RA+HXV/HZuK7TH8lxf+h8Mmvlkfxh06UPgUuf5Y+Wz59HytWfInz2H6Xe8ZY7x1bPgafb8Zg8tN9zJ+Jm3cuLMW4Gh6VnQ590Qkr3q5as6l+UboslODoeodC64++tc4OtaA5hf6pgYLDh7HzhMDm6qoPiMNCbNz+KYN1xlCDnMTISqT0oHvo2hj5p8g83X6F4Z9ymGk276Oif5GlDl6+AQMksQqra435MmDlS1Qk4q8/J38EUBdPye+Envv09msqZg4I0EVv/hJlb3PqyrrDlcPuf1gZck9GE3BKMEIYr3PZ6Ch1LRCrOmtXA8rqfhbWQkObv8nTUy+nDtODtnjIHPAmCLxjUPppC73yhV6OxD0HMvBhERMYyi0KaEqgMHyc4wnvjX2eeRENuXp/0mM5B31pYb/9Rr3Y+1AaKLh7DxYMsGWuqX4Gx+3+xNEKCSHCTHBFNdYvxjpLMngKG0KIymBVYmZDIsPQuGRb8+k9n7IN/JwTcy3HoOuLab7MsFjd0XaI1hq3mPPlj1Ez5gMpfeeSOnf+t+7ki/e0hXFww35+4wus9gO8QAACAASURBVKv67GjI2E0jxtHE6EMQSs3/vsnO/7lWLJi9EXz8jdj4xnf5xCxlielIHDzG/vuuo8wjbvyYQ4981ay9Nc8381ZOjM9lw19XDX843WsjPzMwTKsaVPO3gJMSTVIkEOmeLLF51tr3l6u5XtUeHry58572pc9Cd8orGrHiZEuX3gQjw3hiDxavJoguk05MhAL/b7Fp3Cffz++NRIKNqgMj13HQ1eug9vOn+MWfNw5zwt98Yo/Tq7meKbqZJZOiAiDADeFwdTCzfOZyXYmEMN4PgERBB7eeBK4eB2c/XMKbvpoWiohIh1FShmCwf/y62XfgSmIn5xBe9jFlvfQQ6BA+EUusg6YDa4wg3ixL8OhN0A1nRRUthGBJcS8hMMsgPEY20VLno7fCkSjdzulZXfeBGB3MQL8hjqd72s2gJ2aPhKYuZQ67eOHXN/GPbVYyvnI3q+64hMDeNLHTJV9pIqE9grJdnsdDFzaw8cJGaI9g7b29Jwpyv3M3q1atYtWKH+K9AUX/fEztgUra4yeROHmonnS6+hAMrLSh8Y3vUrCpgnYSiMzpaU4fc+iRX3Ooqt2rtMG/yisasfrsTTDIc3ZZmh/NNxaNH5FGmK4l86/c/R+uutb15+2BJwpwlVZ49kEYrIOFzbTguzfB8HOVIOzhwWvd79N/uOratcYWmx2lCK7l/kP7e9JX3d8nc8XDiJWmLOKWlatYPLmRz5+6mduHPVFAZwnCe+M7SsQ6/jyaQDPupQjhvL07FHz0Mhh+IRRUBfu+9iwHY8LxKKMIOK/EMe3RBJqxk5w9yL1qcr7Bz/6wilWr7uLbR/q/+0TkqBQAyQJXP4J0xp10ac9DW9ZQe7Ce0CnfYur0CCo/7ePT+8jFZP/gHOJtX7rtmlBCxcbNtETMIO/aZfT0MLnti4coPRxK7KxLzcSCsZvB5LEV1HgsWa+n9u211IWkk3nZA70mIUaLtf+Johw7U04x/6lkbic4Labn9/XOKBdoimjizG/7oUAjtolzv2b+93Qbb/3rMAvT+vLGNp5cUca0sGjefc53mcMHq37C9f/YhjXjK9y94npOHfS96iNHJBv3QlBeHc/3o/mhq8SgZn2yR5PD0IUNbFpWQ0J7BGvv7UsDxBRyks3/NcVNZ+GFg/vXU+Mb71LVlkD6xSsZG+H2wkl/GFxvAI8ExJXk3fFzjy0PO48/5nld5pOQnUKQd9PDk/7A3O9d7/kXas5XSEwK6tL00J+Mxn8RTDp/DtcOsElet+ecn2UGm0Yn/YUR1RS3DM01ejXQpoM98uzhMPvqBfzSfRtBD66mehM472vdBNibD/DxvlaST5zD7d2NGShX40kfzf+AjhIEa3UTld3OvbMhYLe/J7Py+Y2PfhmuxpOdvwOD+Sy+79Psq+cauzMMYQKnW/lXcM/Di5kcWsg7S28fsZ0QXLsgVB3w8TfbK5HsaoK0aS0cbx565PkEDtubOXuFZ9+DBbdW8tEy77VMZqPEmDouvmrw65x8X7uVV++qJMMWz4tPBcA/LwFjF4gy3rzEMylww7xGorrpo/DIuhia8d2k0VvOcZMZGw6Qxqzzzzhi/t0nIuISEGUIbV8sZysrmHmBe/8AG+VvLPbafcAMxqefQ7xtN7U9rCrw7kXg2PkU673KDdq+WM7mXcZWh949Bpxl7qUEJZQ++yiRS5Yw+a63Os634S8tZC9ZQqzHFP/Ajl++QNoPnuoY28Fjh4ZA18aY3DYgBAqiufRpO69fWULhaoBgDr6Rwbeiqnn+ZM/3PPm0d8Bdy52ra7kTsBeN4aofWvjQ7dV9zyVwHridGyCMz1amc+Eb0LFdYr77KgYHix9oYjFAQwK/9trVoC+f6fvLx/LWw2Ucf1MRhTe5rjmexxaWcl1m13eGZVbwd7ciV3vRGL5zvudn6eKDVfyk9FLuvPF0Tjs3lQ/dShJ+t6qIS3LdBzdw+eoGLsdoHnjbIHoC3HZ9Jqwq4pI7iii8wzjmfs6OBID7m9pjeXZRZpdVA66dD1zbN7rO57L3xUzO8OhvUMk7r29h/pSTh2hFxdPs+c3T1F7+Onk/fYuJrsNFr7Hhr269AHLuYOblpxLt/m9st94BnSUHH3PokX8Qece3SL/4NYy4qpaSF89nz/H/Js+jdf7T7Hl+PDOXvcVE9/MWvda1rGD9LWxPfoY5d53vkcDwLHUIBMZ2exuuXsCNXWrnPXce6Nc5H95K8m0zO8oAqj75iOvfjufO29Jwz7W4tjR0D7gnnb+Qp84f+PU3PfEFG/JO9t0LoJvSDKNp5LGeB5tLOsozDr66kb+MWcCNczrHWXdv4Y5HY1m6JKObeazhYYzt/YzP43lOY4eF1WxYPIefuY8Buuw60W9VPLp8Law42aMfhavfRYi5Y0R3jQA3fVpOzZwct1KEbn5Pqvbw4O0++mccOsCvfwd3uv0OgPF74NrmsO/fvXGfDlzt417ePTLlM4vOOoExB99h6X0vM3IFD2YJQmMs76/xlQY1VhLMmuVWirA5ipPPy2DVEyX86O91/Mgc2bQ1jbOXdg2C1zyYwtVU8sQ5hyhc6DrqWbtvbBvo+f+3HSUR7j0XNkdx8nlp5laJnteeP6CtEN3Zyf/BQQp/4HnU+Fzmuc1SAve0W9RC1+cKo6CjvCCE669O5NV/e52v0X3LRy+vxDEN2LGklI/d/l1S4KNkYd+/XuDDyTexcEI4MYlpxMIo+TeeiEjfBGVmZg5yDdYIi7uFabecQ/TObnoN9Pa6SH+YqyjyqrsmOqQ7uXzn7p9wcmo9nz+5nD9/6u/5yJHLWMVwXk5L10SDe9+BHns5iIgM3EnX3s8Vx8ZQ+tF9/PI57YkgIkeWQFkn1keu7RJLKF6vRIBIIEo56zyOTYX6z19SokCGl7m83mcde2UT1SNVBiEiR6ecb7BgWgw07uCjt5QoEJEjT0CUIfRV2ML/Y+r0KBo++V2/tksUkeGXctbN/PTCKURTz+dPXq9EgQy/Qw1UWSE32X3rP8PscyaSG4nXVoEiIkPhJK69/wqOjYHGHS9x5x/fV/mBiByRRkGyIJ20HzxFdgYYfQzO8+pjICKBoPKdh7jtHX/PQo4uVTy6/H3Kf3oK5/nswfAfv2xTKCJHuvX8adl6f09CRGTYjb6eBSIiIiIiIiIyrEZZzwIRERERERERGW5KFoiIiIiIiIiIByULRERERERERMSDkgUiIiIiIiIi4kHJAhERERERERHxoGSBiIiIiIiIiHhQskBEREREREREPChZICIiIiIiIiIelCwQEREREREREQ9KFoiIiIiIiIiIByULRERERERERMSDkgUiIiIiIiIi4kHJAhERERERERHxoGSBiIiIiIiIiHhQskBEREREREREPChZICIiIiIiIiIelCwQEREREREREQ9KFoiIiIiIiIiIByULRERERERERMSDkgUiIiIiIiIi4kHJAhERERERERHxoGSBiIiIiIiIiHhQskBEREREREREPChZICIiIiIiIiIelCwQEREREREREQ9KFoiIiIiIiIiIh1B/T0B65nA4/D0FOYIEBQUREhLi72mIiIiIiEiAU7IgwFVXlpCV7O9ZyJGivCGE2MRx/p6GiIiIiIgEOCULAlxiFJw3td3f05AjxF836XdJRERERER6p54FIiIiIiIiIuJByQIRERERERER8aBkgYiIiIiIiIh4ULLgaBXzNMvfb+f+p/7Y77dalu/mgffbeeDdAi4chqmNfglc9kw7Dwzw/oqIiIiIiPjb6GpwGHcL0245h+idT/HpCy/4ezY9SCftB0+RnbKNXfctpXrQ50vgsmdqOCHDx0vtFexakcrj77gdi3ma5a9dQUrHgTbKXgnldysHPRH/MT9TUuHDLLvqR70Mdrtfzu18fGY+Lw/y8pblu/nV2RNH/30UERERERHpg9GVLDjKtde+wz8uOptNPYwJu+BD7rppPm2bvsvS2/4OmIHuBU7unnAFd5vHBsO6YhJLVwz6NMMn5iGyM9oo37yO2FnzyLsJGNEAv5Z/fDeIf4zkJUVERERERIaQyhCOJBE3cM1VpxBR+IhHUsC64hhe3lpLzPG/55qz/Di/EWK58WRSnDvZfdc+mghhzHEqBRAREREREemPAFhZEEfCN59g6vS4jiPOsvcp+NP9NAEdS/rdl+BPuYqT7rqqx/GZoe9T8PROxixZQlqsOdDmXhZgXndKE0V/v4riQtfZeioh6HmuYQv/zOz5E9zGz2DyXW91/thW4nWtoWW59RYmxrZR9p73Mn0rG9YUcM7M+Yw7+zvwjufqAmM1wilYjEl2WWpvLMHP63K97lY6eJ4P36USLj2WTPgov8i6kQfev7GHOSSwOD8P58GHebnx51x2+ApSJpzBheCzFKHHuXaZG4y9oJ0HLugYTOMmt9UaETdwwz8fZmJsN6/3dm0f994YM4/6V2JZm3uYC2cmdp2nuyOxBEVEREREREacn5MFZmCeVkLR05d0BNFhCx9j8qI5FKzeCJRQ+pdzKIV+9SwIHnsGM5edRsMnP2f96o0d7827dplbYqEfIheTvWQJaVHdz9X+3g9Z/57b5xqyngV9YeH49GRor6ZuR9dX7e/uo+mmU0hKORFwBa/ttCRdzm9vLOHjM4J4GQvzHzrMhRc4uI3OALNL2YEZFGf7msXy3fzq7FwaO8ogzHP+zMFt03wnIZyFD7PU1Ycg4gZu+EcBF67M52X35fx97VkQ8xDZGe00b/oEqOXVgj2cMG4MY84CPAJrc14zE9zmal7nb28z+52z2dR4JSvOuNJtrr30LLA9wiOLHwE6y0F8c107jrJXgvj5SrdjPstFQhh7QTMX1L7D82eczSZXEuWnBVz4Tmc/BlfyIaLb+ykiIiIiItI3/i1DiJxLZBw4K3dQ5/a03f7edWaiYDBslL9xXud56l+g5jAEJ6QSMYCzhc0/j7RYG+Vvea4MGJq5DoUIJiQlQnsFFb6e4Ns30NAAQfFTmN1xMIio6BK3BoBWPl72c/Y3DHDpfsQNfH9eHk6PMohuzmmOba99hxfcg3/bIzxy4cADW8uNJ5PSXknx28b1rQ+vpTIoxVhR4S7mMU6dmeg1V6DxSlb00hdi0GIe49SZCTRu+p5b4sHKxzfn8OnhIGKO+1mXXSY8V1AYSRCCpxj9GEyhU9Ow0EbF50N3P0VERERE5Ojk32RBywZa6o1VAPnXLiN6KM9t202tR8RnrFBYP6An/ekkZ0/AWfYxZcMaRfYsKOEsvvW+sSWf68/v/v22W/Dff86D73sGkrZnqar3Tir0TdhXLyMt1itYdTtnsFkO4D62/L9DGZgbJQjtdZvZ5EqYNN7MgcNBROde4fF5jKRCBXue621nhaHnndDoZCYBgsyVEB3aadr7t17vk+PLUqyEMPYCB7fd1MtgERERERGRHvi5DKGE0r9cQss3n2Dq9DOYedcZgHcPggBgroCg2b/T6Hk3BBsHq2u6WXIPhM0lNhbaC3f2KTgPissgE/oVyBtPtkOweNT1u3F6j4X6fpy/V2YJQtMm98DadV9mMfsszCSCWbKBYyiv3kd9uHZQEvHT6Pod9sL+yqn8/F2jXKOzt4J6FoiIiIiISP8FQIPDempfuoT1QGcDwTOY+dPUEaz3PxJY+aykigtnTvQZaIadmUM07TRXftLzaSIuJzkO2usPU9TPGTi+LMV69kTq/RScWm48mRSCYPYzPPD+M16vtvts7jjyzO9pRryP13ruO9Enbn0WXH0exg7htpkiIiIiInJ0CLCtE+upfelqvtxeD6HJRGb5YQpxl5KY4XWsZQ21B+sJTplGvD/m1EfWh9dS6XOrQAtzF+Rjce5gS28BY9hcYmP7tuzdm/3dvm9V2P1cB8osQah9h+fPCGKp+5+v3sj+BvdSBGN3CKuvXgYjwPFlaTfXNvpOeJRRDEbjlaw4/29UEkRUyolDcEIRERERETla+DdZEHcL0376AEnuxyIXkDAhrkvTQ6CjSWFo3jmMG3TQXk/Drn20hIwhceqczvnccg5dn/nWU/v2WupC0sm8zHO+YQsfI3/RHK/xJVQdOAgRU0nv8towaryOD7fWEJx1A3f/rjMQtSz/wui8/1ovje4ibuCGZ68gpS9JhX5cv19jI27ghpcLujT4M3oPQHDmpVxzlveLmCUI0F7no8zC9iSbD9QQFG+UIgDYX/k6BYeDiJn9V8/6/pinWe6jD4QruZH6lcH1iOj+2hbmP7SPEzIG2sfBwvyHqrrcd2O1hY8+EiIiIiIiIj0IyszMbPfnBEKOWcHMC2YR6XbM0ePWiOa2hG5P/z17HPRv28KwhX9m9vwJ5k82yt/4LtUTn2BqbpGP93e9dk9z9Tw30FZC0d89d1Pojb3+IN8+Lp7LnqlhdnRPPQvcrmtuoWdxHWivYNeKVB73eFptbr/ntYrC2dvWhNC5dWKb7/l0ub4xCRo3dV0K37e5dj9nVx+H7b1sbejayrDNaw6u7Rs7b8B2t90hvJjL+lO6+Uy+P7eLd+8A1/aJiT1eu+d5e39eH9+p1/3866YQohO8l86IiIiIiIh48nuyQHpmJAsC7CvqJVkggUvJAhERERER6YsA61kgo4JrZwVfS/5FRERERERk1FOyQHrWpYdAApc9egUp7RXseU518CIiIiIiIkeiANg6UQKa7REe+e5clr/fzgOuY87tfLywl2aJIiIiIiIiMmopWSC9a7ySFWdc6e9ZiIiIiIiIyAhRGYKIiIiIiIiIeFCyQEREREREREQ8qAwhwDU7QvnrJqe/pyFHiODQCH9PQURERERERgElCwJcfFK6v6cgIiIiIiIiRxmVIYiIiIiIiIiIByULRERERERERMRD4JQhBCUw70f3cPPCqYyJDaOt5H3uuvzXrPf3vERERERERESOMgGSLAhiwvX3c9cFeaj9moiIiIiIiIh/BUayIGgil83JJYJ2mve8yf13PswH5TZ/z0pERERERETkqBQYyYK440hPCIL2Bna8+X98UO7vCYmIiIiIiIgcvQKrwWFbI3Wl/p6EiIiIiIiIyNEtsJIFIiIiIiIiIuJ3gZEsCAolOMjfkxARERERERERCIRkQVACp1x3DlNigbZ6yvf7e0IiIiIiIiIiRze/NjjMuO1pnvnqBADa7bXsfu95ni7z54xERERERERExP8rC0xBQSGE+HsSIiIiIiIiIuLfZMHh313JGQsv4q63C7GFxpJz5uVcNdafMxIRERERERER/68saK/lo8feYmcDEBxDykR/T0hERERERETk6Ob/ZAFAuwNnu78nISIiIiIiIiIQKMkCEREREREREQkYgZUsCA7HEu/vSYiIiIiIiIgc3QIjWWDdT10zEJzEjAtv4aQ4f09IRERERERE5OgVGMmC1m288nkRdoKInXw+977yPm8/eycn+XteIiIiIiIiIkehwEgW0MqWB37CA2/toLzBjnodioiIiIiIiPhPUGZmpmJzEREREREREekQICsLRERERERERCRQKFkgIiIiIiIiIh6ULBARERERERERD0oWiIiIiIiIiIgHJQtERERERERExEPAJAtyc3M5/fTT/T0NERERERERkaNewCQLMjIySElJ8fc0ROQoFHfpJGZfHU/4YE6SP5ZZS8cQPVSTEhERERHxo1B/T2A0C507jmMuSqDlw71sf8Pm+/Vz2tn/yxJqejxTCElX5DKxvZhNzzQO13SPDKnJ5P84nTi3Q60FB3TfRqVwxi7JJScrhNY9B9n6RB2tfphF3KWTyD8umMo3mwZ1/bgZcVhSIjhmKXzxQAVNQzbDfs7j0klMii3v1/007oGTg4/v5dC+YZ2eiIiIiIwSShYMWAhxU2OIaK5hv3uiIDWZaZdB4coqWoG22lZsQMR52cxIrPQIaiPOyyK3vZTtbzgAJ9ZqOxDGuJtziPx4J/s+7eeUXIG0vZEDTxygpNA8HhNLzs1ZjI11UtdNYmNUMD9fdHEJW1ZW0TzI80T6SDJ4J4Aizsvm+FMiKHvJ+/swEjxTJrV23GtjbIzvazZX8aWZNDKukUSE15C24hK2DeZz9VtnsE5zLbsfOURl1eDOGHlmJjPPtFD75l52f+AYmmkOp/yx5BwXQeOGPYOeb/0Lu/m8KpOZZ44l56IGtv67ZYgm2bvIMzPJiStnu3nN1mobrYQzdkkmcQUHevlsUSTmRNC65yDlShSIiIiIiEnJgoFKTSB9eih1H1Z7rBoIzY7AMi6JY38Vy8GPW4Fg4q6YzMTp4bQVNxBFoxkMhhCdFEH89EnMzS2jqBYIjybnjnFGUD82AhhgUB8WReKMCEoKjfeHTo8lIXYwHzYwRMyNJQ47ZWtHMqDuO9vrB1j3OvhKJHTllbgxEzrHrkjxkZgYJunRJKQ5qfysjujjY0nMD6VyRAP8Vsoe3UHZCF7RUxRZ54/BUlnGF0MU2Le8W0rRpGhy5mYwfvPIPaUPT44g/rg85uWUsfcgQCRZPxvPuHhoLAsFuv9eI89MITXeSskL/lnZISIiIiKBKWCSBR988IG/p9AvEXNjibM3c2CbZ0Dv2FDMZxuKjafMX0kCYGJCFV8u9y5FaKP6b7tYRxjjbp7CxOkA47AUHGDdAJfUh2ZHEGFvpqo0lITcGKKw0WyugAjaX0f9xNGcMQghOikc7DasFf6eyzBobGDfQ4VwcxZjz02n5tPeSld8SE9kynWpON/r21P9yPxY4tqa2L/VSnB+EnGTown/4OgJGI0g2U7lmzVDWDLQStkrpSRcl8HYM+Ip3zcy97P+hd2se8FYKZJ7XAgwnvA9B9n0296uH078pGhCKyup0aoCEREREXETMMmCUSUmloxjY2jd1d1TY39y0rC2irCLYonPqqK5KoqE9FaKX6vFkhJLpMdY8wn4dLe2bt4lDJjL60+EA08cJuiCKWSlmy+4La0fGB/XH/Q5R7HGZmoPtjJ2ehyJJ5RQ09/VBSVN1JYGk3PuVOIm99YDwAgSncXF1O+wElLaRtK4WOKS63yXIuSPZdZ3x2DpOGDtrG9PT2TKdRkkudVVpJw7lZRz3T7ahj1uy/KjyPpZDuPiu3u9t2vbqfQuc8gfy6zvJtD05l7K0ieSf5xrMtZu6vCjGDsnjtDKMop7SawYpRVxnX9Z9layUdJEbW/3M1DkJ5Ke5RzihImIiIiIHAmULBgAY1m/nZodXVcAdNSj2xs5+N9qkifbKatNZOqKZK+a9M5Aua24jP3b40lqqKZlejbzVgyyt0B1PTWVY0mcEUFFRSyx1gZKD4KFYCxJYRjlDSEkXTGRtKpC1i33XAqffXU2eC+fD4she8kUWgsOsO6hxo6xU+9iYMG9q49CiNuqC9c5fxVhJix8JBMIJ3vJDLJdP/pIboxebTRVtwJRRA6oDMVY1l93ZiYzz5zA7KXh3TfaS48mIS2E1i02WmmlbncTjqwIIuMBr+DWaH5n1PWvcwX06YlM+eYYov9YQVNJDTt/YfwG9K1nQTOFv91GIXQkArrT2XzwSzab54u7dBL5504lMsU7wRBmJCkqy/hieQVNrp4M3xlPi3dwnx5BZCQ07mzoMUh2v37H58kfS/6F8dR3m4xx3c/oESvtcH1HVJax9/MExtorqJ8ygdkrJvSYiImbEYeluYlDBaOgv4SIiIiIjKiA2Tpx9AgjdV4SocWVlPp48us4YMNaXMKWnx+gtBrASf3fdvHZR4201djcau3baKq2UffhbjasrDaCjtYm9v1mJ4UlbbSU9T9REJIabjbNs1O1t5mY3DhSpkZh39voo8a/jeq/7fFMSDQ2UPRONbawCCw+4jePXQdcY6PiSDyh31Ml4ivJjI1s5MDTbomGxgb2/bmE+rAYxp0WQ0epxvJtrFu+g53bW43kwKPbzGPbWPfzIyVRYGgrb8XWkdQZmJZ3i9j4TAXWlLEcsyKX8Tldx0TmxxIXYaVmsxFEthQ0UG+zkDjLc+0J6YmkTzea3+10DzhLatj5x2Hu+G9eu3FDoUfiof6FQvYVthEzI4WUZK/3VJa5JUjMoD3KCNo9JIVjibDTUtlTkByOJSkUmpuocQ+mC8oo6GWngZYSG3bCiEwZmXxsa5WNug17WPdABeY3SuFvd7GvsKX7z+i6v9sqA3v1g4iIiIj4RcAkC/Lz8znnnHP8PY1ehc4dQ1q6k0afAThQXsUOt472IQlGAG97vWvnfdvrhW7BuitAtFP80OAb3Nk2NNA0biwTJzmo2dbfxEOI+WTbXdeVFI4DNmw+x/YmjOTcGNoqGqjzDvTL66kpgZDECKL6eVZxU1DG5uX7KK6zMOGaKUw6zT1oddWp13fWqZtL52NyYol2G+lKKpS9P/K9DLwTGp1cSQBzJYSbxn09rxToOHd6BL2nY1qxVjsgKoFJN4zvmpjoSXUrVhuEJ0UQ3vvoQWt5t6hjJwRwXbeVske73+Uh7rQUknzeXxERERGRACpDSE5OJjo6uveBftXNdondMJod9uW8xhP06kHPz015PTUl6US3mwG5rx39OrZU9H7BSd/DB/fShj6KiSQyBmjofogryRKIux4MJ2N1iJO6anvHsdCTxnHMBd5bLdopfXEn+zf15axhpMxNpPgD84m7WYLQuMU9sDYD46w4EnMqaDKTCOHJEYTiHPTnGojerx2KZXwo7Bu+JfSd2yEmMOm2BCbBkG0zOVzqX9hN778W2i5RRERERHoWMMmCUSE1gfTp4bQWNARgAz7XbgENtBSCsUJhG8WulxtbaGl0PbFvpDk1mfwfpxPX7LlTg9FzIaFPVwzNjiACJ1a3wLZPzLn4ZCYS2mpbB7px5BDoRxmI3Wbe76Fgfode13esL+az9cXdv82XjqaDXRv8GU/sIXRuHvPmdn1r4qxIDu3z/9Pm1iobjm6e/xuJBAfWQwNLFBhlApbeB2KWdbxr/HejJ0MCk26LINJn40RTKqBSaAAAIABJREFUUjiWCGittgXk7hKunSBqP24KyPmJiIiIiP8pWdAPxnaJjRz4YGBbGwYSV6Bft6l6wImPkNRwIuzNlPS7zMFJS00rIZPMHRvcg+2ocCyxTho3d1PmMRSaW7E2QLQrceL2kvGZOrdnNHoI+Go4GExkYvjQJjXMZFRbcYnPfhh91dG9v7KML37h3VfAVYJQ5qP5oblLQU4s0bTQBNRvq8d63Bi/JBCMgD7Ox7XNXgKD2e6vuhWrLazf20W2vFvEVowmjj2tajDKHOw09dAToeN7GvGVCp3bJfa2E4SIiIiIHL0CpmdBa2sr7e3t/p5G98ztEn3W2Y9awcTkxnT0Bog4L5s5F3kvd/ctdO448k+JoXVX5QAaDLZR/VYV9WExZF+ZTqLrcEwsOT9MJ665hpKB7gTRF40NHN7SSMi4sWR/rfPT+vpMjg0VlJYEE39SOulZrpHGThJZ6XYq11YNSVIjdO44jjdXeuxeOfBzxl06iePOjMO55yCbfO2E4NoFobaVrutBmqnZZ4OUOBJdTRELaigpbCNmbpZn34P0RKb8aAzehUNGo0Sj7GHQRUXdXDvu0ixyspxUbhjEdn8lNlpaIDwhvIfeBVFk/cy7QaQZaHs3PWSAYwB8NWAcTvmJpGeF9Lm/g4iIiIgcnQJmZcH69ev9PYUeubZLrFw9NMGhv3T0AthQTEFqOMefks6xK9IBaCsuYcvvG5j447E+3hnG2G/OYOw3XT/bKXtp28AbMZZXUfDrVmOrxBWdneNaCw6w7pnhX7lhe/0AG8vHccxFk5h3quuor89kp/ihHbRckcsU9y0bvco3wEi2HH+Ke3MIt20em6u8tpgMJv5U92s7qftwN58NJkmSnkj6dK9t/rwYJQh2anf5Xn7edSWB23aM505l3rnmQPNpeJdgs6SGnY/BlOsyOGZF5++Rx/Z95naJHkUAHSURdio7tl00rm01t0pMcb/27wb7JL6Zso31pJ6ZxLjTarq5X80U/rWaKdfNYJ57Bq2yjC9+2cNOEK6EzMEG6rudo2t7xbhekgpDz9gusZbd//N/qYmIiIiIBK6gzMzMAH6cHyjCGHfzFMa3l7BtEE99RysjCI6g7KXB79IgEjjMsgu7r5KMgQpn7JJccrJau/SKCAhmL4vwLW7JGxERERERHwKmDCGQ9bpdooiMQsbqAkfKWKZeHT8kWxxGnplGZlYIjRsOB16iAG2XKCIiIiJ9FzBlCIHM2AKxn93oRSTgtbxbxM7kSeQfN4EpF9kG97Q9fyxTzX4ROwP0qX39C7tZ94K/ZyEiIiIio0HArCw4/vjjOf/88/09DRE5ytS/sJuCz5toI3RQqwviZsRhqSzjyyf6vruCiIiIiEigCpieBaeddhpjxozhX//6l7+nIiIiIiIiInJUC5iVBSIiIiIiIiISGJQsEBEREREREREPoVFRUf6eAwAtLS04HA4CZT4i51x8FZaYRH9P46gUHhZKckIMVbWNtNodPY49uHsrn370zgjNTERERETk6BCamZnp7zkAUF9fT319PYEyH5Gsycfyl1c3+HsaR6UT88fz3fOP59aH/h/7S2q6HZcQF8XZs+ZSXrRzBGcnIiIiInLk09aJIt1odzqpqmvy9zSOSg1NNgBqG636DkRERERE/CC0rq7O33MQCUhOZxttbW3+nsZRyel0mv/Z83fQ5mzD4bCjv8dERERERIZWaElJib/nIBKQHI427Ha7v6dxVGprM/oUOByOHr8Dh91BS4sN/T0mIiIiIjK0AmY3hJNOOomLLrrI39M4cqS08sZLRRSuPsS6nwTy0/F2fvy7EgpXF7H3L80s9Pd0AlY7l13h4KXbHfztCieB3Nkj89Q2/na7g5d+0sZlY/w9GxERERERGYiASRaEh4cTFBTk72l069illRSuLvLxp5tgvCNYH6og2AyqX6/kseMGfbJhM+7iOrb7OUFhfFfF/GeIc08nLG7jpdsdvHR7G7fmDcEJ85w8druDxxa3D8HJhks7t97g4KUbnJzgrymMivskIiIiInJkUYPD/rBH8f9+nsJ1n/c+dNwCKxMjo1j/GZw0s5mLj4vivT68b8hUhvO1bwby82eXIH5/Wzq/9/c0etXOqePbqdwbTNV4J1Py22HPSCa3gvjH30L5xwhecaCKPgzhig/9PQsRERERERmMgFlZcGRp57K5zUSURfGvz8JoCmvh2DMCuRRAepXXzpT4IHZuCqKyBVLGt/vvSbuIiIiIiMgwC5iVBVVVVURFRfl7GkMjxc7CiW2Ur4vgn2tCufLSOqZOt7GQKN7zMfzYpZW8dlZz54HmBB64MI4/Yizrf/fqOqI7XrTz1RVFFHb8HMoXfxrH1/9t/pjbzPpVlaR393pv1/axeuLYpZW89hX4fz9PIvhHh1iU0XWe/efk8SfdzgVYt6QxdVm47+G9fa4ur8Mx1xZReK3rp2CK305n3v+FDGi2J+S3k1IXxBN7giA/iPn57ZyaB5/u8TE4z8ljlzhJ6TgQ9P/Zu+8wK8qzj+Pf7b0XWMqywNIRBRvFigUTY2woUYlJXhJIUCMaCxIjaFQQrK9Kor6oMWoUJbFEI/ZGiaIo0lkWlrZs7729f8yc3Tlt95xt5wC/z3VxXew5c2aemTllnnue+35YszKIR7LAGNbfxJQ4y/Jjmnh9TNuf1QcCufOFQPbhevnCLUH89k03oxpSmrnv2mZGhLWzvNm+oi+C+FdiM/PH2Ib3W9vpvZMubrKsCygLZMmTgWxwuXQLP7u2iekD2h5x3G+AZbOaaKgzZkZwdZweestxvZFM/u1dzBwXxrbXb+Lxjzu3LyIiIiIixzq/CRZs2bKFLVu2+LoZ3aLf2TUMjglk954gKAzkoz0hjM1sZDQ4BAtsHeZgNj2V3trx7XdFGW8trefx20I59Foco1+Lw6hZcJgbR4W0nwqxO5KJ04z0AyMQUO9mQXPbqZH8Z366uT7jsR8tOcTbjgGGkGp+tKSamu/7Muh/Qo2aDH89zLwVwWyd5ToI0r5AZv+PmSZhdvTj3SxpC5gEft+XQbZgQnI97zxSzg3/NIMVLva7vSCJd4wUhOqKAPKBfVsCKBzTTHKacyqCrcNcuCWI6bYOekoz913SzElZgWwggEeeDOYRaO20017n39XybqSf3sS9p7dQbdm28VgTL8RZO+KGEac3Mb8skCX3B7HB1nm/uIncF4J4pcD7o7ThzSCmv2kcr5uua2KK2yXN58MDeP2Ztm2ddHETc05v4Y9fBABG+29dEcTO0EC3xynZ8U2T+GPOHBcLwJAxU+FjRQtERERERDpDaQjdzkhBiKqO5v1/AgTwyleRVEVWcr5Dwb1+V1RwWv9ADr3fx65Te+i1OE5yd4e9mxjbDmbTs9bAQyCzb+vL5opGRl/oXJTR7s5/YQgf7QkhuE81V/RwwcWUQQ1EEcyu9ZZjUhjKhT/v7KgGL2W2MCIO9u8JMDrbWQHsKIOBg1vsZyVIaebSzBaqDwRyv7VTWxDIH59xd4e9u7Rw+bgWcNj2vi+C+N8tAUQOaOFyx6KMdnf+A1i7J4DqsBaOG9nDhQRTWkgOh+qCANZaghIb3gwyAwVdUPwxu/YD1JG9RYECEREREZHOUrDAGyHVRgqAdTYEx9kJkhs4Z3ADNbvCWzuyhz6JYE9FI8MmWu/y24IKsbzcyaHxnecY0LCwBQESjZEQbRw6672oICeEKhoZN6f7ZzjwxEljWkiuC+CH7baObABfHAggMqWFyZapAdNHtjAwLICNa+3v4PcKx4CGxYYtARTSYoyEsCg8ENDDAQw3Coy6D5EDmrm326eBLOb1xXOZO1cpCCIiIiIiXeE3aQhHBA9mQzBSEBzvggdzsBzGDqvlBkLNIEILI5MaerjB7niw7ZB6xowHenMGBzcOvRbH6G9DWL+80FKHoP1aDN3HTEEoCLS7C55fTOtd+FcKjCBCaiL4qupGeloLkUBRO8skJfZWazoSwCNPBpF7bRPTBzTz8AIjtcK+ZoGIiIiIiPiS3wQLzjjjDFJSUli1apWvm9IF5h17Gh2K69lUcv5lsTze4x3cjgSwvSiEaQmunjMDCQ1RbPGDQEErS00CW42DcXMOsG5w54sWesS8Yx8Z19aptRo4uIX0L5zv5ve2fbkBVOM6fcAWSNhf3Lttap91KkhbscNmHr4OljypAU8iIiIiIr6mq/LuZEtB+L4vg6al2/+bm0wu1lSEQJ7cGgkuahn0vAA+ygtxve3kRvrHYpdG4Xd2RzJxbjK5NJPQp2enpLSlILz+TDDT77f+C+L1A9ilItiG+48Y08M5/66UQVGdizoKmCMe7NIo/E0Ar7xgHE/CW8hM6fAF7Yhk8m+XsHz5ch65YWo3tU9ERERE5NijYEE3ss2CUJLn4k737nA2HYSIYbXcYD70/fOxbK5oZNz/2Nc96HdFGRuWOs5iYBZKDKnmrKvczXDgOdfbbubppYcZGx7Jp//wTX0CZy3cvCyPdX+wDwocf2k1aW7qKHz/r0hycV2k0TulnD6gBWoDyHKaHcBFQcCsAD49AMljmrjvdEvAIKWZ+37TzEmOqzALJSZnNvOzLnWQgYJA/pUVQOSAZhZc3Lbt9NOb+P2YFgqzAjs1w0GPyGzmr9c5HI+UFo5LcS56CHh3nCJPYFyGMRtC2LDTuHpkN7ZbREREROQY4jdpCEc+MwWhIZzPP3Y1LN4YSTDtPEsqQmEoF04faEyJuGQfOeaSjQeSmT3LuRN86LU4zgU+/PVhclbbHrXP3TemDay2e11rSoS15kJhKBdOH2BOlWi/7f/5SWemQrRqpt/5B8k53/5RY7/MdZupBGnWBY637Vcgh963pRcE8PCtKYx89oBln819md/Pdf0Ic+TB+uWFPNv6Gus6PRSez4g4KNziuhDgvu0B7D+lxZKKYAytX2tOV/j66eaCdQG8/kKQi3UYuftc18T03zQy3XzULnffnC4x2fqyMU28Psb4744v2mYQ2PBmEDcXm9se07aNNSuDeSTL8912Ka6Z+U5pGAGsWRlkrtucDjHO+nzba+z2KSuQ+9OauHdBo12Nh8ItQVxrzuQwxGE77o7TQ285NKl6LS+8NY67Zo4jNjiBpH7A9s7vtoiIiIjIsSogPT3dB2OmnQ0dOpQBAwbw2Wef+bopIgDM/dP/8sALn/i6GceksyYMYdkNF3LNwn+wc1+h2+WS46O5dNIAXvnr4rYHE6dzx71TGVi3jddvehxNiiAiIiIi4j2/GVmwe/dudu/e7etmiMgRLZLJV57EQBo5/PUHChSIiIiIiHSS3wQLRES6InH6Hdw7dSA0HubL/53Py0o/EBERERHpNAULROSoUPz6Yua+7utWiIiIiIgcHYJDQkJ83QYAIiIiiIiIoLjYryaDl2NYQAAEBPjrdINHOfO4BxDQ7jkICAggMDAAf/keExERERE5WgQPHTrU120AICMjg6ioKLZs2eLrpogAEBISSlhYmK+bcUwKCTY6/yGh7Z+D0NBQIiOj8JfvMRERERGRo0WgrxsgIuJo6958Fr/wGSUVNb5uioiIiIjIMSm4oaHB120AoKXFmMHRX9ojEh4Wyk9OG+3rZhzTJh2X0e7zEeFhtLTU6XtDRERERKSbBfvLdIX9+/cnOjpa0yeK3/jHUw8QHBLq62ZIByrKSsjPPeDrZoiIiIiIHFX8ZjaE7OxsKisrfd0MkVY5u3f4ugkiIiIiIiI+EZCent7i60aIiIiIiIiIiP9QgUMRERERERERsaNggYiIiIiIiIjY8ZuaBUlJScTHx/tngcOo6Qye82uSK95nyzMPU93rDRhC2uzlDOrb9kj9tqf49rV/dX6VGUNYePMYUvZs5J5HDpDf9UZKV3XpnEQzY8FpXJCcz+v3f8s7hZ69asjlE7nt/BTCqg569TrpbcNIvXYpQzIi2h6q2UnWs7+nsKhr62nIXskPLz5Lfbe1VURERESOBn4TLBgzZgwpKSn+GSzwuWxyn76AXIDkPzB67nmE9+LWJ805h9kTIp0ez1/zGbe/UN6LLTnGmMGDjLB2lvGjTn5r4MHFc3qvdIWtg1/Nwb9fyv49XVnXLvJfuNQIRKXMZvivLiOmexopIiIiIkcZvwkWiL8r48tln7Miy/jL6BieyXPDdrH4T9vZ6dvGHZ32ZnP377Nb/zSOeQx7/vkFD6yu7ZZNZK9az29XdcuqTPbvE+kGKWcT3zeChuy3yetSoEBERERExHOqWSCdkr1qPX/7thpSB3LptN4c5yByjInrR0Q41JduVaqAiIiIiPQajSzwlpkGEAtAA2Vr72LbhxsdFnKuMdCU66begd362ltnDzrlOB6blWG2oZbtHt65ziusoo4UEvuEAsbyk+acw+wRJbx+/06iZ5/GBYNCzKVd3XE28+xblwHy3Y9UcBrm7mYIvlPahNt1pnD9somcGGtZ1M1weU+37Wqfqra7qUHgJs2gymnr3rLfL1fb9/wYOa8PuphWYO535IbPuH37IMt7z82xsnt/utq+0b6BP3zGGxEnG/uVv4vFK+q5yjy+zu3t5n3yA2GnPcnYqUNpe+fVUPThzexa24XhCGaqQmJrPND9Op22325NhdHMXDSXyan7+fD2B/hnReebKCIiIiI9w2+CBVu2bCE+Pt7XzWhfxMmMmF3F4WcvYOsBCDtvBeMn38MoLJ17s/Mflfs+m+4xgwPJf2D03PMZd2sfti+7nVJzdWHnrWD8pFTK1t7BevP1xjoXMyGhiwUMPdVnGPf8rIy3//g27xSancjLTud2ujDUPao/0+/rT9X2jdw+5wD5ZsfstLkTOGzrYNs6ymW7WDzH7KSaj93xcKRDR9zWAW9i+z8/aGvXKcex+OcD+Lq1c2lbrpovl71tBiaMbTut07r9W22d5GhmLBjHrMy1dkENo2Md2MG227Z1YtBBXv+jdT/H88Cfo+06420pBR/wK9s6bQUOO3fUTXGcc1cSee+Y6z3lOB6bNZ4/XFtu1xFe99RHrLO22d3qvDhO3kqdcibPTSlrPVfGMXFo6ynH8dhFDTw55+3WYzdpzjnMnnImD2DfuU+dcibXbN/I7SsS+OOsgfz2t43kvfMBT2dMYfYJmVz4rov3nm2fTjmOx2adyRNJflLwM3MRx189kQjrYxMWMXFC259V3y7ih3+vB4yO+siMb/jhnuvM0QdmnYNzHwY6GTAw2xCcvZJvWwsgnsnA2TeRvMM+CBDz038w5oRwij78nbktY/uZ171ExN+vca6zcN55nJwaCAxi2HkxKFogIiIi4n/8JlhQVFREUZFXZb17XVB0FQde+DW5B4y/6z64j5zByxkw+Gwi2Ug1SSRMnUhszfdst44iKHyInW/35biLRpN27nhKP9wIUdPpd1x/6rc9ZTeKoO6D29iR8FdGDLuQtAH/at1WT4kKLbPrRK97ahMnLpvIyNHJpK5uv9PUJzmKMMrYudb5bqz9XdoCvsmq5sQJ0fSNBwph0rTBZDQe5PXHLHez92Zz94tRPDYrgzN+nMU7rR3GwUweFEL+mrX2AYyvfuCOrywbPWUwkwc1sf2fX1k6sQU88dpeHpvVl7EnhvOO7fWpUSSGQf6uQ5a76ZW8ev9ahz2JJj0pBKry2fxNO9sGhlw+lLGxZXy5zBKU2JvN3z9L5bbzUzk9czs7s4CMIfz8zBQat2/kuW6qPdAqKpg868iQrw6z64oMThzWj+GUe19bwuPj1AkOozOyv8kn98wUUpJiSaXceO999QM3Ohzn1veodTkAytj49gHyExOAcELzjOM7dA4Q1cF776sfeGV8KrNHpHJy8gEvC0aO41f3/paTE90vkf2f63jw7RbPV5m1iO/vMf9vdtqbLcEBR3VfXsf3X1of2UX+f/5D/K8uIzyxD+B9sCCsbwrB1FCe/Ykl/eEz9j/9mf2CKbNJG5lA1beLLEGJtu3Hj5nI/j0O7f5gK9k/GcGIkBx2faBAgYiIiIg/8ptgwZGgqWArZXad9zJqSysIGtSHUKA66mziB8RQv3d96+gBm8ad/6W08jgSEjKAjQQPP5X46GpKdjqOHiiiYtde6kYOJTwJ6OFgQdX+fL626xjVUFDSwImJ0cSD22DBkMsn8osJkeSv+czF3WXnAELbnWyAFE7MjKRq/w6HbdPaubV2BCeNTyW26iDvv9v+EHFjuSLe/8ahA55fRXFdOAOtAZD8KorrIMPFHWp7lewraoBB/Zm+AHA780A0J4+IJyx/L184HI/s/Ua6xvDJsZBVbnbAa9m/tbD772BXFdkHNbrK4+NkE8dpt17EaXaPuS566PTecyjo2JEox/dofr5x7E8x119kvH+G2r3K/Xsvr7CKuglJ9kElj2ziuTvn8pwXr+hNofGjCWW91/UO6g4X0MhQkjoYnRA24nhiwovI3+IQECjYQU0tJGacRxTrHdJrPuCxGz/wskUiIiIi0psULOgOIUlEDIDS2kFERLe/aFD8YCKBpuREl1PMWVZKeMp4oBdrF1hFRTIsGXa2dqgcO4FllqH+XsqIIan9nbd0BM07+x0ylzNTIKa7WMKus7I3m7t/X2EMwZ9yJs9NMR52lbe+7qmPyLt8Iredb1m3U82CCFISQiB2GHc8NcxlC23dzyEDozo4937Ei+Nk6P7ZENxN3UlnYiLmey9q5HgeeGq8iwW6eaRHr7FNrxjh9ExDZ1eZtYjv/2LULEg69y8knQuuahaEJiYSQgL9f/4e/V2tp7izDRARERERX/KbYMGAAQNITU3l22+/9XVTvBBHeHwMNGRTcwCIyqGmElzODRBhBBKa9u+hGgguLKaOBJdrDUpOJIwGSgt8ESgwO71V1eyyu/PajZ3AvRUU1eE6N9/szFUdqnQandE+cwRAcr6bwoOuFPDErW+b/09p7RC7ylu3TjE4pDVwEE3f1mNijMigdu9ROJWk58epe7mpVdFRnYX22N57e7qz7T2QhuCVMxn4+zvoH1/Ewb9f2lYfwCxOGNOVVRc8zc6lT9utL+ncvxCe2JYSUV9cTAPN5LuqTSAiIiIiRyy/mTpxyJAhDB482NfN8E7UBMKjaUs7qPqW2koIzZiIY6nG4IF9CaMt7aBx/2HqiCRh+KUOSyYRmRALNbso+b4X9sGR2Vm3z1HvbkbHOmpgKicnOzzlNES/kq93lFIXZQwPb09eYZVHy7lWwBO3rueb8rZRDe5kr1rP0vcLqCOM5KG2bZnBitRUTs9sf0tGWkK4OYtEm0nTBjvNjOB/PD9OXWcGrvL3869uq+3Qznuv04w0hLlz3f/ruUABkDKCiHBoyP6IvJ7srBc8zc7n/klxrS21wWCkKyQRP2aiFysbzcxFT7B8+XJuv6xL4QwRERER6SF+Eyw48gwh7Zpf0yf8ALnrbHUHsin4+gfqIo5n2G9upnXgdPIfGH7RcQTnfkmeLQBQ+Dy52ysIHfU/jDq3bTh02HlLGTEynLKNr3h5Z707pHD9dWPIaDzI5x3UB+iaSl798CDlUf2ZfuNIhtsezhjCwpkZxDp0DrNX7WZzeTgjLzuFWdaO+CnHsfimAaR2tJwLQy6fyMOW1xrr68uwWMdASQrXLzvDYX1mfQKH+gDrVu9hb10cp82dwIXtdUS/2sPanAZST8hsXW7SnHOYPaCc3X42c5/nx6kHWQMwGUNY+L/2Ux56x8177ygQknYCsUnmH5mLOP531ikPvRfz039w3E/sAwBGfQKHoodZL5G7t4aoCbczbLKHAd/RE8hMNn5+Bp18Faf6fZBMRERE5NjjN2kIfq3qE0oPzKDPyPMZd9f5rQ835b7Ppvstsx4AjRtvZeN+c6rE1mUbKFt7B19/aE0rKKJk5RVsNKdKnDjZtoID5Dx7kf0sCOZ0jHb9o1FzmHjXHHPdd9nNqOCRvflsPzycDIfc7artG7m9N6aO++oHbsyvMqZKtOT456/5jF855cIbw+AnzTmH2da6Cfm7WPwna1vdLAc4plFkr1rPa3POcchbr3UY7m6u88kYFt58Ec9ZOzT5u1h8s0O6wd5s7v59PjMWnMb0+y6yr5tgV+Ogklfv/4aUZRNbayBUbd/I7X+q48plfenb0bHrMnMYv/UNZam1ULW9bYi+58epJxTwxJNbWHjzGEu9jDK+XPYJ2688jQuc0/M989UP3PjVYWNKTcf6Evm7jrw0koKn2fnPfhx/9UQyr3uPTICanWQ9uZiIa+6wD/SYqQR2QYQhVzLhrisB++kYK966i7xrlzLxLuuBdkh1AGAX+S9cStlpTzL23L8w8Vzrc841DgDY+iIr12cyd3IqgXEJ9A8F6rp0FERERESkmwWkp6f34PhYz51xxhmkpKSwatUqXzdFRER62nk38tilIwjJ+ZDbH/gnmkBRRERExL/4zciCDRs2EBHR2VuFIiJy5BjNzCnDCKGM7z59R4ECERERET/kN8GC6upqqqurO15QRESOWOfd+BiXjgiBsu/4201P81+lH4iIiIj4Jb9JQxARERERERER/6DZEERERERERETEjt8EC4YOHcqZZ57p62aIiIiIiIiIHPP8JljQv39/kpPbm5xeRERERERERHqDahaIiIiIiIiIiB2/GVkgIiIiIiIiIv5BwQIRERERERERsaNggYiIiIiIiIjYCfbt5vtz69/+zo8GNlFXmc+Ofz/I7U9vpM63jRIRERERERE5pvnJyIIgwqLTGDfjbpb9oo+vGyMiIiIiIiJyTPNxsOAgy34xlfOuvpcPc+ogIJoRZ13NcN82SkREREREROSY5hcjC5oOf8zy93ZQAQQn9mO0rxskIiIiIiIicgzzi2ABQEtjMy1AQGgY0b5ujIiIiIiIiMgxzG+CBR7r+yNufmg5y+/7H8b5ui0iIiIiIiIiRyG/CRY0FNfQAEAgwWHulxs9bTKZEUDCUE5StEBERERERESk2/lNsKB6yyFcT6OLAAAgAElEQVRKGoCwoZw5byKxbpbb+nUWRQAlu9mwqffaJyIiIiIiInKsCEhPT2/xdSMMYUy44VHu+ukIYoMA6tj87I/4/Yu+bpeIiIiIiIjIscVvRhZAOOkp0QT7uhkiIiIiIiIixzj/6ZunzeLiKf2JpJJtq/7IHU/+QLmv2yQiIiIiIiJyDPKbYEHMSWnEBQB1e1nXXqCg74+4+daLyIwoYcNf/8izqlsgIiIiIiIi0q38Jg0hMDTIo8b0HT+K/hEACYw9/yf07+F2iYiIiIiIiBxr/CZY4KnD/3mZD7NqAAhPSCXJx+0REREREREROdocccECOExOUTUAJbs3oCwEERERERERke7lF8GCoL5n8utpw4kFGgtz2dbewn1/xAXjkqA2m3WrFSoQERERERER6W4+LnDYn1v/9nd+NND2dz0HN77NNy6XHc0v/nw9pyZBbfa73PfgvznYa+0UEREREREROXb4yWwILTRW57N7zassfnizm2W28rc/zeVvvdouERERERERkWNPQHp6eouvGyEiIiIiIiIi/sMvahaIiIiIiIiIiP9QsEBERERERERE7ChYICIiIiIiIiJ2FCwQERERERERETsKFoiIiIiIiIiIHQULRERERERERMSOggUiIiIiIiIiYkfBAhERERERERGxo2CBiIiIiIiIiNhRsEBERERERERE7ChYICIiIiIiIiJ2FCwQERERERERETsKFoiIiIiIiIiIHQULRERERERERMSOggUiIiIiIiIiYkfBAhERERERERGxo2CBiIiIiIiIiNhRsEBERERERERE7ChYICIiIiIiIiJ2FCwQERERERERETsKFoiIiIiIiIiIHQULRERERERERMSOggUiIiIiIiIiYkfBAhERERERERGxo2CBiIiIiIiIiNhRsEBERERERERE7ChYICIiIiIiIiJ2FCwQERERERERETsKFoiIiIiIiIiIHQULRERERERERMSOggUiIiIiIiIiYkfBAhERERERERGxExQXF7fI142wF0j8zGGMnxFLy95SKkpcP3/chHoOfVff/qoiohl821CSGgspOdBT7RXpLeZn4+o0Bp6bavw7O8rN5+RoEEza9aM57sJgqj+toMabl0ZEM/i24Yy6MJn4yArydzT2VCPFj4T8eBCnzhrIwNM78Z7pTfGJjFo0lGHnJhFWdbT8PgWTdv1IMvp683nr6PdeREREfCnY1w1wEhFJQnoojbtyOZjd9nDIj9MZEZzP5rfqgWZqihswLk6GEfnNNnavsy0ZTNrcgQS+t4eDuUBTLbV5GBdnN4WTt/AQxV42KeTHgzjpjBia8w6z+ZFCqszHg05MY9wVSYQ3VbFvxR679vpURDSDb8ogtca+vdIbzAvmlGJ2dOK95l4g8TMzGTU2iPw3N1ve7+I/euLcm+d9VEPvf8eY3yN9Y108V+d6H23fldBE/pvbuv4+jU9k1Px+RG/P4evnK7q4sp7SU595L/jsOz+Q+JmDSdq92zzXLdQU1Brt+X0K9a918J5183svIiIi/sHvggUhZyfRN6qKfZ9bLwwDiUoMJ2ZsJqcOzWNvARASweAF/ekb20zFvnCg1lg0Ipzw+Cj6zh5Nwte5VAGBmWmMn2p06suHAJ28KAlMjiF+SCFV2UabYkbFEN6FfRXxmHlR3Zx3mMMKFHSsppI9929mj6/bcRRo9LijHkzykBgaswooTE0heUQMu9f1bge/4d0c1r3bq5vsnNJits33SVihmwUSER9B6sVjSRxxgAMAkYmMWtiPeJrI70O7v7euf+9FRETEX/hZsMC42GwuPEyp3QVGM6Uv7mSdeQdnyFiA/kRsz2Hd/Q4XGbZOQnwio+b3py/A1HDy39zMxk51sgKJSgyjubCMstAYEsaGczC71uy8BVG0p4KkdJV+kB4WFkp4LDQfqtNIEfFP8bHED2ii+M0iasNTCB4cQyIVvrnTLr2kkdwnNpNrjmzIiAUG9KVibRbr3qrt4LXufu9FRETEX/hVsCDoxBT6Dmii8E0/HDrfVEPud4GMHBFNFLXUjo4htqaA7A0hRKU7jC9wMXzXMYXBNnQ1PeQwm59rJn1+P+LNZzy/k2dlG6Ye2vZQbF/GLenb9reLocNtw4Zt+9kdKRXObXHefzdtdmqjp8fJHAqc5qr9bp5zOk/NVKzNZrPdRa7ZxmGV7FiYT9j1I8kYYD5lOVZOx5FERixJbPuzF1JVjLSYeMrf3Ma+BGt7XO2XB+c+PpFR8/tQ/+Yuqk809rtxew7f/hBtpN90aai5J+fewuFcOX1G3A6Zd9NGj869+7Za3889ce5bU5xaHwklffZY0tvbLxfHoHPfJZ0TMjmG+LoydqxrpCKhgowBcSRMOkSxq/dHu8ff/LwOsCw/chCTlrT9af994un3jbttu38/JR+yvt8d2+k9p/Pa7nujo/3q3He+v/Dr33sREREBICA9Pb3F140wWDtljhc3bRdFzXl57C2II6WmiKoRZhqC9eKt9UKwmYqvc6nKjKdxYy3JUztbW8DY9oiUYqOzemsc5StyqJo8hAHlB9h2MKG1g7Z7HS5zNW0XiKF2F3rWC+K2C3/bssFducj3KH/VVQfa1qYudAJtxz/K/li31ZxwOE9hlotZl69t7zgl0GA590anLcr5Yt5V3rP5WKzlnLg+9vYX5K2dClfttx7X7shfNtsY384i1k6OXUektZNgrXVgO6cenvvW7RufsR2NfThpSgjV5U0Uvraf5h+bQRxvc6S9PPfpUbXUJ4S0fsY8/YwY74dI5/eyx+feXbtcvJ+xHEMf1Cxw1X7X3ztesHSYO/4usgT1HimkKj6RUfP7EuSiY+32+9BWa8a6j97WLOjgu8/j42QNKDgFBR3fU5057x2dV9cBTtfvu473u+e0fT83bj/Ageg0IrflEXqemYbg9nekvd97ERER8Rf+M34+Pp60scFUfFPs4sKhmariWirWZvHfR4qoA2ioYc/929l7wCyoZFNTS21pFfue3srmdxuMV2flsnHJIUob66jx+s5uIBHx5p2b0nJKcyNIGB9HQv8mSja7uLtUU8meB+wv/pq+yWPP5noC40MJc3qB/QWVbVljCG/Psd3Vyf+3ta2N5K7Yy+HyIJInJhPVifWGnJ1E31jH9ULDu/vsLnBbc1X/ZrlQrKlkz/JDlAZF0c/uTi04HaetFZSWBxI1NLq1nQ2fFHHY4TEw73jSRPEOSwDgJ8nE1xWzy3Jh3f6xb6ZibVZbh6WmmpJ99RAcRsQQrw+TZ0qL2TZ/M+vmb2bdkkOUYgQH1tkem7/ZZQeqOe8wm1ovwJup2FZBLQFEpBj3M70+93WlHLKdu6BQmra1FSNz/Z5un7fnPtASKICufka8O/eevp99K5jUSUZnd6vl/dD0TS6bP68gsE8KfSf1cBPiY4kf0EzV7krjmJaWU3rA+bNoa2u4w/GHRnKX93QBx04cJ4cAc8PaCkoJInGE4/dTN4sIN9KOCivshuj71/sOoJma0hry39zM189XGg9VF7Pt7r0cLjGLC7vS7u+9iIiI+As/SUMwL+CbatjnqgOOeZFkLguBRCSGALXkPrHNYUnjohOACCAonPA+QHYx2xZ2tZ2NFGZXkXFGf6LyDrM5GzjRi5fbOpbWC+K6Mkrs7rw0U1Vc53rZbmMWZ6wrI8fxro/ZCe47zOgEeneHysxB7bAIXzu5qqXllB7oR2xCGFFUtG3f6Ti5YGv7KGshShdtslXg3uOYT20e+zAXw6ebahyCQ7Y6Gv7G0mEzNX2Ty8Zvcs2/vD/3tuMUArRWO+/0V0d3nPsufEa8Oveevp99zNZRX1vp9HltWFtB6RlRZqCoc53MYIcUAHAeth8yOcbh+7uRwuwKMqZYP4ttba1Y64NOYieOk2NnvdfU1FJbDoED+jL2Jvx4VptmSl/cTWnr32ZQsqaSPQ9UunlNx7/3IiIi4h/8I1jg1fRJRifta0/WW1PJnvsdgwldY7uoDDI7ZEEulnHONzY1NXi+odYgR6eb2g7LaAl3OtURM+6GdTi5uQfL2e5Ye3eB3EzpvwspHdu3rRClqw6CWSwwONa5E2Ro8mqrRxYvzn1P9Oa689x35jPizbn39P3sY0FDwwgH3H+7tAVXO6PjugeuA0DNefXUBiW0fRY9amvP6enj1L0ayX1iKzUzMxk1tq0OQbu1GHzOaHNuR4tpukQREZEjhl8EC1qH+n7ih9Mn2YaD2qrQO0x51bS7zjLEu7a12Fnj9hzWOea9j/Jkg8bsCzS1M4Szy5qpKa2HFNfbj4gPhcbKTqRseMi8a2beqrZnO96l9Ua6ibfMu9PpQ41ClPWTY4ivK2WHdehuXT215dDoUS720caLc99esYTO6pZz34XPyFF47o3vIDeBy6FhhNNMTXEPds/jY4kfAIE4FNczhZqfRV93cH1+nLxmHb1kqz3Sl3F3hx7Ref5+/XsvIiIidvygZoFtqG+Bfw/19YitE1PFoU7PG2102Hp2+Kt1yLXDU2aHzXmYtgfMYeyByTHEt5vHb3RYXS4XFkp4rPNQes8Zw58Dk2OIHxXNgBNinPfF7LD2dF0I/9RD596L7Xf93HfhM+LNuff4/exjdfXUuqjVARDYJ5RwpxSa7mWkIFSx7+nNdvU01s3fyrbN9sfPVa2RXuPj49Q1zZS+mMW2zd1RJyWQ+JnDmbRkLKfe1LnaNJ13NP3ei4iIHP18Hiwwiq11pXPoh4IiSBhrS0IIJu360fbTW7kVSPzMIWQMaKJwfReGmto6Oe0UNjOKAQaR+pPB9G+98AwmbZZR+b1zwQ4zDSAoivRf9LMvFPfjdMb+NLz95SKiGTy3H/HWgnqd0PBJEYerIkg4Lppwl/vSSP66ImrDEhnW7RfLRrCCsHj6/dQpEcUv9My591RXz31XPyPenHtP389t6+7+c28WqHRZ9NNUU8mB7yoI7NOX0b9sWyboxDTGnhFD467CHhzubXT+cFk81tZ2y/ehm7YasyFY34+m0nJKD0DwsGTn57zl0+PkpfhERt1t/56zDd93GSTz4DvfcT1ArwfCjsrfexERkaOYj9MQbMXWSsnxqwrP3mrLdS19MZu9148kY3ImkyaDrYr+huw+nDTFRWwmzGFO9rpidszv6hBT8y7UzExGXTyW1Ist67YNX62pZM/926m9fiQZlvnbm/MOs+mPXQhUlBazbX45adePtNsvI++51n65u+sZfFOG03Lrujo8vKaakn2N9J2QTHPeYfa56AA0fZPLxq0VDL4pw2nodFfzghvezWEDgzjpDNt7gA7mU+9lPXXuPeXxuTeL5A3o3s+IV+fe0/ezqSfOfdM3uWwCxl1hrbNgPztIw7s5fJWX5mKZzZ2bAtVTZgpC43bXo1GMkQRJpFpSERrezWHd2kRGzXexP07HqJHcJ7aDi/eqy2kObWLbUiKsNRd69Dg5fpdb92sdOE7Daggl3bZf1u/n0mJ2vpXGuCVjGWE9Gttz+K/L70cPvvNtbIVMx/b0CDZHR8vvvYiIyLEjID09vcVnW29nLu6jX0/MyS4iNkb9kMh25noXkV5zTP/ei4iIHJl8mIbQNn2S/+aJisiRqTcKhYqIZ/R7LyIiciTyYRqCv85TLyJHmpAfpzMiOL/1jmXQiX0YPDaUxu2ank3E9/R7LyIiciTyi6kTRUS6ouHdAxyYmcmkJbZ8cKNWyEYNdxYRERER6RTf1iwQEREREREREb/j86kTRURERERERMS/KFggIiIiIiIiInZUs0BERESOGHV1ddRWFhCmKxjpBs0tEBAcTkR0sq+bIiLid/RTKyIiIkeMlpYWRqY2c1qGr1siR4PyWvjX9mZfN0NExC8pDUFERERERERE7ChYICIiIiIiIiJ2FCwQERERERERETsKFnRF7DxG3fUeJ82Y0W3rmmj51y3rFb907+P7yVldzLJQf1hnLR+9t4+c1fv49Hfd1x7potkl5KzexydzvH/pkieN85nzZK2+5HvYnCW55KwuYMUoX7ekc86cV0TW6lz+c5VytgG4fA33ftzCXYvP9/qlpz9exoMft/Dga+8wvAeaduSbx/X/buHBTh5f6UmNvPzSPnL+Ucl0b186uZKNq/eRszqPV8/oibaJK+NmlbB99T5y3ihhSaavW9OOwbV89MY+clYf5JPZ+p05EvlBgcNY4qf/HyNHVLHvxV9xKMfX7fGB2HmMmncBMXkf88NTS6nq5GpOm1/AS2fXtLtM5TdpjFkQxIJHDjNndKP5d4jzOiri+fP0WP6vk23pfbV89F4+mQHtLRPNyosSqXtoPz9PiWfBNTG81OS81L2Pt/+8L9z7+H5+Pryl7YHsVEb8Lpxa3zWpy4x9imLlRYncWu9qiUZefvkQU5IcHw/lq6V9ueIj51dMX5jHg5Nb+NrN8z2jlk/ey2fI7lQGXxeO3U/hWZV8d0cxAf/txwl3BdN6BmeXkHN5hWXBaF69IJHbWjhymfuU/c90zn7K141xNmdJLgvGN7S7TN7H/TnlgSDzryaeeCaXi9ItZ7QyjuVz43ggr+fa6Xsu9huAELY+34cf/cM5/HTmvCJW/KieXW6e7znzuP7fj5AR6eKpmk18+rvj+fc+y2OXr+He6yYT3vpALttu68eKDT3e0J5j7lP9f6dxzx3vd7Cw5XgVvcvTV1zIzi5u/vTHy7h4TNWRfxyPMD+9K4/Hp9S5eCaI7FVpnP209XPYyMsvHWKKZbKH0nX9OH6RH3QBOs3cp8BE/nBVNK+7e77dCS7CWH9fH2Z83rkWjJtVwsorK4hwecw7YXAtHz2Sz4CDqfzsunA2dm1tPaSZex8/zM8HRvCPWxKYn+WLNnR07ts+H7VZ9sey9ZzVxPiw/UeeI/mb4qgRcvIY4qgjf0PnAwUAXy5JYdAS219NPPe3g0yNctXpb7sIjB5ew68JMZ9vYtao9oMN/iuccy5Ib/tzVgl7rqwg5410zvqL/ZL3AiQ0cEIQfhMMcM/sMAcmsODHtuCFERjZ8UpCNwU0HI6dvymx3897H9/Pz2/bx6az0pjwpxAafds6r125KI9lk1pYvySdGZ8Yjy15ch9XvVfPoCV9Wx/rivnXpTO/66s5qjw1P422GEYDb6zKZXxFEjN+GcV6p6XN54lj+bWW4MC4GtbcW8Vnv3H1mqOMQ2BkzpJcFvzyAFtP6sOP/xDGXt+2zk5d9oM89utbyW9nmWELdjPr3FQKVo7iob9uB8yO7tIK/rDy5NbHuuKLG+L4ostr6UGXX0HfyFz2fVdDvxPGc/pJsLNXO/iP8sRPHu3NDR7dPOnwWDqgl1xjdpomV7Jx4SF2PNlNndK10YyfFt3VtXSzYK6+xnJdM7mSjQuLCey2IEkzV55QQ0BWIj/EFzPs+HrG07sd/E0rEhi5IqEXt9hJe8I55xLfXGOG969hRmY4G7PAds4ifNKSI5tGqPpcLFEJcdBUTG1hb22zhWGJjVRmRZMfU8WFPzYfHlvL2IQIsvf7KIaUOo15Dy7n/lnjfbN9ABoZktQCJSGs8oNAwvSFRUxOimbltdagQDjn3J9IcXwJty9qOOYifnfekMaaIog7pYLF3ZjG4ZlMrljwGMvv/Bn9OvPysypZMKmO7H/aBwXmX9eP9cX1TJxTwYx2R8cc6UYzc9ETLJ59KmG+bko7zpxXztjoELa+HmM/imBTBFOOhUCBC0/NT+XtfYFEjS3nT72ecpHEub9fxvIlv+GUzrx8wotMP3MI1f+93C4o8MUNl/FtbghpF73KT/w4XtpdTj9rLOFFG3lvzWEaSaP/5UoFsJfC+Tcu45HbLqY73w6ZMxexfPGvObEb1+mZZu69uZjMmkT+aA0KrI3mFytjaMks4mENC++cwfVMGtjCoe/D+a442OyU+rpRYmjmlJQmag9Fc4hqTp1qvscH1zNpYBDZWf589eGffNbPCBq3hOMuOcEyHDCW9F+8Z/mCriP/nYvJ/gZCznmGE6ekUfHfu9my+mu79Tg9FzuPUfPOJfC/d7OzcTYnThnotD474ReT8bvf0TfG9kCjy+0YTTTSBeIcHna+s5lG31nPkdHfssyO59jw6qvtHpNeVxbFv7bWcs1pDfBuCKf9pJrIzfHcVF7KSyc5LJtWx3tP5DHKEjyuz0nhV7Mj+NJhmYE70rhoSxX/vracKAAC2f9OGqf9bxBuDb+Wu+dNJKV2D++937Ox2e8KQ5npbUKpOVKhLboW7Wb4vIt0CA9TBowh9HUEtA6zr+V3k+oIyI7jT47b+Tycbb+FKcNqmREU4jC6wGH4vtP23aVsuBve75wOUPaV+7v67aZMOB3HSq58u5IrO2yDVTDZRQFMSaon43SgoZKNC4pJtOzPKbftI+e2tr/3WEeYzCphz5V1bFjal1dPsx1zF8s5mcLvll3DcVEVbFn5Hw6110Q3llxRTALRvP+08z6t2hHGxElVXHZWDK86jC4wRiPYhpw6pywseXIfV7m4UCl1TH9wuT6gJIHbrorhVVdpEO2mTJgpGJZjP+SyfeRc5q4NW/k2q5CJk3/BI4uP52+Lnua/rkbS+tjIvvWEdLyYA4fh+7muRy04p0NE8OG8FGZtszw0roY19xUQ8mV/TtlaxdbrS83vUqja7OLO/kXldsu4XKfJSBmoctg/T/Y2iB+KgrgovZF+JzRDSB1r7itggCVgN/qXB8j5ZdvfdmkdF5Wz9foqcp7vw5I+JXZtsE//cDSEaxbdwpTUenI++ICvPGipo9N/dRFJIblsW+U4TP8jvt5ykHHnDmHEj0fyb4fRBcZohCHmhZJzyoIxBD/WaXvuRjrYrw/XqRI27aZMOKdfhJ+6mgc/bq8N8zh+cCzlPzzGzlWjOfyryWRk3shw3neZitBuW53aFsuopS082Pp3JbnW0RoTXuSOxdeQFOLm+Y627eLYG8tEsOu2n1Nz0ztMSAtzbqeVRykoBWzcdoDzLpnG/EdGsPqRpbzp6tx4KWt9FvmTJzNr+WLGr7iD/3O8Du0pk6u5cHgjpevCnYZqb/o4goMXVTDA1R1xczRCpnkL1illwbxLn+i4PXcjHRzW5zpVwqb9lAnn9ItiHlpdzEMdtcEj5hD74ZYrm2LXQ93HTa2hP5G88XEwK5simD68mlOnxkGWt/vkYpuZ+byx2rqL9m1wOgZu2uhu245D823LnFiays9eauRZy7ntUrqK0/uk/bSPjvbL63NfHcnKPQ381nyPN02tIflgHPd9W8M9lv6ZwUXaitNx7cxxSuG8G2/j0hGNbHz2Dp45QlO1fDayoGnTfL675wLW33Ml27eWQ1Mu+/52Aevvsf1r69g3fL2FMoKJyjjbcjEEkEZSxkCo206uXec+mJhT/8yJJ5Wxs3UbdaRe+CZDrKHd2HmMuu13pFZ/zA/mdr9+YzMhp/7ZqbhgyDnPMHHe2dS9Y2njo+9R5rhj4ReTcdNzZCRvNrdtLFc14lecMuc2s/2xxE9faRYyXMnI0bEQlEb6LywFDv/4HP0Gdcuhbkcgr2yIJGB4Db+miVmjGtn5pflrHtrAuLHmYml1vPdIJTsXpjNomvHv7BdiaRhUwHNP13Caw1qjT8zlkxlNfPgHY9lrPglj4IW5fPl717fqh197N8vnTSSl9BueuXkZb+3vsR22MDuamIUBX6ngGsu1allhUGtHePrCPPaaKQ22/f/7ziqufPswr51jXWctH71Xzbc/bVtu0MoYmofks+MvtZaLFGetgYLsVEZMMzvLZzSS6NCWNkaH2ZZO0aqkgfPfOkS/L8zt35dI8WDH7RtpB61tnJbOH9aGOXUo2/bJlgbRts6mk3PZ7bRPRqFEow6BZd2Hy/iPrXDiigQGtx7DAIygi7Utnag18Hk04y+w7kcoXy213z/nAEA9p9y2j4dGRfLHH7e1Z/AljufUNOV3LFt+DcdFHeLze2/nyU+dPvkeaGRwIlASgqtrxZWHQoF6Uu0CWaEknr2PZSlx5nHrx/riSma8V8xSSwd9/nX2+ztocSIlblqx5Ml9rWkQg2zrbClhqcM6bcva6hC0rTuU85+wFU4M52zbe2mVEXG1W3ZaOsc7BCu2vriI659YS37MCfzikdu5LAa/89SaKKpoYPQv8zwr/FfZzElLD3JKVpqx37emcCCpiGcfqiPDsticJbnMKkm1HJ80NlbWcO6jrgsk9pl6kJzr61g3z1j+2v9EETo2j5W3t32XnjmviKzrS6n8uH/reu/f2Mi5jzoWLWziiWcO8MLpwTxzbdv5ufY/UbRfycGNTRFMuci6jhC2Pj/A7tw7BwAaGP1L+zbcvzGEPlPzXR/nIdewaPktTEktZ+Pz83jgX51JfjiHgYlhUFNAnos8hV07DtNINFGDrPeSKwke/RZzxm/n2akB3DL1XL7NTWTU0kPMsgTSv7ghjlumBrT9u+UlitwczNMfL2OOmQZxi22dpSM463n7ddqWfdCsQ9C27o9J/YOtcOKjPPET8/En11ILlFuXnRrAHx2DFZdfQd/ISqpy9gGP8v2ecogcwHCnW+jncPVLtQ5tDeCWZyuZcNcyUgFWTeFO8/E3t5RjdLwtx2FqjH0g4NuZLJ5mPPfUh9ntpI7Zth3Brtb12Y59BX/47UiH5dMYtfRDxtQ8ztKpAdwy9Sb2tozjrIfsC0wOW7CbJe0ezzYF7z/GrQvfYEdjBtPmL+bX3TEcIOtFFs19mLX5cUyY9Qi3Xdw7w1jGjWoggiCKD7m41N8TTF4VhCc2MtTycG1AFff+tYzCh43P50UrYwibdIjvF1nO2tpoxlt/b6YN4O873XQoJ1ey8a9mGsQ02zojSbv8gP06bcuuNnPRLet+O6m0tXDiW/f0af3dWlOI0aGztuWSTgYKBtfy0RsH+HlybNv6fptKVkQxDzkVEDSHs9eEsCHLDLzUNJHYz8V3WIf7FMidN/Rr216N0Zm/xLpPDgaeQKYAABkLSURBVIEAp2PgjrntE0st67s7kerMfN5wUcgyPDOfNxZWsfM+67nP63xRQsv75IY17d3Nb+bexw/x+BRYf1/bfl/0YQO3WN4jnTn3n34YRXX/GmZkNnPlCfUUfx/KdoCIega3Dg9t5OWXigh6yrKuuxMpTizmIY+P0yHn9zNA5jSmjIgC4hgy3vEu7JHjyEhDKH+W3K3lBCaPIs7agY6dQUL/Riq+e5Vix9fUbWbnA7eYj5dT+u+XOFwRRmKmLQgQS/z5k4mr20yWpahg06b72bu1nOCMk9uiYbHzyJwykMYdLzuPTHAQMuUnRk7gK7e0tan8UbLW7Le0v5zS1680gw5ugiX39WCxx7RG0swRAtkfR7AvoIoL59QyNiqKd951sXxuGBf8LInfb257KPulWF7cGkxoYgOOP9/URfHmgrblv1ySyMeHm+kztt4hsJDKtHkPMm9iCqXfPMPcBSt6Jd/r9QOhls5LLZOGtUBCFZec5Wpp4+5++VdpnGvpcN55QwpZLfWMOMuaBhDOORc4jDZYkcBLO41O/eVubpzZAgXlX6Ux1DoCYFgD8QFQfMj1HfzvCkNpsQQ9AEioo+RNS+f482juWxdGy5Bq/tyJIfvTF5YxNMAhDcLNOo1lQ/lqqf0xeP3uPpzt9m59Z9hSRaJ449MurCY7lRE/a9uvO7+Lppl6UhyuHjOvWMBj1xxH1KHPuXfuvbzSmSEFZrtTE4CiEF5zFZnZGUIJkNi/kbY+ez3xRdbCicHMeCqREio5eXYnmnBWJRdk4pAG4Wad5rKl/+3HVGvBwk+jOcGxkKO3tr7Iouv/xY6GQZz7wHJu97eIwduxjH4i3gwYHCBn9T62OnT87UTXUfel5e74plA2Hg4kKqOWGX3aFntqfppDBzqES56Ppwrzbr2jyjiWX9s2QuCzjyPJq4fo1EazLQ3cdHoV9Zv7cKVlvU/NT2ZjZQODTmpobfOZ80q5ID3IObXCY00cl9QElZF8+nEXLh1yk5hxeVstBFtgJind/kORdO7vWXbLFFLLN/L83Pk805khBQAcR2JcGFQfYKeru8R79lDVAGEp5xkdYQCiiaz/yFIA8CNefuh1iho6OXR/woucNjyWcrs0CDfrNJety36Qv1oLFn47k8VXdb4g4elnjSW8Jpsd7xrb/+LTzdRGGCMq7Fx+D6PTwhzaCqyawj0d1IXossvvYXRaA7krp1ru+H/Ey9fMZ291NGnnPOTUubcfQWEGQZKMegw2fdOSCSaXg6s8PJ4F7/PYrbbO/XIWd0/EgBcXLeSNHY1kTJvf7akOrmT0ryeCYPK3u/q8BpJdHAwRDZxk6QiHJ8D3lru/m1bE8frOYOJH1Ho/SwLN3HtVOYnF9mkQrtdpLlsTwz/+ZO0cB3LnDcmdLkLoqZ/+vIxMHLa9J5xzliZSHFHBj2ZarsIG1zNpYCOlO8wRG3tCWbff1THy5T65Pva2FJSaxDKucwoC2N/5twVB+h1fT88mBzczJLERiqN4zXJMNq1IYGKnRjWY6wNYG862qmpOvbSWSSmh/Nflb1cwV1/jMOJhbTQL14Q5fT4MDsepvc9I1nqy8gHKyN54hA4r4EgJFlBOxc5saoNSSBh5svmY2dlvKqBku3PKQOPer+0DCLVfUVsOgfGDjLv74WcTPzDWeTnKqSopg7BhxJu/D0EZfQmjjuKsjtIIjJEOzYXbKHPo6DcXFDm030/khvD5vhYmXFZE5M4I72c/sI5AMNUfjmTlZusjAewqdggspE5j3oOLuHh4IHveW8yCFT6q+3pGI4ml0WQX2zqJjfSxjq2bVcOQgFB2fOrYYQ8mrxjihtUyo53silaOIwBM6X80AgV730hnXLcU64vm6xX2jxjBEYeggkcauWxEHQHZkU5pEMY6Kzl5luOy8fy8h2chuPfxXKYkhfLVM10r7rhnk0NqiDnqoW0UglGf4OazB1C7ZSV33PtKp1IPuip7k0PH/NNgSlocgwqeufKsKhKI5mvHNAhznUPGtU21aFt29ULnNIbu8QGP3TiXf+1oYNC5D/hfHYO3Yxk9LZ1BT8RTBUSNzeMzt0GDCH54y5MvAnecO8sAVXvDedWxZsJF6Yy2pSFcVMPw6BByNoQ4FBwM5ECxfbBiZN96QrrQ0Z+zJJ+LuhRsMORtC7dPzTCPc1sQxahP8OfLRhKS8wFL5z/TYepB2JBbuO1jY0o+27/7/m+ZpfPvvfKsx+w7kt9uoMIpqOCZYRdMIi7EobNqWWds5o2tnWDbstl/7c6OuZGCUJf7Pl/ZAiarXuNwdTSJJ82y2x8jqLCJb//S0cwK3c8xoNHG3UiISoo3rOjwOB3OLaSRNKeRIe3L4sVFc3l4bT5xE2Z1U+e+gPcfu5WFb+ygMWMa87taxyCigqts0+Ta/nV1Gj2HDhsE8lVBkJtOUwccO9WO60ys4oozHJb9LsYHFeob+dmIOmoPRvCq47bXhrOtEMJTGls7zOOm1tA/IoztH9s6soGs/C6CGuv+gG/3ye2xb2ckhNO57y1m4MrNnfyuCeaVHcEMObeQAUUuzm9H7EYgmLz6jBjfI3PnHrkpCHAEzYbQtOkxDp/8HBknzCBx9dcU2zr7Wau8ugMfGJ9KGFAVOpiIGAge8Ssm3vUrF0u25cUEpiQRDpR3tPLwUwiPhcCYqRx311QXCzR2brhnjzJSEWaOrmlLQXBhyDWllhoEFnVeXN7bAgubYfgFkxnuarqr3rArhNKWClKGw/TUKgJ3JfKXxgaWjmsbVm+7mz99QD0B5pB1aw58K8ex3k45+e2pZOLEjtoJif0aCMY5kHBCcj0BRLHXo/LbZjDEq468GThJymfHag+X7czo/I4klHD/uyXcb/u7xDozRA+ach6nDPA+c929YPJLYEhSA1cEhDvXBxjeQAKQfdCzznl8UiMBeNeRn5BSB9Qx471KZni0bHfuf/viTjiLC2P+yz8rOl62V70dy+i3Y2mdIWFsHitvby/Hvj3mOlwUDq/sxNrOHNpAqG30wy9dLNC6UnNUgDeiy5j7QhlzW9flMDNETxlyAaeNdPqlaVf7syH8QHFZHRnxRkfTaXTB4MFEhUBdwQcedc7D4kYTD1515I072455/RY1jst2ZV4kF8wUBPuOtXlc0s7nlPRbzRx/M2XDJzzYdkQKfVIBL+sI7Lp/KPN3GDUL2s6Bd9NmhmVM5PwT3+zeegNxYzjn4nS+6WxhhA7y8/ceDKWGalJHNsPnjlcl5t1Xcyh9h2ydJm86W2mNJEZA/KRD5Li8hghzWtYnBjfSJwoodb+ILV1joy0FoTjW/i74thBqqGDk1Eb43Oxa+XKfPNi2EQAJ9oMpGo1UjK/uyuPxKZY6BO3WYvDcWx9GcfeURkq/D2UjMM7VQu7qcHhzC6Mzn5EjxBETLIBcivbuJ6O/cce/rGES8TGe3O03mR355tJ8IwxQv4eaCog61I2FB2u/orb8dzRXf8yWp7o2DWKPSmokKTqQksPGj0f2S/GMfim+9elD+0OoCqthYDqwGU6bX8BLZ9dQ+U0agxbYOg/NLHjkMHOGOq/emTH7AvXRbDJHHOx8YSFzX0hl2rzbuPiCO7g/5RkfjC4w7oaXfBHCyi1R3LGgmj+H2kcwXj8QyjJa+LrDonv26QTW4n9GwT9Xr4hm5UWx9H/+EFMuOcxrOx228XkwxQsgM7nJRbCgbdaG7zroAxgBj1AKvB6/aoyeyCzzrEBjjynprikivbTmL9y6xkhDuOHsK1l8Z1/u7eTogmIzALCnGCZmNnAi4Pitc2W/eiCU/I7O01mNJARAaZH3d/y/LQjjqswQpwKJvjGamYvmMjk1kJwPb+cBv4sSODJSBrZeX2qmAQR5N32gWbRwQL1Dp9ssTtgZn+0OoZ4Qdj3fhx/9o5sHCjpMndhrsl9i0dyXSDr398y/7DxuW5LM8x6MLnDvI/YX1zEhzXVHc9iIvgRTSUlOBx22CScREwJ1h7e216dw6XBuIY1jqtjlRee0O51+1ljCiSbtym08eKXjs66LO/Y+8zzFu3rOVndir8u6Ex5ZNYU7V5n/v9wWODCmzVz4qKt9T+H8G2/jkhFRlH27gju6KUqQOXMRN09OpW7vapYsfdPbuIdXjA6s7Q6yw/eD2UGuPRjM7nbXYlSWpyaCPd7++OUGU1wDgd9113SFPcSs3zDA1XOOx8m8Y0+EQ3E9mxG1TKfrHdwuM499sqvnzEBCbYE/BAravHVPH94y//9TW+DgjQZO8rZgpe2c7TL3z2FqT+Nz0RZEGzerhJVXVhCQlcollpQNow2ebLALn5EjxBGShmBoWPNvs+7AL4gZPoTQvDXkefr9HTqYiJhGqvZ+YnTizbQEu9oEbjQXFFFLEBHJ1hQCMw3Cbskqastc1FY4ojVzRp8GqIvio5c7eZfRrJFQ6ZTmkM/qR2/h0fUFxJ/4G5bfP6uH86LsJR5XzuhEc9j+58EUU8nJdzaSaO1Y7wqh1Kk2gWvGnf5oVv/Zm3SCYK6+uh9riuo55TbH4nrhrNsVAK7qDZxRy6hE2PNZx53oE5LrCehUfr9ZRNGjegfttPUIl/Xa/dz40g9U9TuDO5ffyc+c5kw0RgyQ1MAVjnkBwxtIsAQA5n8fAy7rDTRy+Yg6yIrnqk8cn3O9zu2feB8sMIooelbvwH1bu8HomSx64nomp+7nw9vnthsoGD1zEU8sX87yxbM51a/yFLw0qIGEUMj7Krr7OuA5IZTU29cmcM2YyYDoeobb/eAZNQ96b/yI54o+/F9ufXAN+bHj+eXyJfymU3MmGr74dDO1LqcKPIeTx/QnuOhz3u6oszx4MFEhng17d2QUUfSs3oH7tnaWmYKQ/aBZBNCxIKM1FcGYHaLRVS2DXnA4t9DNto26E3ZpFF2xagp3PrmWWqfClqaU87lx2d1cMqKRb1fM7aZAQSYzFy3n5slx7F29hJt6OFAAtA6hd5VLbRtK/92r4R10GI0RCC6H6HfE7IR7VO+gnbb2PGMYvMvpD9MaSYwI4pDtrrR53KyF+AZZi/hZUxF8uU/tHHuj8KU1jcL/vHVPH+N4ukoD6GZGbQ9PPgvutPcZSeG8G5exfPlyFv9GBQ67wFaPII1+EzsYGFv7CaX7ywkecRUjR4dRuMHDu/fhF5Mx6wLi7GZNyKXg6++oDRtLZussBa41bXqMwweDiTlhhhlYiCV++v8xvE8BJXbXuOWUvr+WsqA00n/2YIdBiCNKWA0Tptp6pU0897cDzBntSZe4ieeW5DEqxH2wYecLC5n76HoK4k/kNw/fyk8Hulys+3weTDEQN7SShD22fHyjszv4VPsp+Pg8mnd2BRB3Si4f/s716uzZ5/G//PI++2kEXQrm6qtTyWpxDhjc+VoCxS2VXPmCdbaGWj5aUEzinlQu6KBw4PSFecwc3uJRUMEV19v3btnpC/P4xMWxMwoKVjLtTx0HYjz1+idRlLTUc8r09mef8Nqav3Dr3Jf4oaofZ9z5ANedZQ0TBjPjkxhIKGHB3ZY6AmdV8t3lFfYBgKdjWF8MQy47zKtnt61hyZOHmJgYzavXd1A40NU6veFm+14te1Yl3z1Z6/zj8XQE2S0w5OwKZrRXTOG8G3ns+smkVnzH3256oMO0g/5JCca24k7grAt7oxBiE08842oWhAbe+GUpUUSw7v/CvBtVYNFnVC227CPbTAbeDbq32BTBC1tCiHKYIcGVp16O50B9DZN+XddaHPGNVbn0Oxzd5VFwRuHFBkZPq6G9zCqvZb/EorkPsiY/lvG/fJTbL20/JOLWqrvYmltH7Kmr7Crqn/74P5mQVsy2BzooHDjhRe6YPZlwT4IKXmzfq2UnvMgd/3Cu3m/UHoDYccv4iauk+suvoG+kmzSLb58jp7COsLTzOcV87a77H+dAdTRpV35sn99/+RruclEHwhbcGPLbrtWIcL/tc7j6pSVkRHa2jsM5XP1SkdNxN0ZbuKgjkTmTRXdfwojgvaxe0k3THKacz43LbmZyahnfrriJpd0xH6NHglnycQw1if/f3vkHNXkecPwjKgZEKdaAaIuigo67TeSutke6m2ip9tRq6aRj6F09brtRYbVTOUCmzGLrbHvSBc81jjl2wlpbVs7Wnsigrjcn6F3J0c1Op2BwAsERxLA1bIr7I2/I+4YkJBFKMp/Pn29e3ud53ofkfZ8f3+/XxL5DFvtiTHI/FelmBs49PILJ3iAl2m40M30dSLko36tzBynR/nMoDUF+/ruXpoBToz5vCaLod9MxhZjJeFWmmY+1UJ9nYoYpnEO6IOwpCMFOV5BP/GEqJgasUgRf2iQZJaoW9pE/rL3e4r7vJ1wJZ/+4+BM4IdZC/buOXhtWHwnnPgqj2fc25P1mS2fwJNd5hO+IOpGER6xP+PCEFWwI0IVkv5hWutuSzxfs55sb5P4BA3SfXO+QPiANxhNWEz7wd265+RF39CK4c+kojQ5yg7st+egvr2dedvYwj4FBo1xK0ElX5WFU2dnE7z41dL3z5RbmZWejeH29XcqXe99jVtbRoXOHUCQ0+Dt3US+8C0zktVeiiKu4wYo1NzCsAQji+sk5ZIaaqEwe/pfBc29SKdOn/cegJvPZEP7krrjLv2VPsZFteet54umlnPiaJAnyWMIifRiZ8cP9BopyH6Uoq5e29HYMG5SftdXYDfGKcqOZX9WBZoP9vLaaGLZHGnnTyX1SomLlazNoLjSxLK+dM/HSdT8LY+lnKqqqOhS6/b7z0SxwMES01T/9o37sO03DOL4uSpnQ4A0uygeGywPc1DXJ2aRGeQSxQFt6J1eH/l+COe+B5MNtfYHmQqXPgryffOcsh3ca2ViYS8qTzzD7jEySoItg7uXJ6As6uCYrt/X3MSTKkwSYxAsZMaQXG3kjvx1DvnS4N4K81dOUPga6EFrTzMxPa8eQ5u6a3uCifACCadzvkJLgqq4ZziY1VKSsjuTTU90cONXLAenorabZJA7FJyawSRPHv/UVFOua8ORRXFd3AU1cMpFf29T2RHJ+MJOyIx0YXlS28l9/ieI7232cKPhoOtkL/kv5Mz28V9tjPdb5MC/sDOWtfTd9Xt1/Jz+ad9bd5mLODQwOVjnGBnlCQwga3UNczDHyx1pAijpc1t/PxRxPesINLSFodqk5u++mvW2O5ftMK5XFP8X443zSHk9l2YdH8P4dt56qTBUXCq+SJd+K/1ULZ15cIun1Jarfp2tLMvMer+XNBvvh202r2FHgq+mfi/IB6Kfz+GPKlARXdc1e4mRSo5SytZDz8UGW/+YetlAfm4/DImlQ3OY4KJbKuvDXG3zrKbkUoZSytaV8W9vHernHQs8n6DY6GaxXayjiLCVbd5DXsMNpm+IKr5L11HzFC6ddEiH3DiilbO0XfL/yJEmOZa/wNQminqrMV8n52OG+O+t71Dy9ZgnhoywRWLgqmUV3Pqf8pV85jc0dS1rKI1jcEEL9wW5qhp5NE2mtfoQUnfxH1ToA02gcttebZrB9le/b6p2Xb8VyJZLvKVISXNU1mhQnX/oTe6NgtxHt8//A8Lx0cAQfB5f8OYylP5pE/cFuRftvnZvNXJuEQpIguNxlIe0k0MikCN61KYii3Fmg7WLzrnYMu6TDCu3+HaoqO9Ao9AX2PpPf05byCBZ/OZnmPcP7fqnuPh+oIWYyDpnJUByU2iVd27qNX/lsecLWLnk/talY+Ys7NB9qV1zP4iALkOO27z1aGLPLc07sVbNM28VmmbfGrXOzWXfczPF0Jy/PM7z4jtyso+p0AnnPLWLqlAjUamCsku7GkAkxMU4smP2Z6dv4xrbVTL3kwmtgpM8FY0f0AKfKjCzoUbPlhyNMDgj8CqvfgmfeDIIAYHk/+gITExQD9UDF5m1gRl9RjK7pPge2goDHYrEQO7WbJ33caDBmJB2j4PVMwq67M1wU+Bu3LfDh31SETrvfvREPKoOUaLvY/GiIbwN1gSAgkCZqgrw0Xly4ieKfJBPZ18yvC44QiKEIfiBD8AZbXGInHY1iIkAgGC2sfgvBHiYrCPweKVnB5GGygl+TmspjkUH06WuoEBMFAn/Gy2QFgeD/Ay+TFQSCBwY1qWuWEMkA15pOB+REAfiJDMFTJq98i8UJoZib3vAqLlEgENj57h4jW7ujSLFty8/qJTP+Hn3np1Hgq1xBMH4s70e/cRJJW23SAAufppmhN4Jf6sa5bvdD6su8/dwiJtOHvuIVsaNA4F8kHaNgZwTVGbbt8dvI2ZKM6qsWGg/7KlcQCPydQUq0JuLenznkd/Ds7h40MyfSWh06/ikAAoGfYEs+YeAap39+gJoAHrcGwGRBNLOyjjJvDlh9DNY6+BgIBAJv+OBnUSRqr2Oota85j46mXzAunAkjMb4XQ61sLfNKJLFbRzBL9Hfq3ubluvGuhEDggs838foHZylpuGc3U+35BN1GX7X1AkEgEERR7kNUVco09Uyhcd+cEcwSBYIHiyvHinnp2HjXYnQIPM8CgUAgEAgEDyx+61kgCEiEZ4FAIBC4JsA8CwQCgUAgEAgEAoFAIBCMNf8DDpHQlRFeO1gAAAAASUVORK5CYII=;" vertex="1" parent="1">
                    <mxGeometry x="540" y="-150" width="854.29" height="260" as="geometry"/>
                </mxCell>
                <mxCell id="DFymFndXBQcYxfHrS0Dq-20" value="在给定UUID下的操作列表中添加一个新操作" style="text;html=1;align=center;verticalAlign=middle;resizable=0;points=[];autosize=1;strokeColor=none;fillColor=none;" vertex="1" parent="1">
                    <mxGeometry x="260" y="158" width="260" height="30" as="geometry"/>
                </mxCell>
                <mxCell id="DFymFndXBQcYxfHrS0Dq-21" value="" style="shape=image;verticalLabelPosition=bottom;labelBackgroundColor=default;verticalAlign=top;aspect=fixed;imageAspect=0;image=data:image/png,iVBORw0KGgoAAAANSUhEUgAAA+4AAAIBCAYAAADXgeVdAAAgAElEQVR4nOzdeXjU1dn/8XfCTEgmkISsECABEnYEAUFwFx5ZBFxLra22xQVUXKgiUguWIlpUtFQfEFxArf6sUrUVKEsFl+oDiKCg7GtICCEbSUgmIROS3x8zk8yWZCbJJAN8XtfFdTUzZ873fL+TCvc597lPUFJSUhUiIiIiIiIiEpCCW3oAIiIiIiIiIlI7Be4iIiIiIiIiAUyBu4iIiIiIiEgAU+AuIiIiIiIiEsAUuIuIiIiIiIgEMAXuIiIiIiIiIgFMgbuIiIiIiIhIAFPgLiIiIiIiIhLAFLhLi/n1vCzS1h3j6HvF3NzSg2lC9vuq/rM2m3evaOlRiYiIiIjIucrQ5D1GTKP3tDGE71vOdx980OTdN50OtL97OV1if2L/c9PJb3R/Vby0JJ1bu3p6K5T/zovnjq+tP0ZMzefHG4o99nJ2XzzdHg5t9GhahKmULz/JoXMA30Ndz56zbXn7+nY81Yj+fz0vi6eHWDjw9yT+Z3kjOhIREREREbFp+sD9AleVG83vftWGT+ptGcSBv3e+oIO7d2a1551mvmbRomiSF0UDtiD7kmCnSZVGCbFwQ/dyqnKjWXQBf68iIiIiItK0lCov0lQMFcRFQWWewYuJGxEREREREe94ueIeQdTP3qBXn4jqVypPbmTX0ucpAarTzjs6fKTnJIY9NanO9kmGjex6ex9x999P+7a2hmccU9dt1+1ZwrF3J5GZZu+trjT3usdqHPk6gy/v7NC+Hz2eWlvz49kTLtdqOda063K39PnQUaf59rFTRLqk4BNi4R9/O8GQKHvLIPK+6cCguZ6/Znv/dq7ZAta08hK3zADnlWoPWwR6ZpO2jlr6dW9f5/YAt3vy0N5Uypef5NL2mw5ck1fkkArfiKwG23UHnYynzyqL9Xnb+qzrmXrFtqWgS/ULTdCniIiIiIict7yIFGxBcvsTHHv759UBrXHkEnqMHsKudVuBE2S9OYYs8GmPe3DCCC6acRWnt8xm87qt1Z9NnTLDIcj3QeiNdLn/ftqbah+rZcO9bN7gcF9Ntse96b0zqz3My+LpITlsf8oW2IVYePduD0G7LRhMzo1m2mhrkGwN8DM5/LJLoGsPhiND+e/TSU577794qoJPfAogg3j0viQedRhD3XvcPbSvpaV9gqLNvniSbwt1eC2bo++5bkmoIubyTH4825a3RyfxFLYJhtuyefdAw1PhW/XMZl+Pmudkncw4wWeTbBMCbkE4bhMXjhMN9smQvG8SSbY9Z+trHr4nERERERERvEmVDx1KaARU5u6h0GEV2rLhPlvQ3hhnyF49vqafog84dRyCo+Jp3YDejJePp33bM2SvdV4xb5qxNrUquv/imHP18XXpfDbJudU7c2PYWlBFzGX5vHsF/PqpPIZEBXHgA+dg9NdPFtLlbFvecQhmy9a3ZcHWEFqlljLXoc+Ie0977KNoUXQArfpW8ewtp4jIjeYxh2C2bH1brvi0DUGxp5jq8qxci8t9+FU4hUFn6DOiohHDcJ4gKVoexlGq6DawzPqCOYyrRyeRPDqJ5JvjOIo1UE+2vzY6qSYYD7Gw7Kpizu6Lc3rORYuimb01hFY9ilR9XkRERERE3NQfpZV9S1nR/QR3HEHfKTRsJbw2Zw5QsM3xBYeVe591IKZLZypPbuTktvpb+0tQbD4L1+Wz0OE1zwXrvEzjLjfys0lxfPlJDlfOPsaVtrRqp8/ZiqKdPRjlVhH9nydCeLpVMZdNagfLAaqYc1Fx4BdQM5UxuGsQ+d+Euu0XL1oextEbSojuXIHjr/DZg2GNqgjvSVWeiY+aonAdEHpNGT2igji81n1V/cOvwpk+pID23YEmup6IiIiIiJwfvFhePUHWmz+n7Gdv0KvPCC56agTgumc9ANgyAzC37DC8ryrvA3MYEz5tw483FFOV246nXVfFbUXRWkU5p2jXCKr5nyEVJLUDGrEI3RxCr6ig7mFWERXrHLgHupDuFiKB7DrauE5GiIiIiIiIeBkhFFHwj5+zGagp/jaCi56ID9j94ecVUykrbyim6lRrimLzefFlA5847oWuMJBTAJ1Pnj97pMu+NnDqMWjr4T1rUB9EQe65FeCWHzBSWMt79qD+QPq5dU8iIiIiIuJ/DTgOroiCf9zD3t1FYIghNLnpB1WviNto19HltbLPKUgvIji2N5EtMSZ/CbHwj+U51v3rv0iw7lnvmcP2pxzWossNHDuF2152j8qNfHoghKAYM7c2ZD+1LS3f7yoM5BRUEd2zjJtdh9DdQmRVa3ZvPLeC3LKvDZxy3B/v4KYO5XC2Df8XyNsXRERERESkRdQfuEdMo/cTC4h2fC30WqI6R7gVrAOqC8wZUseQ2OgAuojT+w9T1iqOdr2G1Ixn2hjb0VzObQvW/x+FrTqQ9Avn8RpHLqHv6CEu7U+QdzQdWveig9t7gaKKl14+YS0kt8JadM21WJ1VEE9+3I7CVqf59XvFboGuq3eejeRoUBlXPnnKuWjd1HynCQG3QmwejmZzYg5l2xGapshauZG7vmpDUGw+L75cE+iGjjrN1zcUc3Z/RIMrxbcYcxhveph4iZiaz9NDLORtbtvke/RFREREROTcF5SUlFRVX6NW/edz0U0X45iEXVHncW/u57p7PPfdy6PYnM9eP0P26jvJ7/oGvVKOefi8+7XrGqvbue4NPsfdej75LW3r3+NuPf6r2ON7NUeH1Zx33vBz3G0j87jv3rvz1KuvBdjPG78mr4gfJ1Q4X7uOfp2u7+n4tGru55k7X9/axq2oXy3H0Fk/W0CFQ591PXunqvS2Z3lJhcuzq+vIO6+Ow/MwBtfvUURERERExIFXgbuIiIiIiIiItIwG7HEXERERERERkeaiwF1EREREREQkgClwFxEREREREQlgCtxFREREREREApgCdxEREREREZEApsBdREREREREJIApcBcREREREREJYArcRURERERERAKYAncRERERERGRAKbAXURERERERCSAKXAXERERERERCWAK3EVEREREREQCmMHXD4Rfdh+z7+hPBFC2ewWP/u/nfhiWiIiIiIiIiICPgbs9aA/ZvYIHFLCLiIiIiIiI+J0PqfLhDOjfhYiy3axU0C4iIiIiIiLSLLTHXURERERERCSAKXAXERERERERCWAK3EVEREREREQCmAJ3ERERERERkQDmfeAeM5Zr+kdQdngXKk0nIiIiIiIi0jzqPQ6u+tz2st2seOABBe0iIiIiIiIizSgoKSmpyquWMT/jyadHELt7BY/qODgRERERERGRZuF9qnzeGr7YWURot75c68cBiYiIiIiIiEgNFacTERERERERCWAK3EVEREREREQCmAJ3ERERERERkQCmwF1EREREREQkgPkQuJewY+dRikJ7cMXtPf03IhERERERERGp5v1xcDYxP3uSp0d0AqBMR8OJiIiIiIiI+JXPgbuIiIiIiIiINB/tcRcREREREREJYArcRURERERERAKYAncRERERERGRAKbAXURERERERCSAKXAXERERERERCWAK3EVEREREREQCmAJ3ERERERERkQBmaJGrRkyj97QxhO9bzncffOBV28jqF86QvfpGDm+r/SOt+s/nopsuJvTsCY69O4nMtCYat4iIiIiIiEgza5nA3RdFC9kzdyEAxpGvM/jy+BYekIiIiIiIiEjzCfzAvQHO7pzJDztbehQiIiIiIiIijac97iIiIiIiIiIBrN4Vd+t+8d4Urb6T/K5v0KtPhPUNt/3jHWh/93K6xP7E/uemk29/OfRGutx/P/Hmjexa+jwlHvu/mFDAm/3rdbGm0neueeGMy1hc+bJ/vuftzJ56JR3MO3n36SX8n+uNiIiIiIiIiPiBl6nyrYkf9yGxJzfy49znKbEH6XcshwYXf6vAknArQ7ocY//cMeQTQdTP3qDXuH8BDQveLRvuZfMGqJlEqL2tPciv2LeczfYCeaE30uXuBURvcw/2ew5KJc4ARHSh/4Bw/k+Ru4iIiIiIiDQDr1PlK086rpifIGvFWgpbxdGu15AGXtpAWNgxhxXxIgpWvUfW6dZEp97WwD69FHojHft3pvLkRvY4VrUv+xdHF3leod+3/SA5FUDRUXbuUNAuIiIiIiIizcPLFfcKSo5+7pzmXn6E0tMGYqO6AVsbdPGKo1udg+Sybykrup/gqGTCwS2tvqm06jGcqLZnyP3KPXW/Vvve5+mH3/fTiEREREREREQ8a3RxOnuQ3ZSCo+Jp3cR9OvUfF2PbUy8iIiIiIiIS2BoeuId0JawtVBakNd3KeOhQQiOgsiCbM03Vp4iIiIiIiMg5rMGBe6su7WnNGfIPflB3ux7DiWrrZachXQlr6yEtv4lZtu6iEB/30ve8ndkvL2bx/Pu4rKlTDERERERERERq0bDAPWIaPW66mJCT33Cyuvr7CfKOpkPr7kQNtr7ifNRbPUJvpMvdY4g8s5cT6xq2Z95rRcs4sbsIQ8876Tvaobhe6I10mbqAaA8fca0qLyIiIiIiItIcgpKSkqrqauA5+K7g9JY/scstwLYd6eZ01vuTVP7PcpIMjlXpbce1dXT+dMW+5Xz3gfMKvtvZ7I6czpL33Kedc1X8Wu7N7Wx6BzrHXURERERERFqAl4F7PyweA3URERERERER8adGV5UXEREREREREf9R4C4iIiIiIiISwBS4i4iIiIiIiASweve4i4iIiIiIiEjL0Yq7iIiIiIiISABT4C4iIiIiIiISwBS4i4iIiIiIiAQwBe4iIiIiIiIiAUyBu4iIiIiIiEgA8ylwT05O5uqrr/bXWERERERERETEhU+Bu8lkIjY21l9jEREREREREREXhpYegEjA69WL53/XnThK+O61jSza1tIDOvf1+e3VPD48AgoO8+oTu/i2pQckIiIiIhLAzqvAfcD0XD69zuzhnWAy13dg+IutgEpeW5bB6I5QuqM9vWaE1DRLMbN5cT5V1W0vcAmdmTnzYnqaPLxXls2/X9zCimPNPqomEMm9867iMmMgB41hTHjsSm7p0drDewE4gWCb3DBu28TvXstt6dGIiIiIiJxXfArcCwsLSUtL89dYmobFxJrZsdz3ff1Nw/oUsWSgd20vZGeO/MT8+Uc42tIDaSl79zJjyt6WufZ5uiK9+60vmfRWS49CREREROTc4FPgnpmZSWZmpr/G0qwqsttwIqyYa24vh+9D6v+AiIiIiIiISAs4r1LlfVLemu1ZZ7ixexkPEcIrdTRNnFjIZ/cUEl79imPqPRBbzuol2URvas+K9jk80t9CRUYsk5+FZxbn0sG1ffVnsujXtpY+zyHtxw5m1k2JhLuuDlen2ls4sua/zP1nSfVnqvc429Wxslzdv/0F1zR923W6nHTJDHBJ33a7Jt24f2k37q+l33qv68RDarvbPdnaxB/n1ZeKGOGwDaExWQ3W+2rlkj5vu1ZSYc2Ybc8pYc8mnktPdrg39++nmtt2Cce2ti0HcQ7tBw9n+dKaH53vy/0Z1XnfHrZqFLim4jfknujPpHn3MST6MGumLmBllaeLi4iIiIgEjgs3cCeIfy2JZOjifH75WDiv1BIwJ04sZM0YIw+NTmIDAFU8+kIWj4w6wSYcA+1KEkdlMnlHe4a/UcpnvznNS8+d5djSznw4PItHrijhoRcjrBMEKWY2L84lLiOWu35mYgP2yYHj7E1w2Xd/Dshas415wKybunHXTDPZ849wlDAm3NHbQ9BuD94q+O61lbZA0xoA3v/XNiQ7Bcb2tsEcWbOxpo9evZj3y65s9THQrUnP9m6Pe9aabTy4ZlvNOJJqaWgPMMsP8+oUW3+219zvCYjqxv1zLRxZs5FJ/yyxTTD045HJp5tlf3jU4OH8uW82/35mJSuO2QL/sZcyNd1537x94sJw5Cf+VP2sI7l3dj8mbt/CimOFvD5rJa+Dl3vcS1n54npWQs1kSy0t7de2bNvEJFt/1teGs2Sme7Dv7T0BMP46LokG6EbP8UGsVOQuIiIiIgHOp+PgzjuHQtl5vJLEK0p4qJYmmSsiGXC3yRa0AwTx0nMx/HS6knYJZ50bW0x88b4t6DaeofXhWCZ8bHvPWE7fgQBVPHpfIR3MUSx06DdzRQRv7DQS1r2s1rG0lNZd+/HHpRNY7vBnycyuTkFX1prdrNt/htZde/Lrm8JpP7YPo3u0pmDbd86rnr2SubJHMEfWbHEIqAp5/d0D5IS2o/egcJe2HvrYu5dZAbTnvs/YbvQMzubfixwmAU6mM3/pAXJC47lsjOsRii6TGXtPcCAHolISGNocA3bJHNi9+SQ5hJM62HGckUy43JpFsczpWRfy+tP+LkpovbbhyE/81WESIGvNNhZvKqJ1166MG+zyEa/uyWbVPg5XARxm3yoF7SIiIiIS+HxacU9NTaV79+6sWbPGX+NpPKOZsfOP4VRCr9aCdcHMWRPJFfcUWVfd/+njpWIqGElIdfBdcdLEiu+BVGvfp056WMWPtTCyq4XSA6Eu6flBbDhp5JH+xYy6JYJXPnb/aEvxLo27lJUvbqH9vKu4bOwI/mz73AKX1dc+wxKIKzvF1u0uKcynSsg3G+nSK54uWK9lbZvNv9cGcpXySC5PjeDMiWNsdQ1m957gQE53Bke3pQu5Nc+v7BR7XO+/NlEu6fzQ6IJ1Z05ku4/VVa8OdI+zcGTN0eYvjGe7duZ32W6/c7s3nyRneBdiOofDtppn6NU9VVvFi1NXNdVoRURERET8zqfA3Wg0YjJ5OhssgPhQVR4gc0Vbvh5byMg+ZxjpMXC3pcb3t7i9U1HYgPFFVhDTFsIGZJG2zlODc3n3gnXlvPvvuhNXls2G/+ca7IeREtMaQiO4/g8TuN5DD2dc21Lm3yE3VkIEMeFAce1NWrczEQ8NyxBooary7buGY6LO22rBaxtpFx8GeDn5ISIiIiJyjjuXo8QmEsyi3SZGX1fAtP+JcnnPfua7gZ1Lk2rS3m2F5Xo15HKFBvJOQ9Thc28ve/0iufeO7sSVFXOqMp7rp/YlzSnoLOVQ3hkoKzyHz4B3cbKIvBI879W2BfVnTprJbu5xncOyjpRgJs7je9ag3kJ2dmkzj0pEREREpOVc2HvcbXa8FcFPpyvo3t9ldTe2go4RUJERxcKmSl3PNXC8iIDcy944YUx47FIuiyvhu3c+5/n1mZREdeMul73w+SeLKXHdy+5RKVt353nZ1rM+wxJqCf+aUjlZp87QukM8Q1yL17ULJ9pkIXOve8q33yXE0rdT6/rb1SJrezYZZiOJveJrLSDnN7ZtE56uHZ3QhnBfthp41J9J8xazePFipk8IasxIRURERESahU+Be05ODnv27PHXWFpObghPbjYRllpMBw9vGxLMTBxo+yHFzOb3HI9x85V1X32JqYBpb5oZ2dBuAkyf3w7llh6tKdi2k0Xb3IvV2WWtOciOHCNdx17KVNcCYy5qbdurF/McJwRO5rIrwzl4dj/6zVEh3xwsgqjOjLmpYZMCNUpZufoYOaHWDIPq4nIJnZk5pTtxBems9XgkWdNxK8Tm4Rg1n51M59MdRbTu2o9HJjsXrbt39qVMdJ2ksBfY65vi/l4TXbv92ME8MDyCgl2HGpet0X8wKdHW/9lt2CQuVuwuIiIiIgHOp1T53NxccnMDuVBYw+14K4KfhpmdA/LcEMY9Ecvmxbk1Be8sJtbM7MTOhzIaHHRnroikz+dhrF6SxTKXfe4VGbFMdqpi3/KsVeX7Ob/oUMW7OkguOMz71cXoSln57h76zryYnmOv5CnsVdStR4h989ureXzyBJY7dVrichZ5LW0LDvPqE47752sK41XvnS84zKtPHWbEzItJ8HBPu9/6khe4msfHjmD5WPd78nguO/HO/du3Aezdy4ynSqzHvzkUkitwOMrMr/bu5aV/hjPrJvsZ6taj5l6IuoTHB9b34drtfutLJm3uxfO/czyb3foduQfOhbw+6ytw/A5wKWzoaULB4XfL8Yz23W99ye9PDna4J/u1V7of7+arncv5cGsK9w2JhnbRdAZ+aGSXIiIiIiL+FJSUlKTzkETkwjL+MRZdn0LQ4TVMXbAS/UdQRERERAKZ9riLyAWmP5OGpRDEKb77bJWCdhEREREJeKoqLyIXjPGPLeL6lCA49R2vTV3GD4raRUREROQc4FOqfO/evenTpw8fffSRP8ckIiIiIiIiIjZKlRcREREREREJYArcRURERERERAKYAncRERERERGRAOZTcbrMzEzMZrO/xiIiIiIiIiIiLnwK3AsLCyksLPTXWERERERERETEhVLlRURERERERAKYAncRERERERGRAOZT4G40GjGZTP4ai4iIiIiIiIi48ClwT01NZezYsf4aS5NJnFjI7nXHSFuVy5KBLT0aCUzR3PfsBJYvncCCu6Mb11X/Pixoin5EREREREQ88Kk43QUrxczmxblE7WhPrxkhntvElrN6SRb92jq+GEzm+g4Mf7GVW/MB03P59DqHCv0WE2tmx3Lf90068gtGpwlDeHJ8NMdX/ZdnVgbqyQcmbp5xJTekeP4dKj20k2efTyOj1nblHAzo+xMREREREX84LwP3zBWR9FkR2bwXzQ1h3M+SnF4aMD2XT0edYBPOwfuA6bl8enkIC0bH8gpUB/1jn85liYL3ZpLPkidXsqRZr2nmk+fX8QlgXfG/nEs5xF+f3M0PnpqXZvHp81v5JNP6o3VyYiTLh9fxGREREREROe+oOJ0f7Xgrgp9OVxLf5wwjHV9fEEvyzRHWoB0gN4R7P4ikxGjmmtvLW2Ckci7IWLmVZ1dlURqTwh1KyxcRERERuWD4tOKelpZGTk6Ov8bSaG7p5+YoFjgGyI7troE1s6MJfiiD0R09ta/ktWUO7wEMyCJtXc2PFRmxTL7bxIZ6xmXJM9TbJnO7kSIgqp520kiJyfxhRn9Sw+wv1JZ+bl0R71+wk2fXhjNtagoxtnfyvv2G6W/me32dmhT4xsvYls3xke1JTWnPxeQ7r7qHDOXeP/2WgeH7+efDC1nfBNcTEREREZGW51PgbjabMZsDd3/tjgWxJC+A6qC7XR2NjWbGzjdTuqM9yXeFVKerT3vTwO67TWwgmMl32VLfvdnj7qaKR5/Io1+oiTXv1/+ZxEEWIrzsWRohM41npqUBNfvi6xKW0p+np55my6KVTN9p/8wQ/pBdx17z6qD9NFsWfcGSnU05/tPkmSHVFE7XRPghs+at8HHXMjASoBt9RsF6Re4iIiIiIueFCzpVvtQxEM81suGIEUOCmYkNrkRfyWvLjpG27hhp69J5pH8VO5d5s2e9kjljCwnHwIHN3k4MSPNwDr4ztmVzvDSEjr3j6OSpuT1oJ4tP/9TEQTsAZZwsKIewcBJind8pWb+fNICKw+xW0C4iIiIict44L4vTeccfQbLDKj3WY+k+m3KMQ+PqSqmv4tEXTjK6I1RkRLHw4yYekjROXjabvQ2+TR34w4xupJpbqHhcySc898AnzX1VERERERHxM59W3E0mE7GxsfU3FMBa3f72/5gwdCpg2i2e2wyYnscj/S1gjmKhF/vlJXDF9OvmsHfeX0JJiAqB0hJO5vr7WiIiIiIiEgh8CtyTk5O5+uqr/TWW81JOmpGSWt6rLqZXSxE9ObfkffsNs21V3yfPSPacSt9YiW2JMQHmEo5k1ttaRERERETOAxf0Hnf/q+IXQ82EW0I4fsT5ncSJhbx/nRksJtbMVdB+vrAf2UZKf570Q/B+8diupIaVc3DTUfdU/JCh3PvnxSxe/DLTRjXxhUVEREREpMUocPfGoVB2HoewPkUs8aFwnTUN/iyZn7dzKlCXOLGQz+4pJNxiYs1sb4rXybkkY+VWXvv2NGFNGrybuHnGaB4Z2pa8b7d6rGgfcvEAukUCGEi9/E76Nsl1RURERESkpZ1Hxek8nLtOAdPXFTAd789c9yyYyXd14rVlGYydf8xaudulz+pg3PFj5igWjI51WU23V5DHdiRdTX9WBnYuTWSCitQ1QAip40eyfLzzq47nqFuPc2uP41b0ms803fFtP7z5LZ/GXMkNKf15+tlwW7E6EzfPuJIbUhyLIqbwyNIUt3ECENaeG/44gRuqbySLT/+0lU9qSZEv//ZtPhnQjd8OjCS4XQwdgV2NvxUREREREWlhQUlJSVXeNjaZTJhMJnJzVRVLJBCF3/wEL1yXTMX+f/LwQp0JJyIiIiJyPvBpxd1sNmM2u6foikgACBnKL4cmQ2UOW/+joF1ERERE5HxxHqXKi1yowrn5iRe4Lhkqczax6MG/KUVeREREROQ84lOqvIiIiIiIiIg0L5+qykdGRpKcnOyvsYiIiIiIiIiIC58C98TERC655BJ/jUVEREREREREXOgcdxEREREREZEApsBdREREREREJIApcBcREREREREJYD5VlTcajRiNRp3lLiIiIiIiItJMfDrH3WKxYLFY/DUWEREREREREXGhVHkRERERERGRAObTirs0jQHTc/n0unJ2Lk1kwsct3Wclry3LYHRHKN3Rnl4zQppmQNJIIYx6+Cpu7xtW/Up5xh5efPog+12bdu7BM7N6klj9Qhk7/vYfFn7t0i4qkemzBtO9sJZ+/M02zsidW3lwUVZzX11ERERE5JzlU+AeGxtLfHw8u3fv9td4GsUavHrafx9M5voODH+xlbXNNbBmdiz3fV9LH3W83xLc7sscxYKbI3il5YbUaPVPNFTx6AtZPNLfdWtGzXfpKnFiIZ/dc5rCWt73O1tg3LdtzUu1Btv1Kmf9y5+x3qHf7rU1Td/PH6ZYr5D8q8uZc5XJ56sFEus9RNfZpuRcDf41eSEiIiIiDeBT4B4XF0fv3r0DNnAHwGKqP+g2ltOxKxAggXntbMFrbyNrZibZ7sm6Qj59VTl9m2RyIZjJdyU1fqj+4vJ9Dpiey9IR90EAACAASURBVKejjnOoTyyT7zaxoWVHV63diIHMva0TIRl7+PP0mkA9+VfDufu2bJ76oKhFx3cuSXvvGya9Z/8pnN/OGcHVEcd4+9EdfNGSAxMRERERaSHa4+6kipEJFrCEsCsAgvrEiUXc07+KncscA/RgJs9oz09lZq570MzIlhxgC9ixIIa/7jRi6FTAtFtaejQ2nXsw3Ra0u66up723SUG7iIiIiIg0ygW3xz0nzUgJ5b59KMXM5sW5dKh+wVBLinfNfvFqXqa1W9O8CwmvTgUPYs7YQsLNUax3vU6ukQ1HjPTrbWbiQBMbnCYZXFLM3a7vYYxA7Sno7inrFRm1r3bXmdbv9hyh/5RjpE2pbwyOgthw0sgjlBHb9SzEnmX1kiz6OaSnh486Ttqomp+d9u6nmNm8OJ+q9R249Vix7Zl7aOeD5KviSKSMHZ97lxJvX51vU/1KBekbv2neAN9pX3wt1/cx9d8txb3Ei1Vyh2s0fFuBez0ALLlsWLiJdw86NOvcg2dmpXB24zf8JSfF6TvwlHpfe8q+aw2B+uoR2LIGnH7xh7B8KbW0tzMw+J653D0oggMrH+Qva7x5FiIiIiJyPrrgAnerSmvQh+c97xX5BuybAewBdfCO9iTbgroB03P5dEoGm7o6BpmVvLYsiw6rkki2B9q2QHX6J0AdwXt10O4Y5MaW0zHCeSw1bMFrf5eUf0srkn6ZzuTD7UkeHQKx5axekuVyfffUePvecE/P6bVlGYyON7FmZgfr87H1ueyT2iYEDOxcmlQ9qZE4sZBPny/nlRkhcMjEsNFJNc+wKQr05YYw7mdJTvdR/x73ShJHHWeTxVS9BcE6nmw2Pebr/vhwru0eDZZccr3YstxuxEBmX36aV6astAVptqBvxOXMpZmC9/DOPPREGVteWMkfDtoCVNfrRyUyfWYyWUtWsuBgzdjn3tabx2bjEmTaA9MydvxtZXVA227EQJ6Y2p4vatvLXR2011JMzyshjHr4cq44+S2TXnYY+6zBjJw2HFyDdwx0HnE1L1ly2fDCSt613/9VA5l7m/3+7YF4UM392Mca6johYLv32Fw2vPCZ9XVb29+/FG6buCjhrTkreQt82+MeMo6Rg6IASOk1FtYochcRERG5UPmUKr9nzx4++ugjf42lWWRuN1ITGlUytY8ZjGUMGHHWQ+tK5owtpHVGLFMdVmJ3LIhm3fFK4vuccUhVD2byXS5B6CETU/5jAmM5fQd6Ho89aG+dEctdjoFwZAUxbcGSZ/C4sm3NHLBPQNgYz9D6sMOqcW4I934QSYmpmFENSCtPnHiaKzoanFP1a+nT2jaYzPUJTs8gc0UklzRppXr7doZQdmxsRAE6cxQLxtfc145PTJygknYJnn4P6hAVSWwboNxMxsF6W3Nq4/c86hT0lrP+nd3sOm0gOrZ5isqFtClji0PwmfbeD3x5wkBCj3h62BsVZLJgpnPQe2rjLlbuKiWkXbhDBXtoN6IHgztUkL5xi1PwfWrj98ysL2gPzWXDCw0N2sFaxO9z5wmPgkze/HcGxcY2xLb38JGSY7z9oMP9f5VDJg7PPyqW/klhlGcc4d9f1/S54vt8cOnTeu9l7Pi7w7OyXz88nouvaOh9AeVr2HcUoJJDexW0i4iIiFzIzr8Vd6OZsfOPkeb4Wm0F62Ir6GgK5XDaWToknAWC6BVjgSrb+yll9O8YTPb61i7BcxB784yM9piq7mlMnovhhQwo5LNh1tX8lCYJbg0c2Ozcj3WioibDwHtV/GKomXBzG7dUfWufFXQfVg4fhzi0jeBVP1dzHzA9j0f6nyVzfXyjCvOVHgh1zoBwyAZoKcboNvQAvx/TVn4yh2+dJhksZOaXEtLFGpDXe/0QE51SgYMAIQzpF0Obkkw+8jZbICSG6bO60Tf4GG8/6M+CcwaiO0YAzuMqOXTS+ZoOVfl9Y7/3bH5wmXg4daCEIjqROqA9fN3Q6vHl/Ov5B/hXAz8tIiIiIueP8y9wr6+qfKGBvNOVpCScJfHaUjqVtOGZ/1iY88syHrLteLWvcicOshBBpdue6ZprGZ1/9rCH28rTY66g17BCAEprHSfExVQwkhC3Vfe4ZAvhBHPoiDeBsn0l2bfAvVeMBUwFTF9XwHQPLUpd2/qD60SMxcSamZ0C5qg+CgrJLQZiHYPZunjYj21TXuiH8fkixPke3Pfi21hKHH4wkhjtfi91Ce/Vjb4AJfW19JKHvfhWFZxqSH8Fuew8Vkrfvl25/oqD7Lelyk8cGA0lxxyCdNu9hyfxm6VJ/MZDV011iyIiIiJyYTv/AnevWVeJW+fF8OHnBn5zWy6jbmnDCYcW1pXlYK/OBXdKeXco3Gbfy+3OwM6lHfh8eBaPDPCwtzrXwPEi6BddQR9wCdxrqt8fP1L3XVonH4I5ddLXlXBbVkG78JY9M96b4/1alHW1mg62FOo6A3fPe8HrPafd72wBaHlOdbq/vTBbyc6tTKpOd7dNOvSotSOvlOzcyuw9HZh7WxK3zy4hs0EF6WzsRfZKjvH2lJrVe+ukg6c8eW/UTEYMuHMCy++0vlqesYc/O43V9t1H5OioOhERERHxK5/2uCcmJnLJJZf4ayzNytihhFu6VllTy3MNHC+qoPtVZjpGOAS5ttV5573snllXwA3sXu3L2eJBvPR4e/66sxWJo06w6THH/dXBLNptAk/702MtjOxqoXR3RL0BbVyyhfAG7Qe3FsDzeH03dYz1vFfO1p/yKCaU3temUmdMa9sP77R3OhDYxlWTQh5Cz5gwsOSyeV19ad4lfH4gH3zcz31q4/c89UEG5Z1689jsep5bHdp1DyeCCtK3HGm6wLlzR7p3qCB945dMmrKy+s8UtwmGcvbllfp8794zMPieZ1m8eDH/+7ux/riAiIiIiJwjfArcIyMjSU5O9tdYmodtJdsQX0znVvb929bAM6x3vtOxYuSG8ORmE4ZOuSx63psj5Gz7vgHrMWonnI9G8yiIlx5PYN3xSrfgfcdbEfx0uoL+d+WypLq4XSWvPZ9Fv1ZRLKpnX3zixELev87sVYDviefr+9Y2cWIh33l4dtZicBX0Gdd0Z9Fnfh7GkdOVJF5RwkNN1Kc3qou2eQhCk381nLm3RTi1D0mIY2iq7YfOPXjmOU9p3s0lnN9OsxaJcwvSjVH0GBxR027OaI8p/mmrj7DrdCgDfjGcO1JrXm83YiDzp9a+6n1q4/cs+Crf43PzjXNhveRfXc5LnlL8fezTm2KBtd17rdKPc+AEhPfuWn97wwAGdrNWlQ9OvYzfXORF/yIiIiJyXrqAU+Wdj1rb8YmJE9eZ3fan71gQS/InZjYvziJtnfN7jud+71gQw18TLDwyoKZd6Y72DH+jlM/uqW+nazCTZ7S3nkc+6jh7E2z95oYw7medreeoO+zzrsiI5a6bnVf27eN3Phfd+Wg2n9VyfcA9hb2OsU6+28MEwyETwx6IZfPiXJZVP1dvznGvZ7z3WZ+j4778hp7P7r1y1r/8Ges79+CZWb35/dLe1e9Yzwe3FUcryGTBX9vwzKyejHx8gnXCwpLLhhc2cuCOEQx37NLTvu22NX07njvu6bzx6hRvx/PMq/duO4+xPGMPf37QpdL9y5tInDOCq0dczfIRYD3r/UvmHLiIOU4Dtd3X9FxrGr39vrCfTV73in3ae1t5P+Yqbu/b2+H4NO+d2vg9CzqYmHNVzT2VZ+zhz/Ny+M2sFB96cpC+n9e+imPOVc5nrVu5HF1Xy70Dns+Sp4S35myEOSNqfgeo5Rz3im289dFAut09iKigdkR3An5s2C2JiIiIyLktKCkpqar+Zla9e/emT58+5/yRcOLM+/PPRc5/9qJ8QW5nrTvWKGjMEXY+CLmRGQtH06XyACsf/As6FE5ERETkwuRTqrzFYsFsri/1W8419gr1uV5VqBc5n9mOeKOMgztcswVsxeiajYHBv76ULlSRt/UzBe0iIiIiFzCfUuUPHjzIwYP1nnclASxxYiGfDgnjEnvqeIqZpdeZqciIZWFDU+pFzhu2gnNEu5/B3rkLV/cNczkSzj9CbpzBwtFdoCqPLa9O5W2lyIuIiIhc0HxKlZfzg/WIuprMCf/vARc5t9R2hn2JW/q8iIiIiIj/KXAXERERERERCWA+7XEXERERERERkeblU+CenJzM1Vdf7a+xiIiIiIiIiIgLnwJ3k8lEbGysv8YiIiIiIiIiIi6UKi8iIiIiIiISwBS4i4iIiIiIiAQwnwJ3s9lMbm6uv8YiIiIiIiIiIi50HJyIiIiIiIhIAFOqvIiIiIiIiEgAU+AuIiIiIiIiEsAUuIuIiIiIiIgEMJ8C99TUVMaOHeuvsYiIiIiIiIiIC58Cd6PRiMlk8tdYRERERERERMSFUuVFREREREREApgCdxEREREREZEA5lPgXlhYSFpamr/GIiIiIiIiIiIugpKSkqpaehAiIiIiIiIi4plS5UVEREREREQCmAJ3ERERERERkQCmwF1EREREREQkgPkUuPfu3Ztbb73VX2MRERERERERERdacRcREREREREJYArcRURERERERAKYAncRERERERGRAOZT4J6Tk8OePXv8NRYRERERERERcRGUlJRU1dKDEBERERERERHPlCovIiIiIiIiEsAUuIuIiIiIiIgEMJ8Cd6PRiMlk8tdYRERERERERMSFT4F7amoqY8eO9ddYRERERERERMSFUuVFREREREREApgCdxEREREREZEApsBdREREREREJID5FLhnZmby3Xff+WssIgGuFTdMX8S83/Zv6YGIiIiIiMg5ynTZfTzz1O309OEzBl8uUFhYSGFhoY/DkkCVOLGQz+4pJNxiYs3sWO77vqVH1DSq76v6lWAy13dg+IutGtFrK26Y/gpjuubz7fqdjR+kiBcGTLqah4dFEFxwhNdm/cQmS0uP6FwXzeRnLmN4bBAF2zczY2kO5/wj7VnGF89n0zXUwP7323PdW0qkazamBKb9aSgDIirJ+vobfv+3goZ3dXl/nv11Z0ob2Y80xBnWrjxJ7xNxDJ8cRmZL93lHAQfvLMJIOP/6ZQwP5zXJgCQgdWbmoovp6RCNpa1fw5yPKtxaDvjNVTx8WWTNimvBUd6Y/SPflLs0HDOY129O5Hgt/fibdZwGflj2Ba9sqWz26587TFzcvwvt2kcw9SlYNPd99nnxKZ8C90A3YHoun15n9vCOS+CWYmbz4lw6eOrEHMWCmyN4xY/j9J9KXluWweh2AXwPdT17DOxcmsiEjxvevT1oD97RnuQZIQ3vyEWrG37HmG5VHFw9i7fc4vZKXn8rg1GebspiYtWsWKb+APQws+WVXNpj4IfFidz4r5pml8zI4aOrgmranjNqAiFPGhwcjR3MGzcl4nGq5eguHvjzYUp97TMQXNSb5x9IxfhDIAeNScxcNMDpHxLVAnACwTq50Yrv3/yC//1W/0hovAo+/Hsml1ZEM+WONqz12KaSF149wc+7nXV6tXRfArc83Jrdrs1HnGbnE6eIrH6hcZMM1iA32aE/B2cL+O8r/2XZHt/7jf75cF4cGcnuFWt54bMGDa0ZtOaXs0ZxXWfP757Zs537Fh6vo52lGe/PFrx6+qu4MIp5kyJ4vcTapuNPHbj890aKaumj9vdbgvt9pa/uzBUve/578NzgxUTD8BK+m51HnOtfzNXfpesHKnjrnRNcGxpZy/v+0o57nr6My+M9//el4PstzFySzZmGdm8LjB3/iqwt2K5fOvOnpjv1W5sdb3/F3W9D9f013T9xW0Dd35FVCdvP0eDfu8kLM/+3ZCZ7f/Yk80YM57bbtzP3/fpD9/MqcAfAh9Xj0h3t6dWEwd25JnNFJH1WePynj/8cMjFsdBJgD7JPU9jo1XC7Kn4x1GzNIHi/Cb/XVjfwuzHdqDq4mpdW197Mkh7LPfeY+KLeDivoO8HMNf/ypm2gy+e1P6ziNaA64MtousD66Lp/86ePz9bf8Dy1Y/mX3L28Za593qxIO3H8fT1P7AvlmhuTmvmiwTx+f0ced3xpxGl2PnGSj192Cd5HnGbnE6XsmJ3End9CddB/exb/oWHBu/mbnUz7xjqD2qLBtvkkCx9f2cwXPcP/m7eS/wfVK/79Svez8Kl9/OSx+XE+eHh79QRM9M+H8+LECbxxVR2faWJF2+sPuiNiKmhDoATmdbAFr613dOAi+z3dUcDBO9P5sUMTTS68G0Xqu1GNH6ufOH+f1oB/1sdmrn85gZtXB8LkxSnemL2aN4DqFe3ju3jo2cMUN7Ln8Y9ez609W7kE6u245+nB/GLtFv7ebJMT5zrH7wjo14vnpnYnZEcjJ1XOQfn/WMLGHvMYMfw2bt8+l/pid5/+xjSZTMTGxjZmfCJ+VEWvGAtYQtjVZGn/wQz87TC6VeWz9bM6onYf+ss5GE555wJ+d2MTdCciEgg2hrPucCvCOpu5Ldnx9bb0Hx1vC9oBgnl8YQxHyiro8T9mxrTAUC9k+R9u4rENubRKSOVXdwZucFhteAWxraDwhCEAgvoK3ro/n7iMOEY7BujvRjHty1DCB+Xx9riqlhxgC2jNmGdjyDlbzqAby6h9vfjcN+A3V3GzW9AO1iBUQbs0VD7/WLKRDEN7hl53bb2tfVpxT05Opk+fPnz00UcNHt65pHqvtGv6fGw5q5dk0a+t697pKh59IYtH+tesUVVkxDL5bhMb6urf/oJrtoAtrTzKJTPAdaXafYtAAdPXFTC9ln7d2te5PcD9ntzbW1P0R1bFMvlZeMYhFb7hWQ2266aGs+DeUMYsyaJfW+s7dT1T79i2FHSseaXWPluNZ+TgKKoOrvaQIt8w5cdNZLcvofvwcvhXXc+miukvZvFQP4dn75h6D3S+rZB1d1r4fEEEXR/Kom+bYI6v7cDDxnw+Glnq1r76M3c5/941S4r+2MG8cVMkP7z5BWlXjuWWHvZ5w2zWTtvCBw1Yop/w2Dhu6RHsvjpcnWrv2rd7an9dK8v2/qu5punbrpPukhngnL4d5b6dYNAwXltKrf3We10n7qnt7vdkbZOwczMzjiXxqsM2hIZnNdiepeGoS/q8h8yLhnz3btslHNrathzEOTyiwXePY/ndNT8735f7M6rzvt2uXcI211R8P/w++8Qt/TyUr2Y7BsiO7U5z8v32LEvJZv7Qco/tb386y+E9gHyWrsuv+dHclremteOPafWMq8TIpvra7DOQXQpd62nWeNZ08REh+1n4lwp+Pr8P9szxmpTyBmiXwlyHvmpNP7etiPc6vp1Ht8Y4pPd7uSfe4TqNGq+L/P9kkz4ylsTuCfSjoFlW3WvXiqxTQfT28VOzFmZwb2+H/z+m1ZLiXb1fvIZ3ae22NO+EqppU8JuLuSKhivTVoW7XWfV5OHOuyCP1igoiVrusurukmLtd38MYgdpT0N1S1kPYXutqd91p/W7PMTmHTeu8GIOjTQZyz0JclIVx4WGceCSbl68uc/jvZwGzPi5gVvXPznv3Zy3M4N7ECOZNMnH5q7Zn7qGdX4wZzOs3R7Jz2RccuXwMt/a0jzqHdY9udgjG2zEktS3BBUf5z0rvUuLtq/M1XPv0P+d98bVc36fUf/cUd6+2Hjhco+HbCtzrAZDmnklhvedy/vPoZoqnOH4HnlLv60jZd6shUE89AlvWgGNXg+4ax/K7amnvKH8j+zNG0CmlL9fyOZ/X8RTOv1T5JpS5IpL/AT67p4BpbxrYfbeJDVTx6BN5HoJ2WzAYb2LNzA7WINkW4C/7xDXQtQfDZ8lc35E+Dnvvv37SzEgfg9IdC2JJXuAwhnr2uLu3r6WhfYKiVRQLRtv6s702fVU5fV22JBg65bJssYGdS5MY9rF9giGbTY81IhXeVMD094LJXN+R5BdbVU9mLHrePiHgHoS7TVw4TjTYPh+XEctdo23P2faa+/cEwf3jiKaKQ/uaYrXdpjSEp7aE8dFVRSy6uLaAuYrpL2ZzS0Y8yY/Znl18Of9+NYvx83LBMdA2mhn/+3J+WNyZV67K4r5Lc3nHGMZzd0Yy/tUsrv1FOfxg/Vv7khk5fDTyDMfXdqTPX1pRPTnwXCadXPbd+0c4g+8ex+Cju3hgymFKbcHfmDn9ONaAvdMrX1wNj43jlkHDePIWeyCWxMzxnoJ2W/BWfITXHrRd66LePP/AMF77vWtgbA/0nPsYMOlqpt+SxtM+BboO6dle7nFf+eJqVjqOo7aubQHm6e2bmWzvb+xg3rjJ0z1B1KBhvDYom7XTVvJBqW2CYfTVPJjRHPvDvf/u7RMXTsH1Rb15/pFufDr/MKU/7mHG/dZNzN7tcT/G/KnHrP/T9sxqY712KdveXF3d34THxnHL3eP4YyfXYL9pf599srEt/TdaZzOtQXddjSvocXsG83OimTK6DWvt6eq/P8WfbMH4+7Pb876tbf173N0Nua+AG7sFsf99U/2f6VlBfBhw2svOG6lVQg8em29h94qVTPrMvkf+Yv58Z0nDCsGdOsRTUw4BNan6dWndexCLehTw34UrWbbH/plhPH6ijvR+e9DeiD37tTpTTH4RdI4KpxO0cOBuYwv6PO95DyHnkL2hPaA2OQR11s9s+tAlyLyjgINXteaq0UnVgfashRncOy6dr6kreK8J2h2D3PFJ5QQ7jcWBLXjt7ZLyXxRRxNdzDKz6ZRIP58H4J7N52fX6bqnx9r3hHq5jC/JLt9ek6o9/MpuXH07n65RaJgScJjUqeOudU7wcE83DeTBvWifmUfMMm6JA36pn41n1rON9eLHHPdIa3Bdt78BFvzZSZBvPja8a+dHv++PDGXTXOAal7eKhKYcptgVzo5+6iHR74NYvge6xwZBewg7XYnAejH/0ei5JW8+kl+xBmjXoG/3SMGiW4L2EiCGjmVa0h4emfFVzT67XHzOY1wed4ndTtlUHv+MfvZ5bR41lDi5Bpj0wLTrKGw/VBLTjH72ayZfm1r6X2x6011ZMzyudmbmoI0dnrGS+49hv7ssrT+JhG0Qco1+aYA3sHb7Ty+8ayi9+st+/LRAvdrgf+1hdJwTs957u8PqYwbx+81j+EmebuPhpL0/cvxdoSIG+fDbuz2BEpxT6Xguf1xG5X9DlZ8MGZJG27pjTn73PO/9GZa6I4I2dRgyd8pn32FkSJxZxT38LpTvinYLRxImnuaKjgZ3LHILZ3BDu/SCSElMxo25x6DSllJ976INDJq5o1Epy0xrw2yL6hZpYM9chmM0NYdwTsZwwmrnmdtf/9zkXl8v8PIwjpyuJ73OGkQ0ehcsEyaFQdh6HsO5lPGR7f/JdSSSPTiJ5dCfWHccaqI+2v5ZEcnUwXsWj9xXSwRzFQsfnfMjELW9EUmIq4pePOQdkQZ3bEVV1ivz0Bt+AR9/9M5wso9kaVHsUxILHErjsLw6/H9khTPkwkhJjOZ2SnVtb0qP4iy3oNrY7y4F3Ilhsey8ktoJrAOLLmXtpKSXfxzv0G8SC52LYVVxhzQBoDk6rx/lsOXiayqh4Bg90/89Rl9HXs3zpBKc/f7zFeRJo5Ys/sq8Cuoy+hNvCYMJjF9HTUMK2N7c6rXoOmNSV7oZs1s5xCKh+3MN73xZR2SWOG8Jc27r3sWP5lz4G7f4UzeQrOtDq6C6edJwEWLONVzYXUdmlC3cPdX2mzhMRO77LJq8ynJSBMe6rPf7gzXd/UW+uTLVmUTzr+Kx/3MOM+X4uSmi79tF1XzpNAqx8cRObcqvocmlvhrs+KB9+n1tUjmMgHsyHO8I4YyrlsmsbPmFz+9M1f4f+4+Ziir+O92rP+u13FNA1FPL2hXo9MdA4zivi5u9PcrQomLjuCfRrjsu7BN/5/8kmHSMp/Tp6bm8P2s8c54MHmjhoBzAXkF0IGMJJ9HWpu8kZOJjvGGyWkhoCESml3BbuofkdxVyRYGT7y9EOK7GtGfNBBJZIM9df45Cq/m4UqS5B6Lxpcewph8gOFUR4HI89aDey/WXnQPji+HJaYSR9s6eA35o5YJ2AqHk1op2BVQ6rxquejeark0F07teQtPIK3hp1GmOac6q+5z5tbQujmPc7x2dg4Le/jm7aVWzbdoaiQ2F80IiANH1155q6AbTm60PBEGnhIk8TGE3NKVA7xdaDp6mMimOQ/b/jncKJDoaC/GKv6r6seunfLiur6cxfmUkFJuL6NcffDeG0K9rjdE9vfHCI7Mo4eo1xWLNdu417XYLeVS9Z/00VGRdNa4fXx4/qRnxwDuvmOgffq176sv6gPW0XDz3R0KAdrEX8XCY81m7jX/vOQmQ4AzwkrxZ8v4X7XL9Tx+c/Jp4UA6R9u6dmXGsPsyW70q3P8aO6WScsFjg8K9v1o7omcEkTlNUqy8yniFZEt6/7cLjzb8XdaGbs/GM4ZerVUrDOuzTuIF56PIFeyzIYPeo4m7ClVTt9zlYUzdyG9S4V0TO3Gymigu7DyuFj62cG3GymQ1MXUGtylUztY6biZCwrXPeL24LnkTEVjCSkJgD2cP+NZgllx8amKFwHxFoY2dVC6YFQt2yEzM/DOHJbISkJZ6E6wSuY/nHRgHf/sDV2zuXtdc6v1Vqwbn8YK34y8lA/66q7b/XHKonr5jzO7F2t+QK4BMASQoaHVNXO15bSpY2BA5tcfu+yDRw/DX27l/EAIdUBv78c3ZfmdfDlXRr3MeYvCef5B1IZs3CC7XNfuqy+RnNpaluCj6bzqcvFd2QVU0Uivca2go/POrTdzZuBXKX8ogRSo4M4us39ee74Lpu8oanEdAoCx9Tpozlu91+bKNd0fhpfsM6b737AJfHEBGez/p3mL4xnv/a2Na6/c9aA/NJh4SQZcFpJ9+X3uSX5I0iuWaXHdixdJmmf1J1SP+S+fP40tBzMbVn5TjP9E+RMNj+2YJX4s7nZfOtt8N26E3PndyXx5H5ebKbicf4WMegEP7r83VhbP7nNZAAAIABJREFUwbrxSeWUHGnD2SRbwJZiIaoV2OfOZ11SjLEwgn9/4RI8HzJScLbIc6q6pzF5LIZXwV/eyWWY02p+I6WZmO/Uj3Wi4tpEe4aBD30NP0O/2CrS17qm6tv67G1mZkyYddzVbdv6ebX6DGufzCOuOIp58xpTmC+c7e85f6c12QD+l7bvWKML13knnJhOwdAMldLd7umnEk5VQkJcNK2pvwBcVHQbjNXtOtMvpRUF3x/mE29/ny4axOtDOlDc2Cr+9YkKp7MRcJoUKOHw97lO16ypyu8r273/eJLvXCYe0vOKqexpneD5ppHfqXlvLkUYiItJhDoOhvPpb820tDRycnIaNTC/88uZ5MFMfibWeoyZxcR//td1VdxWFM3kkqLtoNSh7cgECzTP+lbDxVbQMQIorL2JIbqCPhAwGQL1iqwgpm3dTYyukxE+8L6qPEAQC5ZGMvGVfAZee9Zz4G5Lje/bxvWNYBpyym9CcjnhVHDxA8dIe8BDg+b5W8s/ftzDe9/GW888P7qL592C/TZERwVBbF8WL+1bT2e2toH+PDqZiA6Guv4OjYqLxkjDAuCWqiqfFN2GYMqa+areXjucuIuCIZAndFrKvlCu+Ws7dj5xigm/bssfn/bwz4sRp3nz5mJaE8pXf/Ziv/wFJ5j2Q6w7//2a12OKIj4SqCghs6lX8z2or6r8D9khnO1t4aLQCi7vVcXhDyIovO0Eg34VDflA9Sp3BanRVdVp1bM89OV6Dbc93HVJPsWwOt62j7PzsCpw209+lvbtquCEkdXeBDb2lWRfgmrbJIZxXDpp47xrm+VD995ynYgpckjbP29llJBfCfFOwWxdPOzHDhBRLvfgvhffg37htPMpUSCcQUM8pcw0goe9+I2yNptDExLpObQ3l6+0p8p349L4YAq+dwjSbfceNfBSliz11FHzViX06f7NZjNms6dz0s93lbz2h1w6WFpTUGZm7FNFPOS0FzqIvXlGRrcLD9zz032Va+B4EfTy9J4tqK/IN7if1xvICg3knQaPdXRtQb3lsMEhaK9kZ04+tXyi8faHsvNEJaOuKGHiFpf37Ge+F0fx3OiatHdrYbmGbQw9mRZCCRYONMte9mZ2UW9+NTSColPFRHTpy7NTTrsEncXkF1RB8e5z9wx4Vxlm8mv796gtqE/PyT/PjnPzr2P5xbXm11iD+lxyflTQXqvjRvLL8JyCXF1Mr5YieoK9aN0LZ3rz4sgePDituMkK0jlp3YboCDh7soSMpu+94QafoV+sgf/bbGD9gNa83K+MxK8cG9hWlr06F9wx5d2xcJttL7enj6TFMXx5JZ/OzvO4t3rVsRAWUkRciofP2tPF8wz1zPnaJh8Kjfzo6/zkISMFZ6FsbcueGe/N8X7nHdtqdbwthbrOlG/HveCOe7rrOafd72wBaE26v70wW6lL0TbbpEOjLmYtBHfk8jHcOvBSfn9rQwvSWdmL7BW5rN5bJx0a2Kl9MiKqC/e80oV7bC+7FZCzfff+PqrO1CuWCCo4lVd3hYkA24QXiKp49IWTjO5oYOeyBMZ+EEmJqYBpb5od9m0HseGkEVz3snsUxN+/NVFiLGPAiIbMqdvS8hvwSd9YJyMMCWYmDnR5K7KCmLbBZO9ufe6stkP1ZETN/vgaiYMsRGDgwGbnNPKq9FMUBLUjdVB/PwwomLlrIilpU8xQlz3rnQdaaEswx78Ob7LU9fTvjZymGfeyN5skZt6XSlzRET6c/Tn/3F9J1KBhPOm0Fz6fE/lV4LKX3bNj7Dpc6WVbT2yp9g35qC9+tK4AdOmZjOswB7RvQxDZ7HVL+W4GY+NIbcSU+MrdWZwl3rp1oZlZt014unY0HaKDfNpq4EnwhOksXryYxYseo74Fs3PRkGvNJIYayEt3+e3vWcYXj5wiEgP7349V0F4P+5FtrXsPYsm0WvbBN5iBq27vQmcs7PvKQyp+8i95avFiFi9+nil1LT83OQsDbiwhOsOaWr7qWAiVyWZe7l5OsEOQ+0N2CGdd97J7ZFsBT4tkqi9ni28K55KnY8hpU8Cs5UXc6/iPrXfDOFiOx/3p468tIbpVOJ8vqC+gtY6rQfvBbQXwvNofX8dYpSHS+enQWYjqwnUT6vkLzrYf3mnvdCDoFE50sGMKeRtio4Mh7SjL60vz/ukkB3Irfd7Pveqlf/PRvrMkjxrLnFsb/g+DzjFtCCaHLX9rusB5wOB4YoNzWPfoSiZNqfnjPsFQTG6+7/fuq9DEaCI4S35W3Qe5K3Cvx4DpeTzS30LpjlgmfOxerM5ux1sR/HS6gv535bLENdB1kbmiLV8fryRx1ElWOhWtM/O144SAWyE2D0ezOQlm0W4TeCiy5rsgXloSyQmjLcPA/nJsOaufy6WDOYL/19BK8S0mmDlrPEy8pJj5+J5CWmdEsdBlj37lzhzyCaJddGfXzppE+gdt+ebE/2fvzuOjqq//j78JCUgCZCEJIUDCEiCBGJagbAoCLQEp1qJWavsrUhEVxAX4qq1CK6hf8etCRVGUivRrXWrx24rIUkXEBbAgWzAoYQmRsCRkgwxKQvL7Y2aSmTszSSaZycyE1/Px6OOhkzv3c+5MpJx7z+ecCvVIcpYNVCq234/mxnIyd4T/3HaMm7ss++rDBp7Wl/f7S4O1xorSjMfTzM3oVn+jreWOzeqs1mw8rPzKWI3/U6pjgzEDV8f2nzZK821vCKzLV3aFbfLsOG7Ozr5Tyi6sUsSgHprcoJsCto5p3Y5SVXbrpyfuiKnZfDMhXbOHtlfp14f1nldLC5w0YnMYo9YA647oq4IqdcsYpbuvtG9a99RDPRxuUlgb7KWP7ebwM0+tPWnuMA2LNmnnx0cbUa3RQmkxlhEeLXpo2DRv3Az0hGD938FWUkyp5t7qRnWBpQy+8tsOute2QV2fH7T5qdPqflmwvnsrrl7N6yAV/v0/WrnH5OHkvbVueWSCpvW/TCc/3+a0o31Uzw4y785qq5TRN6iHh1auzQfHWqlSF9Qt6QflZVr2b7/RRtkXynTF0B/s/jz54IlwfXfhggbdU6jnO9Tj5IkmPWQ9bliZdnxoPxrNqa1hGvxme5WHG5P31nph62W6mJivDf9dXlNZ8ptiLRn1g/LW1tX0rUKv//W0UlrVJ8F3xsX6bh1bodf/6uyzszSDSyzRix6bRR+sfxxorYvhxZp6W+DPt7c2bXNMQiM1fdEQTTH85SyxT4KsOx37Tx2pv3iyzNtdqcla/PN4BTtL0hNj9bMwm+NeclbiX6QVX5xURUQ3TZ/XQ7Y7OH82Z5RmD3H95/oHz27VF6crG528S7aN9SI1fdHEukv861SfZoGur92VPTtPq6AyTIPGdqvX8VKUxvTuIv14SPtrmwUnN0vlw8PDFRERoZyc5rExzdxV3vCizeiw6nnnpgi9WN2MroWeXdxBY18+qdRxJ7RVlo7nBa008cau5sS6zuZ45k7o/ecV6P07jinnDvu1a55iB2nGA3Hm8WuWvfMV30frdzOlx5cVypk9T0frOhXo/XHHlTPO2fq1j0+zm2d+KFRDf22/vmRu6pfYoNnsqh691snmpbDqWO270ntD3rvh6vt1iHn8W/V3bx4319PZjYiLH+jjnUN1+6BhujXNc7Pca5ifuo8wJOS574Trt4kXtHpsTcO78txoTZ0dpsVLnX/3dWuhp+d20js3l2jD744rZ7x9HMfXd7LvYl8vThLVbjX7yBu7T7pbxrVamWF4sbqLd83axV/v0/LqfcfH9OQHMVpxfbzGLxkiWbuo78vSA3ed0ozHh2vGC901w/acxUfsZ5G7OLb46216wG7/vLUxnv01z/g8QS9d72xEVKFeefhL6fHhGr9kkqq/ArvO5I4zx119pntWfqrbTlrGv1XvvSqzG2XmTXtWfqp/RplHpZlnqJ/W+vu+UPgjwzWswWc1j8/bPm2U7rGdzV58RK884mSbw74sPbBMdt+BZGhs6OSGQs3vlu2MdvPaJ+baXpNl7bsbO96tSrtf36bDgyd4JBlynLsujVxk+f+e+s5cd+Gt+XHSopN68lffK+dXlhdtz1mdjNu+6zJtmZ/g8DTd2kHeOpKu+nwWZz6P1yBn++FrYR7nlijb/8L63jRJK2+SQwd394XUnMuG7Rx18zi3aLufe259qwptWfa5ujwyTj9NGaQVC9tqyYJvlWmZTf9T23vJ7Xtr7vLeDnFKklp31s3LO+vm6gs5rnfu+Nplo8LCTe9r91UpuiqusfE3hO2oNXMimeKwP721xk9KMO9df/OYfm73M9u53601/okO2jH/jH7+ZpnluDD965Z4tX/uhEbXFcobEbov4YKeH1WsR94r1+WW837wRKw++KRMO+bb7vNupa+f72qYo26N3zAXPSdGwzIaPm7N+fpmxhJ217F21K1ObjA8dl8Xacn3uv2eXOXcY3mxPnPc64hXMo/Aq9mX7+357E5mcyf201Lr/4c2uFlarp6clWsu2x43QSutf8e2lIWvsH5G63fqhY5humd4zZrK2a/ZS09r/qxe9qd0sm87sfrctnPHnc0btynxtu2Kb927bRejuQR8mrHT/UthWjyrlzKenSTzX7XytWHO52r70HCNMF7++p26ff1pPfTigJrrspz3T7U+sS/Sivl7Ff3iAPUZZzM+rZZ3GH3w7FbFLRquETbXlLNxnZa0Ha57hrtxIht7Vu3T1qThGmGYtS7JcYa7i2s3B+I4S16ZB/Tgi9LiWf0cPytnWwaixqh3F+nHb/bXOsNdklokJCTU+zZYSkqK+vbtq9WrV9f3LUDga3md5i0dr+7ZazXrWQ/OcwdwiQnSpHkvaEKPKh1aO0vP8McJ/FDiLQv04FVxOrfnr3pg+TZfh3MJcmP+OYAGMe+P/8Gwv1+uexR4TZRu/MNjGhN3Up+9uFBv1V4pT6k8UKeLH+jjncVqkXStHrvVX8tbAfi7FgNu1dAeUtWhD0na4Z+ixui6AXHSuT16j6TdRyz784vr2aEegJvMI95UnK+vdxmqBSzN6JpK1I13akyXCp3c+k6dSbvUHOe4Ax5XqV1/ma/1kUs1/so7NCd/lnjwDqC+Wgz4nR6bMViRqtKhtTP1MH9+wN9EjdHsh25USlvp3J6/aiZJexOp0Ot/LVXp/TX74x9Zkq+UVq309b+M89oBeIa54VyfWMcZ7P2ndlevYKn4iOPcdk8LHX6nHhjTRT9+864W1idrF6XygBta6rp5jyop6+96dq3HN7sDAIBLjmVEXXXrIG/vAQcguZphX+ZYPu8VoRp+5wJNid2jFxe+pfql7W4m7iEhIQoJCblEZ7kDAAAAAND03CqVLy8vV3l5o9rqAgAAAAAAN9CcDgAAAAAAP0biDgAAAACAH3MrcY+Ojlbfvn29FQsAAAAAADBwK3GPiYlRSkqKt2IBAAAAAAAGzbJUnsoAAAAAAEBz0SwTdyoDgOYnZepCPTtvkrr4OhAg4CTrlgWP685hbXwdCAAAaCC3xsEBfi8jXa9Ojlew8rVh7ja9fc7XAQW+iXOu1Y19Wko5+zX7icPyxUeaMnWhZg9pq8Prdul7H6x/aWqv38wfobFdgnV2/04teD5Pxb4OKdD1StKie1PUJeS8Mt/eomc+udA06yYPUlJMpOL+3wLdqYV6eev5plkXAAB4jFuJe1ZWlrKysrwVCxojNVmLZ/VSrLMaiuKjWrFgn774scmj8oCuevCFAUrO813SWLdITV80XCOcfvh+eAPBcnPj+Mb1+tPqcl9HU7eUqfrVkGgV7Viup9cY0vbqRMjZGxueHI2e9VP9Nu0ypz/L+/RjPfymye1z+oM+U4Zr7uhQfduUSaO7ru6vF36ToDAnP/K/GwiWmxvhJ/Tmot36d4mv43HhwJtaOPukZi+5UWnXTdWw3S+L3B0AgMDCE/dmpnjXdj308mkFZI7uCRt26vYNO32ztg+fSHvT2mc/1FqfrZ6iqb8aouiiHVr+2h7HHx/M1vy7s83/bEn4SjyWWBdq88IvtOq4B04VkEr1xqJ1esMnazfxE+mmYvv72uQ2aen7/bTkxjRdN3WYdr+8VeTuAAAEjma5xz0rK0urV6/2dRgAGilu/HilRf+gw9s2yknaDsAdm5bq/awLCk+7RhMjfR0MAABwB0/cfSlqjGY/dKNSWh3TR39+Uu8d8f6SaVNH6t7h4QoyPh2uLrUv066Vm/X8tsrq91Tvcbaq5cly9fmtLxjL9C3rtNpjqAwwlG87rJnYT0uX96v5d8N561zXjpPSdodrshxzPkuz32+l+TbbEBpT1WC+rkJD+bxlrVbHamK2fE7nP1qv99oOs7k2x++nmsN2CdtjLVsObErKE8eN18pxNf9uf12On1Gt1+1kq0aOsRTf7WtKUcbwXmpTtEP/NpbIN8DoWT/Vb7vn681FJ5X6xyuUZq3FzjugBY8eVK7bZ4zT/c9eobQwx6fD1aX2xnM7lPbX9mTZev6aV4xl+uZ1TIbKAEP5dqzjdoLUKRlaOcXVeete145DabuTa7q6v174TYyOvL1FX/cdZbMNoRFVDZbPMvw7Q/m8k8qLhnz3DtslbI41bznooJqPtKtueaqrbqn+d8N1OXxGtV+3w9pncx1K8Rv6+7xp/yFdl5KiXmMjpX8UuTgKAAD4G7cS9/j4eMXHx2vHjh3eiueSEjWgn7q2laQ49R7YXTri/cx976ot+rNG6t7h/bToznOWRCxS02/u6SRptyZvZ2wSTXMCuHRxmCExth57XrtWrq05R0a6np4Wqx1uJro15dn12+O+d9UW3bbKJo5WLg60Jpi5+zX7Dsv5UpO1eFY/J9ck8w2D2WXatXKtHtxWabnBMES/v6Fp9ocnjhuv+4uPasU9W/TFj5bEf9qVmpJpv2/eeuOidNd23Vn9WXfVg0/004hd+/TFj7lafLflr/L12uNepBXz12qFVHOzxcWR1rVzN67XNMv50qaO1L3jxuu5GMdkv77XpLhERYVJRft3eu5peztzgpX36cea9qapOvn7r3vKGrB3+qSem/Mfc5I75QpN/c6SiF3dXzc4S9otyVvl/p2637JWnynDNXdKhh7vZEiMrYle3gEtmGM9R3v9Zn6apnbe5l6ia1OeXb897if13Jw1dnG4Yk4wq5T59obq842e9VP91tk1qY1Sp2QoNe+AFtxxULnWGwz3D1BeU+wPr/d3b71xUajNC/9d/Vn3mTJc0285rj++adK3b3+pGW9L9d7j/tke3f2Z+bfY/Jm5CtKydmWu3nzAej7za7c8FaZ4Y7LfkN/nTft16LoUpfQaq0j9Q6TuAAAEBrdK5cPDw5WYmOitWC45hbv3K/ecpAsn9d0uzyTtEQOH6OXlk7TS5n/P3Rmr1jbH7F21T1tPVypiYKruGBqktKmXa1hskHI2fmb/1DOjh4bEnteulV/ZJFS5WrwmTxURMUofGGQ41sk5NuzUPD/acz9xXA/Flh7VimdsbgJkHtCD/8xTRUQ3/fRnxi5nhpsZG04ru1xK7NNVbZsiYEPlwNr9p1ShGCVn2MbZVROuMFdRzLf7rHO1+A/ebkpoXrt013b9t81NgL2rtui9by8qYmAP/cL4QdXrmiRFdlRkmx9UlH/GoxHbPT0+eFrfnqpQu4RYXRFuPDJK1yyw/29p5fIRmtrZ9piTeu7/jqlMUbpmei91VZzu/0WCws7m6s0ltk892+s318QrLO+A/scmofr27Uxt+b5C8b06q6vxWIdzlOqNRW4m7d7UK0ljUi5T3qdf2t0E+OTF7fr4+wrFD+qtnxo/U7ubGaX6z8ESlbeLVtogV7eFPKs+332fKT2UEnZemW//x+6z/vbtL/VHLzclNK9dqM3P2d4EOKnnXsrS9+VRSr8hXhGG99T/97n6HTpTeFFqH61kpsMBABAwmmWpfMBUBhRu0tIHNnn0lPUr4y7Sivl71eGFARo4baIGWt7334anrxP7dVRwca527jKUMB8vU2FlvLoPiFbrbea1zMce1b8/8Ocu5V2V2qOlijNPaYfxA9pwWtmT4hUXE6nWsvn8ivMdr98VYzm/1OiGdcVHnMRqlBGrpJAy7dp0tOkb41nW3re7wOF3bu3+U7q+T7hiU4Mkm5s59bomSXGJUQqTVOrRgAv13af1Tb7qWcb92R4t7RymuaOTtXC59X2Gp6+9YtWnY7DyvjxuKGEu1fHCCiktVmM6HzSvVX3sd/7bpVxSn/RYdQwp1BcOn6c5IR85OkzxbSXZXEPeQeP1u9LGoZy/8Q3r6vPdt9cVvcIVkpetvzd5Y7yatTcZf+cOnta3p3ppbGSY2kk2T9Ld+X22OqCTRReluEh1vkyiQx0AAIGhWSbu1soAv0/cfSpXi9fEmmeeFx/VP1Yak/1IdYpsIUV00/Tnu2m6kzMUG4/1d6lhimpZ+yERUW0VogZWCPioq3xaXJjPukzWvXaYojq3lFTPmx8B6tu3M7Wll3nmed6nuxyT/bgwRYZIYaPGauUoZ2cwORzrxzm7JCm+Q5hCVFvS2EbRvVtJxxuSAPuqq3yoYiKDffTh12PtdmFKDpdy/f2XAwAAeJxbiXt5eblMpsCcXwyjrnpwUryCi8+pqH03TZ9bpj12SWeRThRVSa0CeQa8QWaZCi9Kcc5+ZknqiwvPyZ9rBvzN3pNlqpTzmlxzUl+mwuMXG3TukzmFKrMpIPdnfaakamSXchUVSfGjhmvuCUPSebJMReVSyZeBOwPeKO9Mmcrl/IadNakv+K6ZjXPzKpPyiypcbGCzJvVlOtDopD1ZcZEtpZIiHf+hsecCAABNxa0HddnZ2Vq3bp23Yrn0RI3R7KeWadmShzS5e1MuHKnpi9KUHJKvDYs+0evbSlSZ2E+LDHvhc8+cU6VxL7tTRfoq+2w9j3VuYr+OTVD+cU5niioV0b2jBrc2/KhzmKKCynTEScm316V2VK/ohj8z37vztAoqw8xbFzwYVr0cL1Ohi7W7dmirIHe2GhgVnVLR+csU32egujQ6UC+6ur9mj+6gH/Z/o4UP7dLesjZKnXKF/V74g+dUeEGGvewufHZKh8rqeawzllJ7b/v2eJkuKEq9R4UaftJenaOCpbzTjiXfTWB0WqxN93Z3ndTuQz9I8bEa07nuoz3Lsm3C2dq92iqqlTtbDWoTrw5RLaXSAh2gTB4AgIDRLOe4B0plQHVX+VaWrvJNZOKcYRoRG6ScjTv19jnHZnVWe1cd0XflYRo47UpNqaMTm8tjM9L1tO0NgcxTOlhgnzw7jH6zk6vMwxelxG763dDG/roWacXnJ1UR0U3T5/aoaS6XmqzF18crOOeoXnM2Zs2DHBqxORmj5rbMA9py8KIiBg7R72+wb1r34BOXa4Qxo7Y22Lsy2fFnHlo7bepITe7TUjlfHWh4tcbJHBWWSZdFxqhDI8P0ml5JWnSzuRndmlV5KnZoVmd1Uh9+dUbl8cn6r3scG4zZc3Vse/1m/lC7GwKf7D2tMtvk2WHcnL1vd57WqfI2Sh2Z2Phahs+OaNv3FeYKg9E1zeVGzxqisV3KlbklxwNJZi2cNGJzGKPWAJ9sPKLvy6N0zf0D7Jrr9ZkyXI/eYrxJYW2w11XXTDT+zFNrx+n+u1LU5YdcbV7rgf9fG9NPPVtJuQc/pqM8AAABpFnucc/OzlZ2dravw6hT4e79yh2fopRWnu4qb3jRpot3dZKcs19PVzejK9KKdw6p16xeGjjtGt0jaxd18wixiXOu1Y3PTFKG3UnzDbPIXRybs1+zn7DdM17TGK9673zOfs1eap6V7szaZz+U5lyrG6dN1MppjtfkdC67utmf37oNYMNO3X68zDz+zaaRXI7NKDOv2rBTS+PCdG/1DHXzqLktw8frxo4NP+3aZz/U2ox0vTrZdja7+TtyTJxztfhu6UHb70CGxobObijY/G7Zzmhf++yHyrWMf7Nfe439eDe3ZWnDlweVdl2qfjqpi/Y4m+XuJFGt2Ufe2H3S5q7y1xhere7iXb32eWWu/qamkdxne7Q6LVa/TUvWwj+quov6t29/qRk7k7To3nQ9tzzd7pxn99vPInd+rOV6bJ9iVzfGs73mDdrUd5R+6+xe4MFszf+ztOjeFC1cnux4TZKTmeOuPtNSvbFonY5bxr9VN5I7azvKzJtK9caiXYp59oqaGep5B7Tg6SrNuDel4XelD2Zr/t2n9Zv5I+xms5u/I8fE+du3v9QzGm7zHUjGxoaONxQuq/ndsp3RfjBb8+8+Zxn/Zr/2/W6PK3RuTL+eaqVcHfyYtB0AgEDSIiEhocrXQQCAcymaunC2hrTcoeUPv+a5ee7ApWjMbC25MUXn9/6vFr68lYbyAAAEELceSiQmJmrUKKctkQHAC8xP3c9HDtbUeZP8e6874NfGaPZ1KWpVslfvryJpBwAg0LiVuIeGhio6OtpbsQCAg5Prn9OK7QW6rMcE3fW7/r4OBwhAybplwS+U0ipXm556WVvJ2gEACDjNsjkdlQFA85K1aoGWbj+uHxTJU3fAXcmDlBRzTnv/d4n+wdZ2AAACUrNsTkdlAND8ZK16XIt8HQQQiA68qYWzfR0EAABoDLeeuJtMJhUUFHgrFgAAAAAAYODWE/ecnBzl5OR4KxYAAAAAAGDQLPe4UxkAAAAAAGgumOMOAAAAAIAfa5ZP3AEAAAAAaC7cStwZswYAAAAAQNNyK3FnzBoCR6pufewZzZ0Y7+tALgmpv31Uj98+WCG+DgQAAABohpplqXxSUpImTJjg6zD8X0a6Xl0+SSuXD9WUto071cQ513rkPJ6Rqlsfm6kr2+TpwK48XwfjXO9eevzFSVq5/Ce6f2Tj0t2UX43Qqx44T8OlalDPDooc+Ds9SvIOAAAAeJxb4+ACRUhIiEJDQ30dRhOL1PRFwzWi1TGtWLBPX/zo63hcSE3W4lm9FOv0llGZdq3crOe3Vbo+rvhonddNuy8FAAAgAElEQVSXeusUXRlVqK+WPaO1hrw95VcjNOeaKOe/+GeP6X8f3aNNZ926IknST2Zn6NepZ7VpwZf631Puv79pdNLcJYOV2sb5T49/8pEeeft8LcedcXF9mfrrH+/Wqfue188HTtatg/fo1R3lHo8eAAAAuFS5lbiXlJQwx7052bBTt2/Y2bRrZh7Qg3cdMP9zRrpenRyv4xvX60+rnSd6xbu266GXT8ucp5tvTkx/vpt+6uo9qbdqypVRKvxqmV7PdPxx1ltf6Pa3zP/s02T7u4N6eNbBJl70hJ65b435H3v30uP3JqvtgR2av/SESp0dfvyAfr/woE5a/vUnszP064WTNDjT+Xs2LFmrlOd/roGTb9XgPa+K3B0AAADwDLdK5fPy8rRjxw5vxQLUoUgr5n+pL05XKnFcupOy/HhNzLhcUecPaetGJ1k7GuWjpRv0t8wLap/aT7c5LcvfoCVrv1NFxECNmejisT4AAAAAtzXLUnkqA2qXNnWk7h0eXnPXxlX5eUa6Xp0crn0rN+vQ8PG6sU9Lyw/ytWHuNr19rr7r2JTAN1qRvso+q2GxMUrOCJFsn7qnjtOwnm1U+NUGhxJ595nLxRMO7dD8fR315K+6ypqK1pSUN8A1A7TM5lwuy88tT8SrPvtIf2sxyKa8/7z2/u1TPbeljsfZNus0Kl6Dj/ad0uTUrurWP1rttzh5Ur8hS4cn9lbv3hlqo3/KM6sCAAAAl7Zm2ZyOyoDa7V21RbfdsUbT7vhcX5yuK5kO08BpE3XjZQc0u/o9HZQx/3KNaO36XdVJe85+zb5jk4eSdkv8J8tUKSk8JlK2IcQndlAbFSp7h+eetrdPHaw//ypUWxes0bQ71uipzYXqOHpEwxvBbd6tmXeYz/W3zAt1Ht559E/0QPo5vTXP+p6WSvv1Ffp/HWt5kzVpP3tM/ztvjceSdklSXpmKKqT2kW3lvIvEBmUdrpC69VYGD90BAAAAj2iWiTs8LGe/Zj9xWOYH7OYn3pURMUof6PzXx5q0l+7arjur3+dBx8tUWClFRLW162AeFROpNueLlF/oycXsn4hn7Tyt0xVtzE+cPbmMK4aGeR/tO6Xz6qA+o11kxdak/fgB/X5ewxrt1eq7cyosl9Q+VH3bOT/keGGRKhWhmH70lwcAAAA8wa3EnTFrl6acb3PrnXxHTzEn7bkb1+v+6qZyTSFeiR288Ij3eL7+7cMu8aU5p7Wjvsl37zQt+1VXlWfu0L02TeWaWuYpc+Ie2aVZ7sQBAAAAmpxbf7O+NMesof5ilH5FEyzTOUxRQVJx4TnRuNyqjdKuMN+48Opn0rutokIkFZr0jaef5gMAAABwqlmWyqekpOiGG27wdRiXoHxtmPu5pev71bpnqHd+vdLiwhQkqSS/yOaJfp5yzlzKrdDOa+/f1lu6vg/WA1O8tME8PkyRwVJp0TmZXByS2jFSQSpW0fcV3okBAAAAuMQ0y8Q9YHS7RQuWLdOyZYs1Y4ivg/EU68i2Nho47RovJO9dNeGKcAUVH9W/P7B/tlyYX6TzbeKVPDDew2sGDuvIts6jf6LHPJ68h2vqqHi10Rnt+LuL2e+SOkeZE/f8/dRDAAAAAJ7gVlaVn5+vrKwsb8VyyYnq0UHmUeTt1Hf0ZHX3cTyeU6QV8/fqQHmYZ5P31GQtfmmAkkPytWGR4/i6vJwzOq82ioyJ8sx6Aeqjpdu0Oe+ih5P3Tpq7ZKSuib+gvX/7j+P4umoZSukRLB39Thsu5QIIAAAAwIPc2uNeUFCggoICb8VyySnctEa7r0rRVXEePGlEN01/vpum271oO0c9UtMXDdeIWNtk2uY9dh3kGyNXi18O0+JZvTRw2kT9qfN6/Wl1uTn5ntVLtssnjhuvleOMcVouZ+AQvby85tjiXdt1p6umd5kbtfXQ5Zp4eYYmxmc6neWe8qsRNjPRJamDxiycpDGSQwd399mcy4btHPWfzM7Qr1NbOX9Po9e3KtGqR3cpeslgpY7+if4cs0Pzl55QqWU2faptLp86WH9e7hinJKlzsv57ebLNhRzQ7+tqepeRInPevoEZ7gAAAICHtEhISKjydRCeFh0drdjYWH3zzTe+DqVO3W5ZoAeuitPZ3av04CvbfR1O4Eu9VY/NvFL6apkeed1z89xRHxm67/mfq/e5XXrtj69qB5XyAAAAgEc0yz3uBQUFAZG0K2qMJg2Ik87u1nsk7Z6RuVFbD51X1JXTNHfipbvX3Rcy7puo3sHF2vXe6yTtAAAAgAe1DA8P/5Ovg7jkRI3R7Ef/S7eO76vLvlml+xe/r+O+jqnZOKuDW/MUM2y4Lu+fqpicTdp92tcxNX+pv31Uv+7fTjkbH9bSTU43MgAAAABoILf2uKekpKhv375avXq1t+K5NBRu0tIHNvk6imYsU68/skx65HopKl6Sk83u8KBUDerZQaW7XtNz/2RnOwAAAOBpbu1xD5TEPSQkRCEhITKZXE2aBgAAAAAgMDTLPe5JSUmaMGGCr8MAAAAAAKDRmmXiDgAAAABAc+HWHve8vDzKzwEAAAAAaEJuJe4lJSUqKSnxViwAAAAAAMDArcQ9UFAZAAAAAABoLppl4k5lAAAAAACguXCrOV1ISIhCQ0O9FQsAfzZkhhb/z2yN7eDrQAD3hY24S4/Pn6Levg4EAACgAdx64p6UlBQQc9zhKZGavmi4RsTW3N8p3rVdD718Wj8aD81I16uT421+ofK1Ye42vX3OcFxqshbP6qVWe1ycx9sscR7fuF5/Wl3e1KsHriEztHjqAAVlrdbuM74OpqES9NCL/dXH5k+9oxs+1KPvXXQ4sv+0UbpnaPuaO5vFR/TKI5naavyVmZCuFdfHK9fFebzNHGdL7frLZr3wVWWTrx84wjQgLVGRnS7X3fOlFxa9re98HRIAAIAbmmWpfGhoqEJDQ1VQUODrUJqeJTG2ybVdJ9t1KtKK+Wu1wua8rVwdumGnbt+wU5I0cc61urGP24v5FfM1tKz1mJxATf7dvnkxRDMmD1C7k1/oqaUfyz5vj9KMx4drWHQLp+8s/nqbHlierwZ/SpbE2PabcJVs1+2Ynpx1zO68ruxZ+aluWylVX19A/0lZ+3dkVqadAZr81+/mRZm+eOkhfXfTH/To6OG6ecrXWvQ2qTsAAAgcAf3XUVcSExMvycqAtKkjde/wcJXu2q47bRL1iXNG6Y6hBXp+W+D9pdxX1j77odZW/1tXPfjCACXn7dfsJw7LWETQ3A2ZMVkD2p3UFy/9TUcdflqoVx7+QK9Iqn6i/f1+zfzvwzrfyHUnzZ2oyb2DDIl6lGY8nq6b132ldxq7wCXD9juSdHmKnpqZpJDdjbypEoDy331Vn/R6VKOH36wpXy8SuTsAAAgUbu1xhx/LSNdsS9JufLq+9tlPSdrRMN0ma3TfdirL+kLrHbN2r+k/bZSud0jaJXMSStKOhsrXu69+ou+DO+nKcdf4OhgAAIB6c+uJe05OjvLz870VCxphYr+OCla+tr9Rv5J469P5mjs3Zdq1cnPTJvh2++JdrO9m6b9DiXtOPZ6S26zR8G0Fjv0AVHxUKxbs0xe2J8tI16uTw7Vv5WZt7nOV3XfgrPTedcm+sYdAXf0ILFUDITVnSBw3XivHycXxZkPGDVFCq5P6Yo2xRL4BJqRrxfXh2v2Xzcq5eoIm97bGelrr79tuk4xHaUhSOwUVH9HGNfUribc+na9hPKf32e+Ld7G+W6X/jiXu9dp6YLNGw7cVOPYD0FHHSgrzNf+gjfdtl2mm7XfgrPS+lpJ9hx4CdfQjsFQNxNh85em3TdTK21wcbyt/sw5+P1pdeqTqGm3W5ro+CgAAAD/gVuJuMpmYj+6Xuiq1R0upuEy59ah7TZs6Ure2OaCZd1iTNEvSN+0a3aMmSt679dOy7gV67Z41+uJHS4JqXD81WYt/E6L371tTnfyabzgM0ZN3GpNMa2Jqn9CmTR2pOTfkaqGrvdzVSbuLZnr1EqnpiwYodO06TbONfVYvTV8oyZi8K0wDp03UwOKjWnHPlprrH3e17jluvX5rIn6mJi5rrKXGGwKWay87qhX3WF5PTdbiWUP08h+sNy5ytfjuXPPh9d7j3k2do1pLJ/fqC489bQ9T+m0TlX50v2becVjnLcnc+D+l6pg1cbu8o5KiWkjHTNpdj9/nSXMnatCR9Zr2jDVJMyd945cMkZokeS9T+JUTdF/JN/bXZFx/QrpWDCjS7Dt2Vie/k+ZO1OSMa/VHGZJMa2JaekSv3F2T0E6ae43uuHKL673c1qTdVTO9eknQQy920pF5a/SkbezX99Oy38vJNohYjV8yyZzY21z/sNuu0M37rNdvScTP2VyPNVbjDQHrtR+zeX1CulZcf62ei7HcuNiXpQfuypLUkAZ9+dp88HuN7tJDqddIm8ncAQBAAGiWpfI5OTn69NNPfR1G00kNU1RLSSVl2lOPR8V7V23RHLukt0gr3jmk05Vhiupce0M2T4loUaDXbJLPtc/u04HyMHUfEK3W1oMyD+jBh+yT3r2r9mnr6UpFRLWVzcNjpU3trt4hZdq18iu75Hvvqi11J+2lR7XinoYm7ZK5id8n9jc8Mg/ob9tKVBkRpq4hTt6Ss1+zH7S5/v2nVCGbzz+1o3pFB6l412H937mac245eFEynNN87fnasMjms7Kunxirn7Vt6HV1VHRkK5UVndTZhp7CGbtErVDbs8+qMiJW6QMtfxx1CVVUkFRceFYV9TjdmmfWGp6sHtOTH+TposIUc3lT/BEXpsiSb+yu6ZW3Dym/MlbJE2z+e1q3U9MNSe+aZ/bp2wopIibK7vd50rgeigk6rfV/sk++1zxTS3Jqmwg/2NCkXTI38TPc8Fi3U//6rlKKCNUAJ7/PxV9v0wzjd2r7+U+IUVKwdHR7Vk1c647oq4Iqh3NOGtfDfMPiaZvPyrJ+RI+OGuzsvyc3mfKKVKpgRcYxHA4AAASGZtmcjsqAhguPiVRreX9MW/GRU9pht8g5nSmqVHJUW4XUZ/3wMPVvLUuiGqkrk9opKCdLr9W3WiC6txb/pIdic73dcC5UsalBkiGunG9z7de06crvnppr/8BwEXtPlqlS8UrOCJEa0v2+W2dFta77MHcd/Tan0Y3r6idMHbq0kL7y/koO17SvTIWVUseYKIWo7gZwEVHtFFx9XIL69QhS8deH9V59P6i0dK24Ik5nG9vFvy4RYUoIluGmQJkO7Tpjt2ZNV353Wa597yntMFzEscJzquxtvsGztZHd78u+K1CpghUdHS8xGA4AAAQAtxL3S3rMmj/LLFPhRSnWLpmtjZP92BbFXgnQDYZrcNyLb2EXaFt1iAySO9lg4qAejYvTyMlefLOyhp0v85QOFvTUiIE99Iu2p6tL5Uf2ainlnLZJ0i3XHttPS5f3a3D4fuV7kworpRi7ZLY2TvZj+4kIwzU47sV34vIwRblVKBCm9CvCGhihC0724jfKunxl/yxefYakaNgaa6l8d10Z3ULFX9sk6ZZrjxg0VK8sd3aiBv73BAAAEODc+qvupTpmzf+Zn1Yr1lJCXWvi7nwveJ1z2r3OkoDm1ZT7Wxuz2Tdts9x0aGSgORvX6722w3Tv8H5adOe5Bjaks7A22TM0wjPfdGhoNmn5PBSjjGcmKcPyarFh1F/1d38+y/OVA0ePq/BHqYMnz1kflqfVMZYS6lpLvm33gtvu6a5jTrvXWRLQmnJ/a2M2k6Fpm+WmQ6MWMzeCy7l6giYPGqo/TG5oQzoza5O9UsPTe/NNhwae1HozIqK7ZrzQXTMsLzs0kLN8994eVRfWO1rtVaGigjwvrQAAAOBZzXKPe3h4uBITE30dRt263aIFy5Zp2bLFmjGkMScq0lfZZ1WpGA35TaxqrW627Ie32zvtDyxx1ZSQR6pTZAup+Kj+/UFdf33PVebhi5Kb+7n3rtqiP39ZovYDh+jJO+v43GqRFhemIJVp16ajnkucM2KVFFKmXSvXatoda6r/d7/DDYYinSiqcvva6+eUCoouKCyhrwY0afZ+TPsPV0oR3TVuUh3PfC374e32TvuDLqGKCrItIW+rqIgW0tGj+ktdZd77Tim7sMrt/dxrnlmr976rVLeMa/XHyQ1/Vp4Q1VZBOq1tf/Vc4tx/cKw6BJ3W+vvW2P0+O95gOKfCYvev3V2h8ZHmxP0kZfIAACAwNMvEPT4+XoMHD/Z1GHWK6tFB5lyrnfqOnqzujThXddM2J0noxDmjdM9Q+686ontHDbYelJGuV2c7K/NuKl314J3mJnEOSXpETE3TMnXVgy9c5bTEf+3GwzpdGaOM+ZdrhM3Fp00dqQU3uM4A9q7aove+vej0c3OPfWO9iXOu1f3OSvzdPGd9mgW6unaXNpxWdrmUeGVyHccf1fHCH6WwSMW1q2/MnmFt2uaYhEZpxuNX6uY29sd365Mo60v9p43SXzxZ5u2uy1P01HXxauksSe8Wo+va2Bz3krMS/0K98vkJXYzorhnzesj2UifNvUZ3X+n6t2rNM1u1taCq0cm7ZNtYL0ozHv9Z3SX+dapPs0DX1+7Knh2ndaYyTOlju9XreClG1/TqIv1wWJl0lAcAAAGiRUJCQlV9D05JSQmIUvlAiVPqplsWPKCr4qQLxz7Sn598T0cae0q72ehmDvPBjccUH9WKBcW66pkBisu0GbPmct+243ldzxuXYZ658/31zuenG2ePm2e9Hxo+Xjd2zHWckV7nLHO5GIVm8z6nc98tceS5bmRnvP7iXdv10JGuesEys72643y9R7G5M8Pd+bWbA3EyS972mmzuaTj9DrpN1kP3/UQdDq3Wk0udzXKvZTa3DHPHLeXruYby6NrGednPRpeczQd3OObofs38oLUenZmksn/brFXrvm3b89Z+TfZd8Z3vr3c6Q9xh9vhprb/voMIfGa5h575xMmatjlnmcvXZ1bzP6dx3Sxyuy9Edr//ohg/1z/Crqme2WzvO138Umzsz3J1fuzkQx1nyttdkO9fd5Rz3mJv0h0dHK/qbv2vOC2TuAAAgMLiVuIeEhCgkJMTvO7YHTuIudbtlgR64Kk5nd6/Sg69s93U48BPWpny5Dgm+ix4FXjRkxmJNHVCmL55aqL95bJ47LiXm/fHnHW66uOxR4DUxuukPj2p03AlteWGR3qZSHgAABAi3ah/Ly8v9PmkPKFFjNGlAnHR2t94jaUc1y4g35evABmMmY2lG14S2b9yuYxfiNGLWbI1t8k51CHzmEW8qPq2duwy/u5ZmdE0l5qbbNbpLhU58+Q5JOwAACCjNco97dna21q1b5+swXIsao9lPLdOyx25Ul+xVmvngKyJtRw1LwznFmGew28rooSGxQYaRcF529D09+dZunQ1L0Q2zfq1uTbQsmgtzwzlFxNr0qzDrP627egVLxYcd57Z7WtiIuzR3dBf98M17WkTWDgAAAoxbpfIAmo6rGfYOPQuaypAZWjCmTB+98jd96bjZHaiV8xn2jj0LvCNMI+6ar5ujd+uFRW+LtB0AAAQatxL38PBwRUREKCcnx5sxAQAAAAAAC7dK5QNlzBoAAAAAAM1Fs9zjHh0drb59+/o6DAAAAAAAGq1ZJu4xMTFKSUnxdRgAAAAAADRasK8D8IasrCxlZWX5OgwAAAAAABqNrvIAAAAAAPixZlkqDwAAAABAc0HiDgAAAACAH2uWe9wlSe1HaubDU5TaTpJpn96a95I+83VMAAAAAAC4ya3EPTo6WrGxsfrmm2+8FY9nWJP2lvv01kwSdgAAAABA4HKrVD5Qxqy1H5CqxHYm7fsXSTsAAAAAILCxxx0AAAAAAD9G4g4AAAAAgB9zK3EvLy+XyWTyViwAAAAAAMDAreZ02dnZys7O9lYsAAAAAADAoBmWynfShJGpamc6pEw60wEAAAAAAlzzmeNePbfdpH1vzdRMknYAAAAAQDPQIiEhocrXQXhWJ938yHyNitint+YxDg4AAAAAENjcKpWPj4/X4MGDvRWLh5zQui2ZOhvaU6lX+zoWAAAAAAAax63EPTw8XImJid6KBQAAAAAAGDTD5nQAAAAAADQfJO4AAAAAAPgxtxJ3k8mkgoICb8UCAAAAAAAM3Ercc3Jy9Omnn3orFo8p3Z2pnLOhSh75SyX5OhgAAAAAABqhGY6Ds+h0sx6ZP0rxkmRiNBwAAAAAIDA138QdAAAAAIBmgOZ0AAAAAAD4MbcS98TERI0aNcpbsQAAAAAAAAO3EvfQ0FBFR0d7KxYAAAAAAGBAqTwAAAAAAH6MxB0AAAAAAD/mVuJeUlKinJwcb8UCAAAAAAAMGAcHAAAAAIAfC/Z1AJ7UfuRMPTwlVe0kmfa9pXkvfebrkAAAAAAAaJRm+cTdmsC3JHkHAAAAAAS4ZtmcrnTLG1qbeVahPVN1ta+DAQAAAACgEdxK3JOSkjRhwgRvxQIAAAAAAAzcStxDQkIUGhrqrVgAAAAAAIBBsyyVBwAAAACguSBxBwAAAADAj7mVuOfn5ysrK8tbsXhQqXZn5uhsaLJG/jLJ18EAAAAAANBgzXIcXI32GjnzYU1JbcdcdwAAAABAQAr2dQDeYp7l3kelm5dq5sxsX4cDAAAAAECDNNM97u01IDVR7UwHtOXvJO0AAAAAgMDVTBN3AAAAAACaB7cS95SUFN1www3eigUAAAAAABjwxB0AAAAAAD9G4g4AAAAAgB9rnol7pwkamdpOpkOZYgAcAAAAACCQuTUOLi8vTyaTyVuxNJp5BFyq2kkqP75ZS5nbDgAAAAAIcC0SEhKqfB0EAAAAAABwrnmWygMAAAAA0EyQuAMAAAAA4MfcStxDQkIUGhrqrVgAAAAAAICBW4l7UlKSJkyY4K1YAAAAAACAAaXyAAAAAAD4MRJ3AAAAAAD8GIk7AAAAAAB+LNidg3NycpSfn++tWAAAAAAAgIFbibvJZJLJZPJWLAAAAAAAwIBSeQAAAAAA/BiJOwAAAAAAfsytxD00NFTR0dHeigUAAAAAABi4lbgnJiZq1KhR3ooFAAAAAAAYUCoPAAAAAIAfI3EHAAAAAMCPkbgDAAAAAODH3JrjnpOTo/z8fG/FAgAAAAAADNxK3E0mk0wmk7diAQAAAAAABpTKAwAAAADgx0jcAQAAAADwY24l7uHh4UpMTPRWLAAAAAAAwMCtxD0+Pl6DBw/2ViwAAAAAAMCAUnkAAAAAAPwYiTsAAAAAAH6MxB0AAAAAAD/WIiEhoaq+B4eEhCgkJIRZ7gAAAAAANJFgdw4uLy9XeXm5t2IBAAAAAAAGlMoDAAAAAODHSNwBAAAAAPBjJO4AAAAAAPgxEncAAAAAAPwYiTsAAAAAAH6MxB0AAAAAAD/m1jg4bwgZ+6rSR3SVfszUd4vnqdDXAQEAAAAA4Ecu4SfunRR323oNffBpRfk6FAAAAAAAXPD5E/fyj2/Xto99HQUAAAAAAP7pEn7iDgAAAACA/2uRkJBQVdsBLdOe1OXXp6h07f9TYfcVSu7b3vyDiyd07I1pysupOTZk7KtKHxqsY2/cK9MVNsfqR51e+3Md3mk9sr0ibrT9uVR5apP2L39KZQ5rD1Dwtyu14513nMTl+LPqPfPV7Nd2/LmBk+tS+/uUct94hbs4p71gDb59oX43MFwF21/SglWZrtcCAAAAAKAO9SyVb63YiX9X9KlN2rfwKZWpk+JuW6luv1kpGZPclp2UMPXvqjQeO36lfiiwHluq4n/8Utsk6bKfq9tddynWyaoXv9uq4rMDFNftCkXpHZvGde3VrncPXXbxhI5ts0/a+0d/pG0Lra9Z1p74L0nmRLumNN/ys+jam+LZ3iDYZrlBEDL2VaVP/EBtoh/V/g3/MXyiAzSwe4QkqUPPdKUqU6TuAAAAAICGqnepvP0T8RM6+e56lbSMUWTyFQ7HVny7Ul/ZHHvmaK7UMkqXRbsZ3Q//0vG9uVLrXopIt3n9stGK6NpelQVZKrG5aVD+8e2GJ/OWONVSbaId46xbJ8VcMUCtTm1Sls15yz9eoKPHgxXWbbTCjG+p2K1dR4olVenMoZ0k7QAAAACARqnnE/cKlR39xK6MXReO6PzZYEVH9JBk+9T5RxVm25e1N6YBXfl/9qtkRFdFJd2swzvN523Ze5gi2v2ogi32pfWuBauNQ5z10P5mRXauUNl2w7WrTD+UlCqoT4rCE6Uy24oDVWjHq3/QDvdWAgAAAADAqUZ3lQ+KSFSYVM8EugFKX9OJb4Yruae1XN5SJv/jQR1z2GNuKX/v7HiaigYs3bJbnForWJcNWaShQ5wccNFrVw0AAAAAgKTGJO6tuqtNO6kyL8d7SbskqVRnvzusH/qmKCJdKtw/WhFdQ3V29zv2+9Ite+XjQk/o2CqbffeWxnIOJe31cPHoSf2oCpVvd7KXHQAAAACAJtDgcXDmp9GOZfHeYG5S11pRSTcrZMTPFBear6IDhkTaciOhInu9fbO8xrBsB3C6l92lYA2+/QktW/aiFk5N9VAgAAAAAIBLVcMS9/b3qff1A9Tq1Bc65XQkmodZmtQFdxumTpHhtSbnwd2uUJTln1umPakBdmPcbFma5rVOVqcMF43rLOsGdRyjlJtvrl+s1V3lW1i6ygMAAAAA0HD1LJUPVju7fd4VOrt9vr5qaPm4tay9nc1r7cbo8gVjzGd3Mrfd3KRuvOL7/qjTa5085S9dou/+GafLrx+g3gvWm1/7MVPfPfWS2t91l5w1tC//+Hbt1KtKH2FzbYY57uUf365t/7lPKfdN09AF0+ze7yxOa1f5gQPD6SoPAAAAAGi0FgkJCVW1HWCeY57KPm8AAAAAAHygwXvcAQAAAACA95G4AwAAAADgx0jcAQAAAADwY3XucQcAAAAAAL7DE3cAAAAAAPwYiTsAAAAAAH6MxB0AAAAAAD9G4g4AAAAAgB8jcQcAAAAAwI+5leh/A68AAA82SURBVLjHx8dr8ODB3ooFAAAAAAAYuJW4h4eHKzEx0VuxAH6upa6b96IeuzXNyY+u07wX52hi0wcFAAAAoJmjVP4SFn9Tib7ZcEw5HxTo5YG+jsZzqq+r+n/fa+vci408a0tdN2+pxncvUvbXex1/OrG3erRI0kSSdwAAAAAeFuzrADyp/7wCvf9Tk5OfBClvYycNe6al+V97mrRtWYE6OTuJKUJP/6K9lnoxTu+p1Cuvfa+MSD++hto+ewVr7/J4TXqv4aePv6lEH00vUdCeOCU+0KrhJzJoed39Gt+jStlrH9Hrjnm7Lr7/tO7OvU2P3Z6ua+dM1Npn13psbQAAAACXNrcSd5PJpIKCAm/F4hnloVo3P1p37qr70PN74pTsweQu0OS9G66+74Y37aKHQjU0I0GSNck+qxLbmyqNUqUpV5oUVh6qdW958HtteZ3uH99DVdlrVVs+Xrlrpd7d2VO3p1+rORNrPxYAAAAA6sutUvmcnBx9+umn3ooFaKQqJXcol8pbaX89btzUT5AG3jpUPaoK9Z+P6srEK7Vr5bvaWdxCPYfdKic74QEAAADAbc2qVN7TrGXXYcby+egLWvvySaW2M5Tgq0pz/uek7k0rrz5HxffRmnFbqD6u7fzWF4zVApay8ghDZYDxSbXjFoFizdtQrHkuzutwfK3bAxyvyfF4c4n+2KpozXhCetymFL7hVQ2WdZPC9PTtl2n8yyeV2s78k9o+0/qxbCnoXPOKy3O2/JnGpkeoKnut0xJ5x1Pv0deHipU+KEmD0qS99XkPAAAAANSC5nS1yHs3XD9ZEa6y0GLd9xeTxkqSqjTnwTNOkvZKvfJaru5NCdG6hxKUmJGgxF/H6UB4gV77v1LNtjtzleb8zwltnX5WJRs7m4/NSFDivaFKvdu6Tv3teTraco4u2nBc5sTaes6MBCX+zH7rgMPxrkRf0Np/5JqT54yaa8q8WKx5ThraBXcp0GvLipW/3HzssBXhqux/unGN4UKLNe9vpxW11fI5zYxWfpcCvfjUBcsBlXrltZomdBmdLe+xbU5n+/n3NGnbBvNNht9Zr8lyTsfvSQpKi1GUqnTo2/rWvVdqz9eHVNwiUkmDeOYOAAAAoPEu6cS9Tf+TNp3Hzf87UJ0QmuW9214r9oYouEuhHpt7UfE3lWp6WrnO74m125cdf9NZXdU5WHtfs0mSC1rp9nfCVRZ6TuMm25y053n90sk5dChUVzXqSbJn9b+1VKmXhWrdQpun6wWtNPHBaJ0IMemaX10wvMO+uVzeJ2105GylYvv+6PbNiBqGGySHLtPe41KbXj9YkuwgzfhdQu03LqqrA6o0584SdTJFaInt53woVJNXhKsstFS3GG4ytOgaqYiqIhXm1j/iyr35KlQLRUZ1bfBVAwAAAICVW6XyiYmJ6tatm3/vcw8xacKTx5Rj+5qLhnX1K+NuoWf/q6OSX/teGeOOa6ssZdV277M0RTO11UZDR/S8r0NUqgr1GnpBes/8nv6/MKmTpxuoeVylZvU1qeJUtN417he3JM9jO1RorFrVJMBOrr/Ryi/Tnk2eaFwnKbpcY7uX6/zByxy2BeR90kZHbi5Rz44XJVnXC1JaTJSkSvfWqcpVUbHUPSpGaZKolgcAAADQGG4l7qGhoYqOjvZWLJ7hRlf5+gvSjMejzWPMykP17xeMT8UtTdFCDXvLbZy3OXZsx3JJIZ4M0POiK9S5vaQS14cER1Wor+Q3FQJ1Cq9Qh3a1HxJivBkBAAAAAD5Gc7p6qdQrDxeoU3lrFf9g0oQFpZpt15ythQ6cCVFGZJj/zk93V0GwjpdKyc5+ZknqKwqD9U1Tx9UYJcE6c1aKcPYzS1JffjjYJmmv1N78Qrl4h2stuioyQlJ2Pk/bAQAAADTaJb3HvX6qNOd/Timjc7D2vtZRE94xNquTpBb6+FSIZNzL7lQLvf1VqMpCflD/MQ1p2mYpy2/AO91jvhkR3NGkmwxN6MxJbpBOf9M6sJ5MW25G1OyPrxE/qFztFayD2+y3L1TlFrndaM7a0K7InY3xAAAAAOCCW4l7SUmJcnJy6j6wGek/74zuTSvX+T3RmvSeY7M6qz2vt1fm2Qql/c6x27pR3rvt9PnxSsWPO6U1dk3rTPrc9oaAQyM2J6PZ7ATpxW9CJSdN1tzXQs++HK4TIZYKA+vL0Re0dnGBOpna681nPLT3vMkE6U/rnNx46WnSe9NL1Pr7CC0x7NF3v9FckPoP6qmIqiJlf83zdgAAAACN51apfF5envLy8rwVS5Mzd5U3vGgzo7x63rkpQi9WN6NroWcXd9DYl08qddwJbZWl43lBK028sas5sa6zOZ65E3r/eQV6/45jyrnDfu2ap9hBmvFAnNa+fLJ673zF99H63Uzp8WWFTq9pz9PRuk4Fen/cceWMc7a+4wxz27nvdvPMD4Vq6K/t15fMTf0SGzSbXdWz6TvZvBRWHat9V3pvyHs3XH2/DtG2ZQV6rfq7D1Lexs7q6exGxMUP9PHOobp90DDdmlaPWe5B/TWoZ4Sqir4SeTsAAAAAT2iRkJBQ5esgAL/W8jrNWzpe3bPXataztc1zD9LA2x7T7enhyl47S7UeCgAAAAD1xB53oC4XP9DHO4vVIulaPXar673uQQOn6ab0CFVlf0jSDgAAAMBjSNyBOlVq11/ma/3hFoq68g7NmejkkJbXac7t6Qov/ErLydoBAAAAeJBbiXtSUpImTJjgrVgAP3ZR7z89W+sPF0lyfOrecmJv9ajK1oePvM4IOAAAAAAe5dYe95SUFPXt21erV6/2ZkwAAAAAAMCCUnkAAAAAAPwYiTsAAAAAAH7MrcQ9Pz9fWVlZ3ooFAAAAAAAYMMcdAAAAAAA/Rqk8AAAAAAB+jMQdAAAAAAA/RuIOAAAAAIAfC3bn4ICa495+pGY+PEWp7SSZ9umteS/pM1/HBAAAAACAm9xK3AOGNWlvuU9vzSRhBwAAAAAErmZZKt9+QKoS25m0718k7QAAAACAwNYsE3cAAAAAAJoLt0rl8/LyZDKZvBULAAAAAAAwcCtxLykpUUlJibdiAQAAAAAABpTKAwAAAADgx5ph4t5JE0amqp3pkDLpTAcAAAAACHBulcqHhIQoJCTEP/e5V89tN2nfWzM1k6QdAAAAANAMtEhISKiq78EpKSnq27evVq9e7c2YGqmTbn5kvkZF7NNb8xgHBwAAAAAIbM2wVP6E1m3J1NnQnkq92texAAAAAADQOM0wcQcAAAAAoPkgcQcAAAAAwI+51ZwuJydH+fn53ooFAAAAAAAYuJW4m0wm/+woDwAAAABAM9UsS+VLd2cq52yokkf+Ukm+DgYAAAAAgEZwaxxcQOl0sx6ZP0rxkmRiNBwAAAAAIDC5lbiHhoYqNDRUBQUF3owJAAAAAABYuFUqn5iYqFGjRnkrFgAAAAAAYNAs97gDAAAAANBckLgDAAAAAODHSNwBAAAAAPBjbs1xz8nJUX5+vrdiAQAAAAAABm4l7iaTSSaTyVuxAAAAAAAAA0rlAQAAAADwY249cfd37UfO1MNTUtVOkmnfW5r30me+DgkAAAAAgEZpkZCQUFXfg8PDwxUREaGcnBxvxtRo1gS+Jck7AAAAACDAuVUqHx8fr8GDB3srFo8p3fKG1maeVWjPVF3t62AAAAAAAGgE9rgDAAAAAODHSNwBAAAAAPBjJO4AAAAAAPgxt7rKZ2dn+31jOgAAAAAAmhO3nriXl5fLZDJ5KxYPKtXuzBydDU3WyF8m+ToYAAAAAAAazK1xcIGnvUbOfFhTUtsx1x0AAAAAEJDcKpUPJOZZ7n1UunmpZs7M9nU4AAAAAAA0iFul8tHR0erbt6+3YvGg9hqQmqh2pgPa8neSdgAAAABA4HIrcY+JiVFKSoq3YgEAAAAAAAaMgwMAAAAAwI+RuAMAAAAA4MdI3AEAAAAA8GNudZXPyspSVlaWt2LxnE4TNDK1nUz7MsUAOAAAAABAIGtW4+DMI+BS1U5S+fHNWsrcdgAAAABAgGuRkJBQ5esgAAAAAACAc+xxBwAAAADAj7mVuMfHx2vw4MHeigUAAAAAABi4lbiHh4crMTHRW7EAAAAAAAADSuUBAAAAAPBjJO4AAAAAAPgxtxL38vJymUwmb8UCAAAAAAAMGAcHAAAAAIAfo1QeAAAAAAA/RuIOAAAAAIAfI3EHAAAAAMCPuZW4JyYmatSoUd6KBQAAAAAAGLiVuIeGhio6OtpbsQAAAAAAAANK5QEAAAAA8GMk7gAAAAAA+DG3EneTyaSCgv/f3t2zRhGFYRh+AhuRBBZkERTCIBIUFFYQbVIZwWL7WAj+AElpKaTKPxATsLaw0MrORgvFUlBQUFIYEC38gAQCWwRioQYJfmSixxzIdVVbDMzb3szZ834sNQsAAACwxUjTNBu7PQQAAADwc47KAwAAQMWEOwAAAFRMuAMAAEDFWoX75ORkBoNBqVkAAACALVqF++joaMbGxkrNAgAAAGzhqDwAAABUTLgDAABAxVqF+8rKSpaXl0vNAgAAAGwx0jTNxm4PAQAAAPyco/IAAABQMeEOAAAAFRPuAAAAUDHhDgAAABUT7gAAAFAx4Q4AAAAVE+4AAABQMeEOAAAAFev8+ZHxTF2Zy+V+N8kwL+9czY2HxecCAAAAkow0TbOxvUe/B/w+8Q4AAAD/SYuj8mt5cutenq/uz9GT0+UmAgAAADb5jzsAAABUrEy492ZybXEx1+cu5XiRFwAAAMDeUCDcxzN18UwmknQOTua0cgcAAIAdKxDua3n2/E1Wk6x/WMrTV//+DQAAALBXtLhVPtm8Wf7EWh4tzOe2KAcAAICiWob7N+NTuTJ3Of2uve4AAABQUqfd4z9+cZ/NrC/uAAAAUFS7cB8/lf6Rboav7//+mHxvJtfmz2di/b0j9QAAAPAXiqyD600fy0SSdA7n7IXpEq8AAACAPaFIuH+6ezMP3n793TlwyC53AAAA2KEi4Z4M8+7zapL1fFh6GiflAQAAYGfKhHtvkHP9bjJ8ncf+4A4AAAA71upyut7g3NcVcC9+sf9tc01cMnx5J7P2xAEAAMBf2cYe928r4PrdJOt5/2gh876iAwAAwH+xjXAHAAAAdkuhy+kAAACAf0G4AwAAQMWEOwAAAFRMuAMAAEDFhDsAAABUTLgDAABAxYQ7AAAAVOwLMiBOHuSPlhwAAAAASUVORK5CYII=;" vertex="1" parent="1">
                    <mxGeometry x="-338.69" y="-210" width="568.69" height="290" as="geometry"/>
                </mxCell>
                <mxCell id="DFymFndXBQcYxfHrS0Dq-22" value="使用的时候要继承这个？？" style="text;html=1;align=center;verticalAlign=middle;resizable=0;points=[];autosize=1;strokeColor=none;fillColor=none;" vertex="1" parent="1">
                    <mxGeometry x="-15" y="285" width="170" height="30" as="geometry"/>
                </mxCell>
                <mxCell id="DFymFndXBQcYxfHrS0Dq-23" value="重要的函数" style="text;html=1;align=center;verticalAlign=middle;resizable=0;points=[];autosize=1;strokeColor=none;fillColor=none;" vertex="1" parent="1">
                    <mxGeometry x="-80" y="378" width="80" height="30" as="geometry"/>
                </mxCell>
                <mxCell id="DFymFndXBQcYxfHrS0Dq-24" value="没有参数" style="text;html=1;align=center;verticalAlign=middle;resizable=0;points=[];autosize=1;strokeColor=none;fillColor=none;" vertex="1" parent="1">
                    <mxGeometry x="-65" y="348" width="70" height="30" as="geometry"/>
                </mxCell>
                <mxCell id="DFymFndXBQcYxfHrS0Dq-26" value="tick 的时候会有个临时的" style="text;html=1;align=center;verticalAlign=middle;resizable=0;points=[];autosize=1;strokeColor=none;fillColor=none;" vertex="1" parent="1">
                    <mxGeometry x="-455" y="115" width="150" height="30" as="geometry"/>
                </mxCell>
                <mxCell id="DFymFndXBQcYxfHrS0Dq-27" value="&lt;b&gt;其实就是一直tick&amp;nbsp; 直到标记为 ture&lt;br&gt;&lt;/b&gt;" style="text;html=1;align=center;verticalAlign=middle;resizable=0;points=[];autosize=1;strokeColor=none;fillColor=none;" vertex="1" parent="1">
                    <mxGeometry x="225" y="-355" width="210" height="30" as="geometry"/>
                </mxCell>
                <mxCell id="DFymFndXBQcYxfHrS0Dq-28" value="ProcessLatentActions" style="shape=step;perimeter=stepPerimeter;whiteSpace=wrap;html=1;fixedSize=1;" vertex="1" parent="1">
                    <mxGeometry x="353" y="580" width="120" height="80" as="geometry"/>
                </mxCell>
                <mxCell id="DFymFndXBQcYxfHrS0Dq-29" value="TickLatentActionForObject" style="shape=step;perimeter=stepPerimeter;whiteSpace=wrap;html=1;fixedSize=1;" vertex="1" parent="1">
                    <mxGeometry x="560" y="585" width="120" height="80" as="geometry"/>
                </mxCell>
                <mxCell id="DFymFndXBQcYxfHrS0Dq-30" value="自己更新自己的，如何自己没有tick 就没有了，官方已给基础的类型提供了" style="text;html=1;align=center;verticalAlign=middle;resizable=0;points=[];autosize=1;strokeColor=none;fillColor=none;" vertex="1" parent="1">
                    <mxGeometry x="100" y="530" width="420" height="30" as="geometry"/>
                </mxCell>
            </root>
        </mxGraphModel>
    </diagram>
</mxfile>